<svg xmlns="http://www.w3.org/2000/svg" width="17" height="13" fill="none" viewBox="0 0 17 13">
  <g clip-path="url(#a)">
    <rect width="16.843" height="12.18" y=".373" fill="#fff" rx="1.867"/>
    <path fill="#6664D3" d="M.967.373h14.91a.97.97 0 0 1 .96.967v10.247a.96.96 0 0 1-.167.549.38.38 0 0 1-.181.2.96.96 0 0 1-.619.226H.967a.97.97 0 0 1-.96-.96V1.34a.97.97 0 0 1 .96-.967ZM.924 11.18l5.042-5.239-5.042-4.26v9.5Zm5.801-4.585L1.34 11.812h14.119L10.31 6.595 8.803 7.857a.37.37 0 0 1-.473 0L6.726 6.595Zm4.332-.663 4.86 5.29V1.635l-4.86 4.298ZM1.4 1.115l7.152 5.797 6.837-5.797H1.4Z"/>
  </g>
  <defs>
    <clipPath id="a">
      <rect width="16.843" height="12.18" y=".373" fill="#fff" rx="1.867"/>
    </clipPath>
  </defs>
</svg>
