<svg width="108" height="119" viewBox="0 0 108 119" fill="none" xmlns="http://www.w3.org/2000/svg">
<path d="M46.9871 1.88156C49.1163 3.19239 50.6545 4.74175 52.0366 6.81684C52.1804 6.99833 52.3242 7.17981 52.4723 7.36679C52.7137 7.36679 52.955 7.36679 53.2037 7.36679C53.6942 6.78503 53.6942 6.78503 54.1864 6.0412C56.2713 3.20454 58.4888 1.55364 61.98 0.784517C66.2104 0.3416 69.7373 0.906518 73.2248 3.39C76.1949 5.88113 78.1742 9.06134 78.55 12.932C78.779 19.4006 75.9516 24.5195 71.8535 29.3077C70.6654 30.5817 69.4372 31.8104 68.1966 33.0331C67.8855 33.344 67.5744 33.6549 67.2539 33.9752C65.4321 35.7843 63.5638 37.5112 61.6144 39.1811C61.0339 39.6975 60.4546 40.2153 59.8774 40.7353C59.5724 41.0077 59.2674 41.2802 58.9532 41.5609C58.2258 42.2267 57.5167 42.8991 56.8133 43.5893C56.5229 43.8691 56.5229 43.8691 56.2266 44.1546C55.8482 44.5199 55.474 44.8895 55.1046 45.2638C54.2711 46.061 53.8025 46.4916 52.6251 46.5076C51.5893 46.0642 50.9593 45.5572 50.1411 44.7806C49.8262 44.486 49.5113 44.1914 49.1869 43.8879C48.9263 43.6396 48.9263 43.6396 48.6605 43.3863C47.7852 42.5535 46.9009 41.7304 46.0176 40.9062C45.5348 40.4555 45.0524 40.0045 44.5704 39.5531C43.433 38.489 42.293 37.433 41.1133 36.4157C40.6325 35.9976 40.1527 35.5784 39.6734 35.1586C39.4001 34.9196 39.4001 34.9196 39.1213 34.6758C33.3522 29.5921 27.7891 23.6287 27.1374 15.6089C26.9663 11.392 27.8695 8.31093 30.5542 5.03557C34.6751 0.734626 41.5368 -0.7593 46.9871 1.88156Z" fill="#FEFEFE"/>
<path d="M14.6011 29.8562C16.1721 30.0767 16.6566 30.3413 17.7322 31.5018C21.0172 36.559 20.4806 43.2036 19.3755 48.9578C18.5958 52.5863 17.4421 56.1414 16.2695 59.6593C15.5133 66.5036 19.0003 71.976 22.4861 77.5777C22.6676 77.8875 22.8491 78.1972 23.0361 78.5164C23.2204 78.818 23.4047 79.1196 23.5946 79.4304C23.7589 79.706 23.9231 79.9815 24.0924 80.2654C24.6551 80.9738 24.6551 80.9738 25.6623 80.9587C25.9416 80.9291 26.2209 80.8994 26.5086 80.8688C26.3536 78.6796 25.6967 77.3844 24.4745 75.5893C23.1464 73.5532 21.9276 71.5023 20.8405 69.327C20.7215 69.0923 20.6024 68.8576 20.4798 68.6157C19.198 66.0077 18.3282 63.3083 18.8293 60.3906C19.5835 59.5907 19.5835 59.5907 20.6577 59.2936C23.4804 59.2393 25.4269 60.8442 27.4028 62.6876C37.1464 72.8283 40.7702 86.2479 40.7702 99.8843C32.8057 99.8843 24.8411 99.8843 16.6352 99.8843C16.2732 97.1691 16.2732 97.1691 15.9038 94.3991C14.6073 89.9595 12.5339 86.4519 9.76723 82.8115C3.83904 75.0081 2.60776 67.5594 3.73446 57.8405C4.84249 49.836 6.88178 41.4509 10.4415 34.1758C10.5616 33.9299 10.6818 33.6839 10.8056 33.4305C12.4744 30.1655 12.4744 30.1655 14.6011 29.8562Z" fill="#FDFDFD"/>
<path d="M93.4971 29.8562C95.1222 30.0693 95.1222 30.0693 96.0111 31.0218C97.4605 32.9479 98.3707 35.1342 99.2794 37.3527C99.4562 37.7746 99.633 38.1965 99.8151 38.6311C101.208 42.1506 102.038 45.8008 102.845 49.4888C102.899 49.7362 102.954 49.9836 103.01 50.2386C104.856 58.7067 106.93 68.8726 102.571 76.8463C102.377 77.2013 102.183 77.5562 101.983 77.922C100.999 79.5661 99.8667 81.0614 98.6756 82.5608C94.3806 87.98 92.5911 92.9476 91.6001 99.8843C83.6355 99.8843 75.671 99.8843 67.4651 99.8843C67.8942 86.1523 67.8942 86.1523 69.6592 81.9659C69.7645 81.7056 69.8698 81.4452 69.9783 81.177C70.7796 79.2122 71.6604 77.2933 72.5846 75.3836C72.7741 74.9875 72.7741 74.9875 72.9675 74.5833C75.5767 69.192 79.3179 62.1226 85.0864 59.6364C86.513 59.2856 87.299 59.1474 88.6746 59.6593C89.3832 60.4135 89.3832 60.4135 89.7717 61.4877C89.3255 67.5143 85.664 73.5932 82.0909 78.3476C81.6287 79.2269 81.6608 79.89 81.7267 80.8688C82.5571 81.0993 82.5571 81.0993 83.5551 80.8688C84.3554 80.0558 84.9108 79.0997 85.4978 78.1262C85.672 77.8467 85.8462 77.5671 86.0257 77.2791C87.7038 74.5398 89.1496 71.712 90.5031 68.8013C90.6695 68.4761 90.8359 68.1508 91.0073 67.8157C93.1934 63.1997 91.8161 58.7003 90.3316 54.1341C88.523 48.528 86.41 39.2654 89.1089 33.673C89.9097 32.4136 90.8367 31.377 91.9658 30.4047C92.3315 30.039 92.3315 30.039 93.4971 29.8562Z" fill="#FDFDFD"/>
<path d="M95.6228 27.1136C101.199 30.2179 102.955 38.5649 104.591 44.2271C105.577 47.7529 106.337 51.2989 106.959 54.9054C107.076 55.5594 107.076 55.5594 107.196 56.2267C108.669 65.3113 108.469 73.8096 103.038 81.5659C102.43 82.3921 101.818 83.2145 101.201 84.0343C97.4866 88.9809 95.1267 93.6346 94.5258 99.8843C94.8298 99.8716 95.1339 99.8588 95.4471 99.8457C96.0432 99.8309 96.0432 99.8309 96.6513 99.8157C97.0458 99.803 97.4404 99.7903 97.8469 99.7772C98.914 99.8843 98.914 99.8843 99.5067 100.348C100.085 101.075 100.218 101.536 100.371 102.447C100.447 102.887 100.447 102.887 100.526 103.335C100.576 103.651 100.626 103.966 100.678 104.291C100.733 104.617 100.789 104.943 100.846 105.279C100.962 105.969 101.075 106.659 101.187 107.349C101.358 108.402 101.536 109.454 101.714 110.505C101.826 111.177 101.938 111.848 102.049 112.519C102.128 112.989 102.128 112.989 102.209 113.468C102.462 115.042 102.706 116.57 102.571 118.168C101.668 119.072 101.416 118.992 100.174 118.993C99.6477 118.996 99.6477 118.996 99.111 118.999C98.5319 118.997 98.5319 118.997 97.9412 118.994C97.5356 118.996 97.1301 118.997 96.7123 118.998C95.3663 119.001 94.0205 118.999 92.6745 118.997C91.7427 118.997 90.8108 118.998 89.8789 118.999C87.9238 119 85.9686 118.999 84.0135 118.995C81.7514 118.991 79.4893 118.992 77.2272 118.996C75.0533 119 72.8794 119 70.7055 118.998C69.7793 118.997 68.8532 118.998 67.927 118.999C66.6346 119.001 65.3423 118.998 64.0499 118.994C63.4708 118.997 63.4708 118.997 62.8801 118.999C62.5294 118.997 62.1787 118.995 61.8173 118.993C61.5115 118.992 61.2057 118.992 60.8907 118.992C60.1517 118.9 60.1517 118.9 59.4203 118.168C59.3099 114.728 60.0925 111.185 60.6907 107.804C60.8392 106.959 60.9805 106.112 61.1216 105.265C61.2159 104.724 61.3106 104.182 61.4058 103.641C61.447 103.39 61.4882 103.138 61.5306 102.879C61.7119 101.887 61.8963 101.103 62.4731 100.267C63.0771 99.8843 63.0771 99.8843 64.5398 99.8843C64.5379 99.6766 64.536 99.4688 64.534 99.2548C64.4843 93.0271 64.6124 87.5099 66.7339 81.6002C66.8881 81.1642 67.0422 80.7281 67.201 80.2789C70.4178 71.7473 75.2691 62.0518 83.281 57.1695C84.6707 56.5674 86.0953 56.2897 87.5778 56.0024C87.5243 55.7779 87.4709 55.5533 87.4158 55.322C87.1702 54.2847 86.9283 53.2466 86.6865 52.2085C86.6023 51.8554 86.5182 51.5024 86.4315 51.1386C84.9708 44.83 83.9385 36.8144 87.3293 31.0461C89.2743 28.1498 92.0344 26.2336 95.6228 27.1136ZM90.5033 31.8674C87.1733 36.7024 87.9397 42.7458 88.8865 48.347C89.5321 51.8175 90.4461 55.274 91.6417 58.5965C93.1311 63.478 91.2959 67.797 89.0405 72.0924C85.3658 78.7496 85.3658 78.7496 83.5553 80.8688C82.5725 80.9602 82.5725 80.9602 81.7269 80.8688C81.8899 78.8175 82.4042 77.6324 83.5782 75.955C88.1215 69.2809 88.1215 69.2808 89.7719 61.6705C89.4969 60.4158 89.4969 60.4158 88.8348 59.6364C87.4785 59.1147 86.371 59.2371 85.018 59.6593C77.1365 63.4603 72.4413 74.4149 69.638 82.1373C67.4857 88.3882 67.7028 92.2853 67.4653 99.8843C75.4299 99.8843 83.3944 99.8843 91.6003 99.8843C91.9623 97.7121 92.3244 95.54 92.6974 93.302C94.0832 89.4067 96.0211 86.1914 98.4599 82.8773C100.486 80.1232 102.39 77.4818 103.668 74.2865C103.812 73.9494 103.812 73.9494 103.959 73.6054C104.928 71.1051 104.947 68.6931 104.925 66.0358C104.922 65.5686 104.919 65.1013 104.916 64.6199C104.841 60.1763 104.239 55.9503 103.302 51.6143C103.222 51.2333 103.142 50.8524 103.059 50.4599C100.912 39.305 100.912 39.305 94.8915 30.039C92.6933 29.6793 91.8603 30.1533 90.5033 31.8674Z" fill="#111213"/>
<path d="M16.2696 27.1136C18.9094 28.1434 20.5254 30.205 21.8017 32.6615C22.8978 35.1644 23.0674 37.3607 23.0118 40.0725C23.0073 40.4873 23.0027 40.9021 22.998 41.3295C22.8967 46.2352 22.5282 51.896 20.2921 56.3682C20.7597 56.3908 21.2273 56.4135 21.7091 56.4368C25.841 56.9339 28.6853 59.4864 31.2625 62.5848C38.7376 72.1156 43.8148 83.5402 43.7186 95.7247C43.7169 96.1268 43.7153 96.5289 43.7136 96.9432C43.7093 97.9236 43.7033 98.904 43.6957 99.8843C44.4198 100.005 45.1438 100.126 45.8898 100.25C46.4554 102.11 46.8561 103.946 47.1726 105.862C47.2441 106.287 47.2441 106.287 47.317 106.721C47.4167 107.316 47.5156 107.912 47.6138 108.507C47.7638 109.414 47.9173 110.32 48.0711 111.227C48.1679 111.808 48.2646 112.389 48.361 112.97C48.4067 113.239 48.4524 113.508 48.4995 113.784C48.7396 115.258 48.9311 116.676 48.8153 118.168C47.9121 119.072 47.6609 118.992 46.4183 118.993C45.8922 118.996 45.8922 118.996 45.3555 118.999C44.7764 118.997 44.7764 118.997 44.1857 118.994C43.7802 118.996 43.3746 118.997 42.9568 118.998C41.6108 119.002 40.265 118.999 38.919 118.997C37.9872 118.997 37.0553 118.998 36.1235 118.999C34.1683 119 32.2131 118.999 30.258 118.995C27.9959 118.991 25.7338 118.992 23.4717 118.996C21.2978 119 19.1239 119 16.95 118.998C16.0238 118.997 15.0977 118.998 14.1715 118.999C12.8791 119.001 11.5868 118.999 10.2944 118.994C9.71534 118.997 9.71534 118.997 9.12459 118.999C8.77388 118.997 8.42316 118.995 8.06182 118.993C7.75602 118.992 7.45023 118.992 7.13516 118.992C6.39616 118.9 6.39616 118.9 5.6648 118.168C5.53602 114.932 6.40973 111.47 6.93522 108.278C7.08307 107.373 7.22457 106.467 7.36608 105.561C7.46044 104.983 7.55518 104.405 7.65034 103.827C7.69152 103.557 7.7327 103.288 7.77514 103.01C7.9539 101.96 8.11424 101.135 8.74229 100.262C9.66528 99.6605 10.5031 99.7809 11.5843 99.8158C11.9817 99.8257 12.379 99.8356 12.7885 99.8458C13.0925 99.8585 13.3965 99.8712 13.7098 99.8843C12.9725 93.2487 10.8159 88.7395 6.68855 83.5361C2.61641 78.3547 0.254698 72.7462 0.339552 66.0816C0.343294 65.6264 0.347036 65.1711 0.350891 64.702C0.593422 53.729 2.90212 36.3644 11.0815 28.1193C12.7266 26.821 14.2495 26.6633 16.2696 27.1136ZM11.6932 31.8211C10.7622 33.1542 10.1278 34.5759 9.50446 36.0728C9.36463 36.4035 9.22481 36.7341 9.08075 37.0748C7.65881 40.5633 6.73344 44.1521 5.87424 47.8131C5.62412 48.859 5.33513 49.8925 5.04771 50.9287C3.85789 55.865 3.36491 60.8271 3.31072 65.8988C3.29857 66.5048 3.29857 66.5048 3.28617 67.1231C3.30294 73.5035 6.50503 78.573 10.2644 83.4722C14.3044 88.7619 15.7381 93.1554 16.6353 99.8843C24.5998 99.8843 32.5644 99.8843 40.7703 99.8843C40.7703 86.7289 37.7975 75.5511 29.4341 65.1446C29.1598 64.7995 28.8854 64.4545 28.6028 64.0989C26.815 61.9787 24.5606 59.4772 21.6305 59.2179C20.4102 59.3349 19.7044 59.5156 18.8293 60.3907C17.6999 66.145 22.1951 72.224 25.0459 76.8464C25.3305 77.2681 25.6172 77.6883 25.9073 78.1063C26.5706 79.1367 26.65 79.6678 26.5087 80.8689C25.6592 80.951 25.6592 80.951 24.6803 80.8689C24.1163 80.3239 24.1163 80.3239 23.6446 79.5547C23.4674 79.2711 23.2901 78.9875 23.1075 78.6953C22.9251 78.3869 22.7427 78.0784 22.5547 77.7606C22.3636 77.4469 22.1725 77.1333 21.9756 76.8101C20.2721 73.9751 18.7322 71.0818 17.3666 68.07C17.2276 67.7683 17.0885 67.4666 16.9452 67.1558C15.196 62.7706 16.4603 58.6605 17.9037 54.4341C18.6987 52.0751 19.1447 49.6775 19.5607 47.2261C19.6277 46.9023 19.6946 46.5785 19.7636 46.2448C20.01 44.4097 20.0236 42.585 20.0407 40.7353C20.0513 40.3572 20.0619 39.9792 20.0728 39.5897C20.1027 35.9442 19.2015 33.0385 16.6353 30.4048C14.3718 29.2731 13.1037 30.0727 11.6932 31.8211Z" fill="#101213"/>
<path d="M11.1501 102.81C21.8902 102.81 32.6302 102.81 43.6958 102.81C45.5242 114.146 45.5242 114.146 45.5242 115.974C33.4567 115.974 21.3892 115.974 8.95599 115.974C9.68004 111.63 10.4041 107.286 11.1501 102.81Z" fill="#FEFEFE"/>
<path d="M64.9052 102.81C75.5246 102.81 86.144 102.81 97.0852 102.81C97.9176 107.18 98.6913 111.565 99.2793 115.974C87.2118 115.974 75.1442 115.974 62.7111 115.974C63.5625 109.163 63.5625 109.163 64.0138 106.512C64.0598 106.231 64.1057 105.95 64.1531 105.66C64.493 103.634 64.493 103.634 64.9052 102.81Z" fill="#FEFEFE"/>
<path d="M46.9871 1.88156C49.1163 3.19239 50.6545 4.74175 52.0366 6.81684C52.1804 6.99833 52.3242 7.17981 52.4723 7.36679C52.7137 7.36679 52.955 7.36679 53.2037 7.36679C53.6942 6.78503 53.6942 6.78503 54.1864 6.0412C56.2713 3.20454 58.4888 1.55364 61.98 0.784517C66.2104 0.3416 69.7373 0.906518 73.2248 3.39C76.1949 5.88113 78.1742 9.06134 78.55 12.932C78.779 19.4006 75.9516 24.5195 71.8535 29.3077C70.6654 30.5817 69.4372 31.8104 68.1966 33.0331C67.8855 33.344 67.5744 33.6549 67.2539 33.9752C65.4321 35.7843 63.5638 37.5112 61.6144 39.1811C61.0339 39.6975 60.4546 40.2153 59.8774 40.7353C59.5724 41.0077 59.2674 41.2802 58.9532 41.5609C58.2258 42.2267 57.5167 42.8991 56.8133 43.5893C56.5229 43.8691 56.5229 43.8691 56.2266 44.1546C55.8482 44.5199 55.474 44.8895 55.1046 45.2638C54.2711 46.061 53.8025 46.4916 52.6251 46.5076C51.5893 46.0642 50.9593 45.5572 50.1411 44.7806C49.8262 44.486 49.5113 44.1914 49.1869 43.8879C48.9263 43.6396 48.9263 43.6396 48.6605 43.3863C47.7852 42.5535 46.9009 41.7304 46.0176 40.9062C45.5348 40.4555 45.0524 40.0045 44.5704 39.5531C43.433 38.489 42.293 37.433 41.1133 36.4157C40.6325 35.9976 40.1527 35.5784 39.6734 35.1586C39.4001 34.9196 39.4001 34.9196 39.1213 34.6758C33.3522 29.5921 27.7891 23.6287 27.1374 15.6089C26.9663 11.392 27.8695 8.31093 30.5542 5.03557C34.6751 0.734626 41.5368 -0.7593 46.9871 1.88156ZM32.3598 7.36679C30.2941 10.4037 29.8556 13.2358 30.1657 16.8745C31.3001 22.0151 34.2641 25.6396 37.845 29.3077C38.0431 29.5114 38.2412 29.715 38.4453 29.9248C40.5004 32.0288 42.5687 34.1043 44.8101 36.0114C45.664 36.7406 46.4966 37.4913 47.3299 38.2441C49.0365 39.784 50.7522 41.3132 52.4723 42.838C53.5424 42.3521 54.3263 41.8156 55.1749 41.0053C55.4027 40.7897 55.6305 40.5742 55.8651 40.3522C56.1031 40.1241 56.3411 39.8961 56.5862 39.6611C57.0816 39.1922 57.5773 38.7237 58.0732 38.2555C58.3085 38.033 58.5438 37.8105 58.7862 37.5813C59.4945 36.9174 60.2165 36.2726 60.9516 35.6386C70.9298 27.3168 70.9298 27.3168 75.5903 15.6432C75.713 12.3609 74.9451 9.4786 72.8548 6.91112C70.6564 4.69297 68.0629 3.68942 64.9741 3.5957C62.099 3.65619 59.6873 4.24242 57.5261 6.21261C56.4468 7.49114 55.5945 8.92527 54.77 10.3791C53.7816 12.0504 53.7816 12.0504 52.5552 12.4563C52.1521 12.4712 52.1521 12.4712 51.7409 12.4863C51.6415 12.2186 51.542 11.9508 51.4395 11.675C50.4416 9.31452 48.8928 7.24351 46.9871 5.53838C46.6477 5.23293 46.6477 5.23293 46.3014 4.9213C41.8829 2.19219 35.6742 3.53799 32.3598 7.36679Z" fill="#101112"/>
<path d="M27.9714 35.5241C29.0131 35.6226 29.6298 35.7407 30.4251 36.4381C30.609 36.671 30.793 36.9039 30.9825 37.1439C31.1908 37.4027 31.399 37.6614 31.6136 37.928C31.8296 38.2057 32.0456 38.4834 32.2681 38.7695C32.6073 39.1938 32.6073 39.1938 32.9533 39.6267C33.4056 40.1928 33.8562 40.7603 34.3049 41.3293C35.0842 42.3148 35.8801 43.2851 36.6792 44.2547C37.1897 44.8793 37.7001 45.5041 38.2105 46.1288C39.0643 47.174 39.9183 48.2191 40.7774 49.26C41.1912 49.7693 41.5987 50.2843 41.9858 50.8141C43.7799 53.2314 46.9016 54.8259 49.798 55.4994C54.0551 55.9814 58.1365 55.3862 61.6141 52.7111C61.8856 52.5904 62.1571 52.4698 62.4369 52.3454C63.1215 52.0365 63.1215 52.0365 63.3539 51.377C64.0134 50.1286 64.9353 49.15 65.8652 48.0944C66.267 47.632 66.6684 47.1691 67.0693 46.7059C67.2642 46.4808 67.459 46.2558 67.6598 46.0239C68.3361 45.2343 68.9897 44.4288 69.6362 43.6148C69.8606 43.3334 70.085 43.0519 70.3162 42.762C70.7724 42.1836 71.2274 41.6042 71.6782 41.0216C72.3038 40.2142 72.9353 39.4118 73.5673 38.6095C73.7674 38.3477 73.9675 38.0859 74.1736 37.8162C75.6226 35.9893 75.6226 35.9893 76.8885 35.4912C77.7041 35.5241 77.7041 35.5241 78.4355 36.2554C78.3768 38.0135 77.3803 39.1356 76.3099 40.4379C76.1318 40.6596 75.9538 40.8813 75.7703 41.1096C74.2916 42.9373 72.7643 44.7234 71.2254 46.5003C70.1501 47.7427 69.1025 49.0001 68.0821 50.2885C67.8521 50.5765 67.622 50.8645 67.385 51.1613C66.9622 51.6925 66.543 52.2266 66.128 52.764C63.3232 56.2237 59.4193 58.3086 55.0318 58.9277C49.8612 59.3096 45.5831 58.1622 41.5016 54.9052C39.2284 52.6974 37.2238 50.2635 35.2693 47.7716C34.5021 46.7945 33.7187 45.8324 32.9309 44.8718C32.6594 44.5404 32.3879 44.209 32.1081 43.8676C31.5221 43.1539 30.9354 42.4406 30.3483 41.7278C30.0541 41.37 29.76 41.0122 29.4569 40.6436C29.1897 40.3193 28.9224 39.995 28.647 39.6608C27.9714 38.8152 27.9714 38.8152 27.24 37.7182C27.4377 36.0578 27.4377 36.0578 27.9714 35.5241Z" fill="#111213"/>
<path d="M52.1064 32.9646C53.0663 33.1017 53.0663 33.1017 53.9348 33.3303C54.1633 34.1988 54.1633 34.1988 54.3005 35.1587C54.0591 35.4 53.8178 35.6414 53.5691 35.8901C52.6092 35.7529 52.6092 35.7529 51.7407 35.5244C51.5121 34.6559 51.5121 34.6559 51.375 33.696C51.6164 33.4546 51.8577 33.2133 52.1064 32.9646Z" fill="#1C1D1E"/>
<path d="M52.1064 24.9197C53.0663 25.0568 53.0663 25.0568 53.9348 25.2854C54.1633 26.1539 54.1633 26.1539 54.3005 27.1138C54.0591 27.3551 53.8178 27.5965 53.5691 27.8451C52.6092 27.708 52.6092 27.708 51.7407 27.4795C51.5121 26.611 51.5121 26.611 51.375 25.651C51.6164 25.4097 51.8577 25.1683 52.1064 24.9197Z" fill="#1C1E1F"/>
<path d="M52.1064 16.8745C53.0663 17.0116 53.0663 17.0116 53.9348 17.2402C54.1633 18.1087 54.1633 18.1087 54.3005 19.0686C54.0591 19.31 53.8178 19.5513 53.5691 19.8C52.6092 19.6628 52.6092 19.6628 51.7407 19.4343C51.5121 18.5658 51.5121 18.5658 51.375 17.6059C51.6164 17.3645 51.8577 17.1232 52.1064 16.8745Z" fill="#1D1E1F"/>
<path d="M89.7717 107.929C91.0646 108.125 91.0646 108.125 91.6001 108.661C91.6458 109.575 91.6458 109.575 91.6001 110.489C91.2344 110.855 91.2344 110.855 90.3202 110.9C89.406 110.855 89.406 110.855 89.0403 110.489C88.9718 109.598 88.9718 109.598 89.0403 108.661C89.2817 108.419 89.523 108.178 89.7717 107.929Z" fill="#151617"/>
<path d="M17.3668 107.929C18.6597 108.125 18.6597 108.125 19.1952 108.661C19.2409 109.575 19.2409 109.575 19.1952 110.489C18.8295 110.855 18.8295 110.855 17.9153 110.9C17.0011 110.855 17.0011 110.855 16.6354 110.489C16.5668 109.598 16.5668 109.598 16.6354 108.661C16.8768 108.419 17.1181 108.178 17.3668 107.929Z" fill="#151718"/>
</svg>
