<svg width="135" height="124" viewBox="0 0 135 124" fill="none" xmlns="http://www.w3.org/2000/svg">
<path d="M66.1869 9.75122C67.8817 10.0757 68.7821 11.0124 69.9541 12.1985C70.4109 12.6408 70.868 13.0829 71.3253 13.5246C71.6523 13.8458 71.6523 13.8458 71.9858 14.1733C72.7185 14.8845 73.4782 15.558 74.2524 16.2235C75.433 17.245 76.5969 18.283 77.7556 19.3292C78.9405 20.3985 80.1299 21.4612 81.3334 22.5094C82.5369 23.5577 83.7263 24.6204 84.9112 25.6897C86.6194 27.2304 88.3392 28.7564 90.0791 30.2613C90.2282 30.4533 90.3774 30.6453 90.5311 30.8431C91.8609 32.3348 93.0526 32.7911 95.0497 32.9123C96.5728 32.9528 98.0932 32.9422 99.6167 32.9244C100.281 32.9258 100.946 32.9285 101.611 32.9323C103.357 32.9399 105.103 32.9344 106.85 32.925C109.641 32.9113 112.432 32.9137 115.224 32.9234C116.194 32.9244 117.164 32.9173 118.134 32.9094C122.649 32.8968 126.463 33.3178 129.832 36.6217C132.331 39.9253 132.085 43.6519 132.028 47.5802C132.025 48.2509 132.023 48.9216 132.022 49.5924C132.018 50.9894 132.007 52.3862 131.991 53.7831C131.971 55.5771 131.961 57.3709 131.955 59.165C131.949 60.8771 131.939 62.5892 131.928 64.3013C131.926 64.6287 131.924 64.9562 131.922 65.2935C131.916 66.2137 131.907 67.1337 131.896 68.0538C131.889 68.8396 131.889 68.8396 131.881 69.6412C131.82 70.8093 131.82 70.8093 131.422 71.2068C130.801 71.2413 130.179 71.2493 129.557 71.2456C129.182 71.2443 128.806 71.243 128.42 71.2417C128.025 71.2384 127.63 71.2351 127.223 71.2316C126.827 71.2298 126.43 71.228 126.022 71.2262C125.039 71.2215 124.057 71.2149 123.074 71.2068C123.078 71.84 123.078 71.84 123.082 72.486C123.106 76.469 123.124 80.452 123.136 84.4351C123.142 86.4827 123.15 88.5303 123.164 90.5779C123.177 92.5549 123.184 94.5318 123.187 96.5088C123.189 97.2621 123.194 98.0154 123.2 98.7687C123.209 99.8259 123.21 100.883 123.209 101.94C123.216 102.405 123.216 102.405 123.222 102.879C123.208 105.372 122.542 107.068 121.26 109.221C119.417 111.016 117.105 112.248 114.502 112.376C112.07 112.225 109.96 111.264 108.142 109.668C107.953 109.438 107.765 109.209 107.57 108.972C106.166 109.646 104.894 110.454 103.595 111.309C101.874 112.274 99.9678 112.413 98.0296 112.152C96.788 111.711 95.6208 111.168 94.4519 110.562C94.3002 110.82 94.1486 111.079 93.9923 111.345C93.2593 112.152 93.2593 112.152 92.2715 112.352C91.6775 112.353 91.6775 112.353 91.0714 112.354C90.6166 112.359 90.1618 112.363 89.6932 112.368C88.9441 112.363 88.9441 112.363 88.1799 112.358C87.649 112.36 87.1181 112.363 86.5873 112.367C85.145 112.374 83.7029 112.371 82.2605 112.366C80.7522 112.362 79.2439 112.366 77.7356 112.368C75.2024 112.371 72.6693 112.367 70.1362 112.36C67.2062 112.351 64.2765 112.354 61.3465 112.363C58.8323 112.37 56.3182 112.371 53.804 112.367C52.3018 112.364 50.7996 112.364 49.2974 112.369C47.8851 112.374 46.4731 112.37 45.0609 112.361C44.2944 112.358 43.5279 112.363 42.7614 112.368C42.3066 112.363 41.8518 112.359 41.3832 112.354C40.9871 112.354 40.5911 112.353 40.183 112.352C39.1953 112.152 39.1953 112.152 38.4623 111.345C38.2348 110.957 38.2348 110.957 38.0027 110.562C37.6419 110.751 37.2812 110.939 36.9095 111.134C34.9152 112.092 33.0697 112.494 30.8472 112.152C28.6302 111.309 26.6517 110.165 24.8842 108.575C24.7899 108.814 24.6957 109.054 24.5985 109.301C23.6287 110.945 21.856 111.535 20.1139 112.152C17.7906 112.56 15.7632 112.291 13.7084 111.12C11.6973 109.625 10.1446 107.791 9.38059 105.394C9.30998 104.259 9.27996 103.164 9.29033 102.03C9.29022 101.697 9.2901 101.363 9.28998 101.019C9.29053 99.9199 9.29671 98.8208 9.30295 97.7217C9.30443 96.958 9.30556 96.1944 9.30636 95.4307C9.30939 93.4237 9.3172 91.4168 9.326 89.4098C9.33414 87.3606 9.33777 85.3115 9.34177 83.2623C9.35029 79.2438 9.36386 75.2253 9.38059 71.2068C9.14391 71.2109 8.90723 71.2151 8.66337 71.2194C7.59393 71.2359 6.52451 71.2463 5.45499 71.2565C5.08245 71.2631 4.7099 71.2698 4.32607 71.2767C3.79185 71.2805 3.79185 71.2805 3.24684 71.2844C2.91792 71.2886 2.58899 71.2928 2.2501 71.297C1.43001 71.2068 1.43001 71.2068 0.634947 70.4117C0.525962 69.2261 0.525962 69.2261 0.513145 67.6841C0.509836 67.4035 0.506527 67.1228 0.503118 66.8337C0.49351 65.902 0.490046 64.9705 0.487426 64.0388C0.483861 63.3899 0.480235 62.7411 0.47655 62.0922C0.469984 60.7287 0.466932 59.3652 0.465783 58.0017C0.463653 56.2631 0.448721 54.5249 0.430504 52.7864C0.418613 51.444 0.415804 50.1017 0.415407 48.7592C0.413745 48.119 0.408834 47.4787 0.400491 46.8385C0.351773 42.7734 0.523454 39.3348 3.39039 36.1723C6.25583 33.3251 9.51991 32.9202 13.3943 32.9151C14.0152 32.9181 14.636 32.9229 15.2568 32.9293C16.245 32.9385 17.2328 32.9389 18.221 32.9367C21.0279 32.9317 23.8346 32.9385 26.6414 32.9607C28.3649 32.9737 30.0879 32.9732 31.8114 32.9643C32.4645 32.9636 33.1177 32.968 33.7707 32.9778C37.9406 33.1404 37.9406 33.1404 41.5408 31.2951C41.9636 30.8286 42.3762 30.3524 42.7731 29.8637C43.1256 29.5481 43.4782 29.2324 43.8414 28.9072C44.1448 28.6325 44.4481 28.3578 44.7607 28.0748C46.1985 26.7773 47.6483 25.4957 49.1087 24.2238C50.0517 23.3951 50.9843 22.5554 51.9162 21.7144C53.1011 20.6451 54.2905 19.5824 55.494 18.5341C56.6795 17.501 57.8534 16.4558 59.0221 15.4036C59.3552 15.1059 59.6882 14.8081 60.0314 14.5014C60.7358 13.8598 61.429 13.2058 62.1122 12.5417C62.4535 12.2153 62.7948 11.8888 63.1464 11.5525C63.6046 11.1029 63.6046 11.1029 64.0719 10.6441C65.0347 9.98725 65.0347 9.98725 66.1869 9.75122Z" fill="#101112"/>
<path d="M66.2275 25.0933C68.1845 26.7524 70.0989 28.4527 72.0026 30.1726C72.8543 30.9382 73.712 31.6955 74.5757 32.4476C76.1241 33.7962 77.6477 35.1714 79.1721 36.5471C80.0195 37.3076 80.8726 38.0602 81.7312 38.808C83.2749 40.1526 84.794 41.5235 86.3137 42.8951C87.4936 43.9539 88.6856 44.9981 89.8821 46.0381C90.221 46.3354 90.5555 46.6386 90.8744 46.9574C90.9128 47.7573 90.9228 48.5586 90.9222 49.3595C90.923 50.143 90.923 50.143 90.9238 50.9424C90.9224 51.5267 90.921 52.111 90.9195 52.6953C90.9194 53.3063 90.9195 53.9173 90.9197 54.5283C90.9198 56.1923 90.9174 57.8563 90.9147 59.5202C90.9122 61.2573 90.912 62.9943 90.9115 64.7313C90.9103 68.023 90.907 71.3146 90.903 74.6062C90.8986 78.3526 90.8964 82.0991 90.8944 85.8455C90.8902 93.5543 90.8829 101.263 90.8744 108.972C86.1517 108.972 81.4291 108.972 76.5633 108.972C76.5577 107.899 76.552 106.826 76.5462 105.72C76.534 104.669 76.5185 103.618 76.5027 102.566C76.4935 101.842 76.4877 101.117 76.4856 100.392C76.5301 94.0976 76.5301 94.0976 73.4988 88.7457C71.4754 86.7803 69.1145 85.8923 66.3269 85.6917C63.4771 85.7799 60.6226 87.1238 58.6341 89.1529C58.3851 89.5275 58.136 89.9021 57.8794 90.2881C57.7341 90.5026 57.5887 90.7171 57.439 90.9381C55.6314 94.1642 56.0196 98.0574 55.9912 101.643C55.98 102.354 55.9681 103.065 55.9555 103.777C55.925 105.509 55.9087 107.24 55.8918 108.972C51.1691 108.972 46.4465 108.972 41.5807 108.972C41.4639 100.969 41.3688 92.966 41.313 84.962C41.2864 81.2453 41.2501 77.5291 41.1909 73.8127C41.1392 70.5719 41.106 67.3314 41.0945 64.0902C41.0878 62.3751 41.0721 60.6613 41.0343 58.9466C40.7831 47.0966 40.7831 47.0966 43.3837 44.3741C44.4483 43.4916 45.5321 42.8484 46.7486 42.187C47.3167 41.7139 47.8757 41.2288 48.4133 40.7211C48.6567 40.5105 48.9001 40.2999 49.1509 40.0829C50.0821 39.2706 50.9993 38.4436 51.9165 37.6154C53.3543 36.3179 54.8041 35.0363 56.2645 33.7644C57.2075 32.9357 58.14 32.096 59.072 31.255C63.8167 26.9767 63.8167 26.9767 66.2275 25.0933Z" fill="#FCFCFC"/>
<path d="M94.0544 36.2241C102.581 36.2241 111.108 36.2241 119.894 36.2241C119.894 43.8328 119.894 51.4415 119.894 59.2808C111.367 59.2808 102.84 59.2808 94.0544 59.2808C94.0544 51.6721 94.0544 44.0634 94.0544 36.2241Z" fill="white"/>
<path d="M12.561 36.2241C21.088 36.2241 29.615 36.2241 38.4004 36.2241C38.4004 43.8328 38.4004 51.4415 38.4004 59.2808C29.8734 59.2808 21.3464 59.2808 12.561 59.2808C12.561 51.6721 12.561 44.0634 12.561 36.2241Z" fill="white"/>
<path d="M31.4931 2.26029C35.1181 4.38763 37.4004 7.1258 38.6456 11.1845C39.3706 14.95 38.5395 18.5474 36.5616 21.7889C34.4776 24.6963 31.6332 26.8739 28.0645 27.4786C24.6808 27.793 21.8465 27.7047 18.9213 25.8884C18.5054 25.6356 18.5054 25.6356 18.0812 25.3776C15.051 23.3289 13.2587 20.4777 12.3512 16.9565C11.6376 13.1352 12.2807 9.75977 14.4879 6.52597C18.7821 1.32771 25.2587 -0.6382 31.4931 2.26029Z" fill="#FDFDFD"/>
<path d="M112.366 1.8874C113.168 2.32996 113.168 2.32996 113.931 2.83153C114.211 3.00935 114.492 3.18716 114.78 3.37037C117.537 5.27098 119.609 7.83293 120.291 11.1796C120.735 16.0181 120.181 19.4749 117.061 23.2298C114.699 25.7131 111.849 27.289 108.412 27.5731C104.535 27.6618 101.378 26.8995 98.2658 24.514C95.9773 22.2984 94.2395 19.1752 93.8821 16.0168C93.8777 11.5202 94.4382 8.1278 97.6043 4.7493C101.524 1.29527 107.38 -0.224422 112.366 1.8874Z" fill="#FDFDFD"/>
<path d="M3.55036 120.449C4.01316 120.448 4.47597 120.446 4.95281 120.445C5.72519 120.446 5.72519 120.446 6.51317 120.447C7.06062 120.446 7.60806 120.445 8.15551 120.444C9.66692 120.442 11.1783 120.442 12.6897 120.442C14.317 120.442 15.9443 120.44 17.5715 120.438C20.7622 120.435 23.953 120.434 27.1437 120.434C29.7359 120.433 32.3281 120.433 34.9202 120.431C42.2613 120.428 49.6024 120.426 56.9434 120.426C57.3396 120.426 57.7357 120.426 58.1439 120.426C58.7389 120.426 58.7389 120.426 59.3459 120.426C65.777 120.427 72.2082 120.423 78.6394 120.417C85.2347 120.411 91.8301 120.409 98.4255 120.409C102.132 120.409 105.838 120.408 109.544 120.404C112.699 120.4 115.854 120.399 119.009 120.402C120.62 120.403 122.231 120.403 123.842 120.4C125.315 120.397 126.788 120.397 128.261 120.401C129.05 120.402 129.84 120.399 130.629 120.396C131.325 120.398 131.325 120.398 132.035 120.401C132.437 120.401 132.84 120.401 133.255 120.401C134.205 120.5 134.205 120.5 135 121.295C134.779 123.106 134.779 123.106 134.205 123.68C133.499 123.72 132.792 123.731 132.085 123.731C131.622 123.733 131.159 123.734 130.682 123.735C129.91 123.734 129.91 123.734 129.122 123.733C128.574 123.734 128.027 123.735 127.479 123.736C125.968 123.739 124.457 123.738 122.945 123.738C121.318 123.738 119.691 123.74 118.063 123.742C114.873 123.745 111.682 123.746 108.491 123.747C105.899 123.747 103.307 123.748 100.715 123.749C93.3737 123.752 86.0326 123.754 78.6916 123.754C78.2954 123.754 77.8992 123.754 77.4911 123.754C76.8961 123.754 76.8961 123.754 76.2891 123.754C69.8579 123.754 63.4268 123.757 56.9956 123.763C50.4002 123.769 43.8049 123.772 37.2095 123.771C33.5034 123.771 29.7974 123.772 26.0913 123.776C22.9363 123.78 19.7813 123.781 16.6263 123.778C15.0152 123.777 13.4041 123.777 11.793 123.78C10.32 123.783 8.84714 123.783 7.37419 123.779C6.58478 123.779 5.79537 123.782 5.00597 123.785C4.54213 123.783 4.07828 123.781 3.60038 123.779C3.19756 123.779 2.79474 123.779 2.37971 123.779C1.43007 123.68 1.43007 123.68 0.63501 122.885C0.919751 120.55 1.28069 120.45 3.55036 120.449Z" fill="#111213"/>
<path d="M108.763 73.9893C112.567 73.9893 116.372 73.9893 120.291 73.9893C120.327 77.9391 120.356 81.8888 120.374 85.8387C120.382 87.6729 120.393 89.507 120.411 91.3412C120.429 93.112 120.438 94.8826 120.442 96.6535C120.445 97.3284 120.451 98.0032 120.459 98.678C120.471 99.6249 120.473 100.571 120.472 101.518C120.48 101.935 120.48 101.935 120.489 102.36C120.473 104.346 119.933 105.45 118.701 106.984C117.325 108.197 116.471 108.929 114.627 109.071C112.497 108.929 111.28 108.352 109.831 106.785C108.69 105.094 108.708 103.621 108.718 101.654C108.718 101.355 108.718 101.056 108.718 100.749C108.718 99.7612 108.721 98.774 108.724 97.7867C108.725 97.1021 108.726 96.4175 108.726 95.7329C108.727 93.9312 108.731 92.1294 108.736 90.3276C108.74 88.489 108.742 86.6504 108.744 84.8118C108.748 81.2043 108.755 77.5968 108.763 73.9893Z" fill="#F9F9F9"/>
<path d="M94.0546 74.387C97.8589 74.387 101.663 74.387 105.583 74.387C105.61 78.2263 105.632 82.0655 105.645 85.9049C105.651 87.6878 105.659 89.4706 105.673 91.2535C105.686 92.9753 105.693 94.6971 105.696 96.4189C105.698 97.0746 105.703 97.7303 105.709 98.3859C105.718 99.307 105.719 100.228 105.718 101.149C105.721 101.672 105.724 102.196 105.726 102.735C105.525 104.798 104.951 106.339 103.57 107.929C101.875 108.866 100.359 109.136 98.4274 108.972C96.5299 108.333 95.5429 107.554 94.6161 105.768C93.6233 103.008 93.9091 99.9521 93.9381 97.0586C93.9403 96.4036 93.942 95.7486 93.9432 95.0936C93.9478 93.3787 93.9595 91.6639 93.9727 89.9491C93.9849 88.1956 93.9904 86.4421 93.9963 84.6886C94.0091 81.2546 94.0301 77.8208 94.0546 74.387Z" fill="#FEFEFE"/>
<path d="M27.2696 74.387C30.9428 74.387 34.616 74.387 38.4004 74.387C38.4274 78.285 38.4493 82.1829 38.4622 86.0809C38.4685 87.8911 38.4769 89.7011 38.4904 91.5112C38.5034 93.2588 38.5105 95.0063 38.5136 96.7539C38.5158 97.4199 38.5201 98.0859 38.5265 98.7518C38.5352 99.6863 38.5364 100.621 38.5358 101.555C38.5401 101.829 38.5444 102.103 38.5488 102.385C38.5343 104.661 37.8947 106.214 36.388 107.904C34.718 108.863 33.1627 109.107 31.2449 108.972C29.8784 108.276 29.8784 108.276 28.8597 107.382C28.622 107.177 28.3842 106.972 28.1392 106.761C27.0038 105.386 27.216 103.73 27.2245 102.051C27.2244 101.753 27.2244 101.454 27.2243 101.146C27.2246 100.159 27.2277 99.1717 27.2308 98.1844C27.2315 97.4998 27.2321 96.8152 27.2325 96.1307C27.234 94.3289 27.2379 92.5271 27.2423 90.7253C27.2464 88.8867 27.2482 87.0481 27.2502 85.2095C27.2545 81.602 27.2615 77.9945 27.2696 74.387Z" fill="#FEFEFE"/>
<path d="M12.5609 74.387C16.2341 74.387 19.9072 74.387 23.6917 74.387C23.7187 78.3436 23.7406 82.3003 23.7535 86.257C23.7597 88.0943 23.7682 89.9316 23.7817 91.7689C23.7947 93.5422 23.8018 95.3155 23.8049 97.0889C23.8071 97.7652 23.8114 98.4415 23.8178 99.1178C23.8265 100.066 23.8277 101.013 23.8271 101.961C23.8314 102.24 23.8357 102.519 23.8401 102.807C23.8292 104.539 23.5465 105.602 22.4991 106.984C20.2507 108.959 20.2507 108.959 18.853 108.994C16.3498 108.819 15.0612 108.463 13.356 106.587C12.5023 104.942 12.4518 103.415 12.4706 101.6C12.4705 101.305 12.4704 101.01 12.4703 100.706C12.4708 99.7362 12.477 98.7662 12.4833 97.7962C12.4847 97.1216 12.4859 96.4471 12.4867 95.7726C12.4897 94.0009 12.4975 92.2292 12.5063 90.4575C12.5145 88.6481 12.5181 86.8388 12.5221 85.0294C12.5306 81.4819 12.5446 77.9344 12.5609 74.387Z" fill="#FEFEFE"/>
<path d="M65.8298 13.5649C67.3163 14.1936 68.3329 15.1281 69.507 16.2234C70.7943 17.4149 72.0827 18.6019 73.4077 19.7515C74.6036 20.7908 75.7845 21.8453 76.9607 22.9069C78.1456 23.9762 79.3349 25.0389 80.5384 26.0871C81.742 27.1354 82.9313 28.1981 84.1162 29.2674C86.9381 32.053 86.9381 32.053 90.163 34.2722C91.2016 35.3811 91.0364 36.3454 91.014 37.8212C91.0006 38.1715 90.9873 38.5217 90.9736 38.8826C90.9664 39.2375 90.9592 39.5923 90.9518 39.9579C90.9331 40.8339 90.907 41.709 90.8742 42.5846C88.6757 41.004 86.6684 39.3117 84.7125 37.4416C84.1895 36.9474 83.6662 36.4536 83.1426 35.9601C82.8969 35.7284 82.6513 35.4966 82.3982 35.2579C81.3878 34.3131 80.3488 33.4044 79.3008 32.5019C78.3772 31.7007 77.4705 30.8819 76.5631 30.0624C74.8539 28.5222 73.1386 26.9924 71.3953 25.4908C71.0324 25.167 70.6696 24.8431 70.2958 24.5094C69.9125 24.1774 69.5292 23.8453 69.1343 23.5032C68.7802 23.1916 68.4261 22.88 68.0613 22.559C67.0856 21.8288 67.0856 21.8288 66.0286 21.8975C64.732 22.4364 63.9362 23.1784 62.9229 24.1492C62.536 24.5143 62.1488 24.8792 61.7614 25.2439C61.3986 25.5878 61.0358 25.9316 60.662 26.2859C60.1268 26.7615 59.5888 27.234 59.047 27.7021C57.8511 28.7414 56.6703 29.7959 55.4941 30.8575C54.0563 32.155 52.6065 33.4366 51.1461 34.7085C50.2031 35.5372 49.2705 36.3769 48.3386 37.2179C47.676 37.8142 47.0135 38.4105 46.3509 39.0068C45.9035 39.4119 45.9035 39.4119 45.4471 39.8252C45.0336 40.1949 45.0336 40.1949 44.6117 40.5721C44.3709 40.7889 44.13 41.0056 43.8819 41.229C43.1498 41.806 42.4267 42.1988 41.5806 42.5846C41.1587 36.2572 41.1587 36.2572 42.0883 34.4321C42.8037 33.7346 43.5303 33.1969 44.3633 32.6464C44.8738 32.2053 45.3789 31.7578 45.8788 31.3047C46.1438 31.0761 46.4087 30.8476 46.6817 30.6121C47.6423 29.7779 48.5871 28.9277 49.5311 28.0748C50.9689 26.7773 52.4188 25.4956 53.8791 24.2237C54.8221 23.395 55.7547 22.5554 56.6867 21.7143C58.1204 20.4205 59.566 19.1424 61.0222 17.8741C62.6389 16.4535 64.2332 15.0079 65.8298 13.5649Z" fill="#FCFCFC"/>
<path d="M70.3517 89.7167C72.1169 91.3557 73.4626 93.1452 73.6085 95.6136C73.6082 96.2361 73.5973 96.8587 73.577 97.4809C73.5742 97.8117 73.5714 98.1425 73.5685 98.4833C73.5574 99.5285 73.5325 100.573 73.5071 101.618C73.4971 102.331 73.4881 103.044 73.4799 103.758C73.4598 105.496 73.4209 107.233 73.3829 108.972C68.6602 108.972 63.9376 108.972 59.0718 108.972C59.0308 106.619 58.9898 104.266 58.9476 101.841C58.9295 101.106 58.9114 100.371 58.8928 99.6131C58.8003 93.2391 58.8003 93.2391 61.0595 90.6857C63.7115 88.1136 67.1543 88.2364 70.3517 89.7167Z" fill="#FEFEFE"/>
<path d="M31.4931 2.26029C35.1181 4.38763 37.4004 7.1258 38.6456 11.1845C39.3706 14.95 38.5395 18.5474 36.5616 21.7889C34.4776 24.6963 31.6332 26.8739 28.0645 27.4786C24.6808 27.793 21.8465 27.7047 18.9213 25.8884C18.5054 25.6356 18.5054 25.6356 18.0812 25.3776C15.051 23.3289 13.2587 20.4777 12.3512 16.9565C11.6376 13.1352 12.2807 9.75977 14.4879 6.52597C18.7821 1.32771 25.2587 -0.6382 31.4931 2.26029ZM18.0035 7.21854C16.1488 9.37314 15.4919 11.6545 15.2193 14.4346C15.4472 17.2155 16.5324 19.9218 18.5238 21.9132C21.5082 24.1356 23.9893 24.6768 27.6669 24.2983C31.0951 23.3475 32.9765 21.2615 34.8162 18.3214C35.9943 16.0424 35.8042 13.6373 35.1951 11.2047C34.3818 8.71932 33.0156 6.87659 30.7913 5.47624C26.2471 3.25975 21.7209 3.66642 18.0035 7.21854Z" fill="#111213"/>
<path d="M112.366 1.8874C113.168 2.32996 113.168 2.32996 113.931 2.83153C114.211 3.00935 114.492 3.18716 114.78 3.37037C117.537 5.27098 119.609 7.83293 120.291 11.1796C120.735 16.0181 120.181 19.4749 117.061 23.2298C114.699 25.7131 111.849 27.289 108.412 27.5731C104.535 27.6618 101.378 26.8995 98.2658 24.514C95.9773 22.2984 94.2395 19.1752 93.8821 16.0168C93.8777 11.5202 94.4382 8.1278 97.6043 4.7493C101.524 1.29527 107.38 -0.224422 112.366 1.8874ZM98.918 8.02115C96.9673 10.8013 96.792 13.4289 97.2347 16.7451C97.9272 19.6435 99.6012 21.4256 102.005 23.1055C104.622 24.6362 107.314 24.7254 110.227 24.0512C113.099 23.0678 114.856 21.3828 116.353 18.7684C117.439 16.3198 117.538 13.5726 116.85 10.998C115.658 7.98064 113.725 5.93794 110.751 4.64526C106.382 3.11648 101.906 4.54377 98.918 8.02115Z" fill="#101112"/>
<path d="M94.0544 62.4612C102.581 62.4612 111.108 62.4612 119.894 62.4612C119.894 65.2161 119.894 67.9709 119.894 70.8093C111.367 70.8093 102.84 70.8093 94.0544 70.8093C94.0544 68.0544 94.0544 65.2995 94.0544 62.4612Z" fill="white"/>
<path d="M12.561 62.4612C21.088 62.4612 29.615 62.4612 38.4004 62.4612C38.4004 65.2161 38.4004 67.9709 38.4004 70.8093C29.8734 70.8093 21.3464 70.8093 12.561 70.8093C12.561 68.0544 12.561 65.2995 12.561 62.4612Z" fill="white"/>
<path d="M9.38102 36.6216C9.38102 46.9852 9.38102 57.3488 9.38102 68.0264C7.54444 68.0264 5.70785 68.0264 3.81561 68.0264C3.77959 64.6605 3.75046 61.2947 3.73322 57.9286C3.72495 56.3653 3.71373 54.8022 3.69565 53.239C3.67829 51.7286 3.66885 50.2182 3.66474 48.7077C3.66182 48.1333 3.65611 47.559 3.64749 46.9847C3.60211 43.8366 3.6062 41.3015 5.40573 38.6092C6.7072 37.4007 7.58225 36.6216 9.38102 36.6216Z" fill="#FEFEFE"/>
<path d="M123.472 36.6216C126.159 37.5174 126.159 37.5174 127.174 38.808C127.369 39.0499 127.564 39.2917 127.765 39.5409C128.756 40.9096 128.688 41.8876 128.685 43.5661C128.685 43.8299 128.685 44.0937 128.685 44.3654C128.685 45.2387 128.681 46.112 128.678 46.9853C128.678 47.5902 128.677 48.1952 128.677 48.8001C128.675 50.3934 128.671 51.9867 128.667 53.58C128.663 55.2054 128.661 56.8308 128.659 58.4562C128.655 61.6463 128.648 64.8363 128.64 68.0264C126.934 68.0264 125.229 68.0264 123.472 68.0264C123.472 57.6628 123.472 47.2992 123.472 36.6216Z" fill="#FEFEFE"/>
<path d="M80.5385 66.8337C82.6374 66.8337 84.7364 66.8337 86.8989 66.8337C86.8989 68.8015 86.8989 70.7693 86.8989 72.7967C84.8 72.7967 82.701 72.7967 80.5385 72.7967C80.5385 70.8289 80.5385 68.8611 80.5385 66.8337Z" fill="#18191A"/>
<path d="M71.7928 66.8337C73.8918 66.8337 75.9908 66.8337 78.1533 66.8337C78.1533 68.8015 78.1533 70.7693 78.1533 72.7967C76.0544 72.7967 73.9554 72.7967 71.7928 72.7967C71.7928 70.8289 71.7928 68.8611 71.7928 66.8337Z" fill="#18191A"/>
<path d="M63.0471 66.8337C65.1461 66.8337 67.245 66.8337 69.4076 66.8337C69.4076 68.8015 69.4076 70.7693 69.4076 72.7967C67.3086 72.7967 65.2097 72.7967 63.0471 72.7967C63.0471 70.8289 63.0471 68.8611 63.0471 66.8337Z" fill="#18191A"/>
<path d="M54.3016 66.8337C56.4006 66.8337 58.4995 66.8337 60.6621 66.8337C60.6621 68.8015 60.6621 70.7693 60.6621 72.7967C58.5632 72.7967 56.4642 72.7967 54.3016 72.7967C54.3016 70.8289 54.3016 68.8611 54.3016 66.8337Z" fill="#18191A"/>
<path d="M45.556 66.8337C47.655 66.8337 49.7539 66.8337 51.9165 66.8337C51.9165 68.8015 51.9165 70.7693 51.9165 72.7967C49.8175 72.7967 47.7186 72.7967 45.556 72.7967C45.556 70.8289 45.556 68.8611 45.556 66.8337Z" fill="#18191A"/>
<path d="M80.5385 58.0881C82.6374 58.0881 84.7364 58.0881 86.8989 58.0881C86.8989 60.0559 86.8989 62.0237 86.8989 64.0511C84.8 64.0511 82.701 64.0511 80.5385 64.0511C80.5385 62.0833 80.5385 60.1155 80.5385 58.0881Z" fill="#18191A"/>
<path d="M71.7928 58.0881C73.8918 58.0881 75.9908 58.0881 78.1533 58.0881C78.1533 60.0559 78.1533 62.0237 78.1533 64.0511C76.0544 64.0511 73.9554 64.0511 71.7928 64.0511C71.7928 62.0833 71.7928 60.1155 71.7928 58.0881Z" fill="#18191A"/>
<path d="M63.0471 58.0881C65.1461 58.0881 67.245 58.0881 69.4076 58.0881C69.4076 60.0559 69.4076 62.0237 69.4076 64.0511C67.3086 64.0511 65.2097 64.0511 63.0471 64.0511C63.0471 62.0833 63.0471 60.1155 63.0471 58.0881Z" fill="#18191A"/>
<path d="M54.3016 58.0881C56.4006 58.0881 58.4995 58.0881 60.6621 58.0881C60.6621 60.0559 60.6621 62.0237 60.6621 64.0511C58.5632 64.0511 56.4642 64.0511 54.3016 64.0511C54.3016 62.0833 54.3016 60.1155 54.3016 58.0881Z" fill="#18191A"/>
<path d="M45.556 58.0881C47.655 58.0881 49.7539 58.0881 51.9165 58.0881C51.9165 60.0559 51.9165 62.0237 51.9165 64.0511C49.8175 64.0511 47.7186 64.0511 45.556 64.0511C45.556 62.0833 45.556 60.1155 45.556 58.0881Z" fill="#18191A"/>
<path d="M80.5385 49.3428C82.6374 49.3428 84.7364 49.3428 86.8989 49.3428C86.8989 51.3105 86.8989 53.2783 86.8989 55.3057C84.8 55.3057 82.701 55.3057 80.5385 55.3057C80.5385 53.3379 80.5385 51.3702 80.5385 49.3428Z" fill="#18191A"/>
<path d="M71.7928 49.3428C73.8918 49.3428 75.9908 49.3428 78.1533 49.3428C78.1533 51.3105 78.1533 53.2783 78.1533 55.3057C76.0544 55.3057 73.9554 55.3057 71.7928 55.3057C71.7928 53.3379 71.7928 51.3702 71.7928 49.3428Z" fill="#18191A"/>
<path d="M63.0471 49.3428C65.1461 49.3428 67.245 49.3428 69.4076 49.3428C69.4076 51.3105 69.4076 53.2783 69.4076 55.3057C67.3086 55.3057 65.2097 55.3057 63.0471 55.3057C63.0471 53.3379 63.0471 51.3702 63.0471 49.3428Z" fill="#18191A"/>
<path d="M54.3016 49.3428C56.4006 49.3428 58.4995 49.3428 60.6621 49.3428C60.6621 51.3105 60.6621 53.2783 60.6621 55.3057C58.5632 55.3057 56.4642 55.3057 54.3016 55.3057C54.3016 53.3379 54.3016 51.3702 54.3016 49.3428Z" fill="#18191A"/>
<path d="M45.556 49.3428C47.655 49.3428 49.7539 49.3428 51.9165 49.3428C51.9165 51.3105 51.9165 53.2783 51.9165 55.3057C49.8175 55.3057 47.7186 55.3057 45.556 55.3057C45.556 53.3379 45.556 51.3702 45.556 49.3428Z" fill="#18191A"/>
<path d="M80.936 75.5796C82.9038 75.5796 84.8716 75.5796 86.899 75.5796C86.899 77.5474 86.899 79.5151 86.899 81.5425C84.9312 81.5425 82.9634 81.5425 80.936 81.5425C80.936 79.5748 80.936 77.607 80.936 75.5796Z" fill="#0C0D0E"/>
<path d="M72.1903 75.5796C74.1581 75.5796 76.1258 75.5796 78.1532 75.5796C78.1532 77.5474 78.1532 79.5151 78.1532 81.5425C76.1855 81.5425 74.2177 81.5425 72.1903 81.5425C72.1903 79.5748 72.1903 77.607 72.1903 75.5796Z" fill="#0C0D0E"/>
<path d="M63.4449 75.5796C65.4127 75.5796 67.3805 75.5796 69.4079 75.5796C69.4079 77.5474 69.4079 79.5151 69.4079 81.5425C67.4401 81.5425 65.4723 81.5425 63.4449 81.5425C63.4449 79.5748 63.4449 77.607 63.4449 75.5796Z" fill="#0C0D0E"/>
<path d="M54.6992 75.5796C56.667 75.5796 58.6348 75.5796 60.6622 75.5796C60.6622 77.5474 60.6622 79.5151 60.6622 81.5425C58.6944 81.5425 56.7266 81.5425 54.6992 81.5425C54.6992 79.5748 54.6992 77.607 54.6992 75.5796Z" fill="#0C0D0E"/>
<path d="M45.9535 75.5796C47.9213 75.5796 49.889 75.5796 51.9164 75.5796C51.9164 77.5474 51.9164 79.5151 51.9164 81.5425C49.9487 81.5425 47.9809 81.5425 45.9535 81.5425C45.9535 79.5748 45.9535 77.607 45.9535 75.5796Z" fill="#0C0D0E"/>
</svg>
