<svg width="104" height="109" viewBox="0 0 104 109" fill="none" xmlns="http://www.w3.org/2000/svg">
<path d="M46.521 8.38907C48.4451 9.74113 49.7293 11.4003 51.0428 13.3354C51.5527 14.0599 52.0508 14.6498 52.6998 15.2472C52.7902 14.9932 52.8806 14.7392 52.9737 14.4775C54.4837 11.0028 57.5658 8.40455 61.0081 6.95117C62.6545 6.36258 64.2204 6.3084 65.9559 6.32945C66.4194 6.33382 66.4194 6.33382 66.8923 6.33827C71.6764 6.46216 74.7735 8.42781 78.0287 11.8291C81.1998 15.5434 82.0798 19.9541 81.7974 24.7126C80.8473 35.2403 71.9928 44.17 64.355 50.7427C62.7085 52.1721 61.1783 53.7068 59.6456 55.2563C59.3719 55.5315 59.0983 55.8067 58.8164 56.0903C58.2925 56.6173 57.769 57.1446 57.2458 57.6723C56.434 58.4908 55.6192 59.3062 54.8033 60.1205C54.353 60.4919 54.353 60.4919 54.4129 61.3476C54.4147 61.7276 54.4166 62.1076 54.4185 62.4992C54.4196 62.9093 54.4207 63.3194 54.4219 63.7419C54.4248 64.1737 54.4278 64.6055 54.4308 65.0504C54.4324 65.4836 54.434 65.9167 54.4356 66.363C54.4397 67.4374 54.4455 68.5117 54.4527 69.586C54.5817 69.3062 54.7108 69.0264 54.8438 68.7382C56.1511 65.9379 57.7859 63.5798 59.7113 61.1722C59.9574 60.8387 59.9574 60.8387 60.2084 60.4985C65.2496 53.9837 74.0665 50.2616 81.9699 49.0788C83.7066 48.8597 85.4381 48.7902 87.1875 48.7707C87.4732 48.7658 87.7589 48.7609 88.0533 48.7559C90.0347 48.7721 90.0347 48.7721 90.8119 49.3451C91.3658 50.0928 91.4026 50.4961 91.4149 51.4205C91.4209 51.8597 91.4209 51.8597 91.427 52.3078C91.4235 52.6228 91.4199 52.9378 91.4162 53.2624C91.4123 53.7526 91.4123 53.7526 91.4082 54.2527C91.1767 64.2807 87.056 73.0611 79.8679 80.0374C72.2131 86.7458 64.1291 88.5169 54.1021 88.5169C54.1021 94.1857 54.1021 99.8544 54.1021 105.695C55.9879 105.683 55.9879 105.683 57.9119 105.67C59.1255 105.665 60.3391 105.661 61.5527 105.656C62.3981 105.653 63.2435 105.648 64.0888 105.642C65.3019 105.634 66.5149 105.63 67.7279 105.627C68.1077 105.623 68.4875 105.619 68.8788 105.616C69.2297 105.615 69.5806 105.615 69.9421 105.615C70.2519 105.614 70.5618 105.612 70.881 105.611C71.6308 105.695 71.6308 105.695 72.3319 106.396C72.2443 107.294 72.2443 107.294 71.9813 108.149C71.0751 108.602 70.4214 108.546 69.4062 108.549C69.0086 108.551 68.6109 108.553 68.2012 108.555C67.7628 108.555 67.3245 108.556 66.8728 108.556C66.4128 108.558 65.9527 108.56 65.4788 108.561C64.2148 108.566 62.9509 108.568 61.687 108.57C60.8978 108.571 60.1087 108.572 59.3195 108.574C56.8519 108.579 54.3843 108.582 51.9166 108.583C49.0653 108.585 46.2141 108.591 43.3628 108.601C41.1605 108.609 38.9582 108.612 36.7559 108.613C35.4397 108.613 34.1236 108.615 32.8075 108.621C31.3401 108.628 29.873 108.627 28.4056 108.625C27.968 108.628 27.5303 108.631 27.0794 108.634C26.4814 108.631 26.4814 108.631 25.8713 108.628C25.5242 108.629 25.1771 108.629 24.8194 108.63C23.9529 108.5 23.9529 108.5 23.3016 108.012C22.9011 107.448 22.9011 107.448 22.9888 106.703C23.2517 106.046 23.2517 106.046 23.6023 105.695C24.4769 105.662 25.3418 105.651 26.2166 105.655C26.4902 105.655 26.7638 105.655 27.0457 105.655C27.9543 105.655 28.8629 105.658 29.7715 105.661C30.3998 105.661 31.0281 105.662 31.6564 105.662C33.3134 105.664 34.9704 105.667 36.6273 105.671C38.3168 105.674 40.0063 105.676 41.6958 105.678C45.0133 105.682 48.3307 105.688 51.6481 105.695C51.6481 103.497 51.6481 101.299 51.6481 99.0341C50.7371 99.063 49.826 99.0919 48.8874 99.1217C42.094 99.1902 35.0698 97.064 29.562 93.0744C29.3017 92.8918 29.0414 92.7092 28.7732 92.5211C20.9723 86.7818 16.3587 78.6058 14.6312 69.156C14.4392 67.3899 14.4228 65.6425 14.4217 63.8672C14.4174 63.5163 14.4131 63.1654 14.4086 62.8039C14.4076 62.3019 14.4076 62.3019 14.4066 61.7898C14.4044 61.3341 14.4044 61.3341 14.4022 60.8691C14.4874 60.1205 14.4874 60.1205 15.1885 59.4194C24.5755 58.2559 33.2355 60.9411 40.7804 66.4308C45.3997 70.1276 48.6827 74.4788 51.2975 79.7526C52.8624 68.8999 52.8624 68.8999 49.7626 58.8923C47.447 56.1087 44.6152 53.8674 41.6864 51.7628C34.0667 46.1855 26.3384 37.7852 23.6023 28.5689C23.5236 28.3159 23.445 28.0628 23.364 27.802C22.1611 23.3201 22.7027 18.2142 24.9553 14.1461C25.0872 13.931 25.2192 13.7159 25.3551 13.4943C25.4943 13.2647 25.6335 13.0351 25.7769 12.7986C30.3021 6.08886 39.6735 4.24454 46.521 8.38907Z" fill="#101112"/>
<path d="M44.2325 10.1912C47.7986 12.5471 49.6405 16.1542 51.648 19.8046C52.4832 19.8242 52.4832 19.8242 53.4008 19.454C53.9436 18.6153 54.3632 17.853 54.7812 16.9562C56.5694 13.3986 58.5224 10.8189 62.4445 9.41204C65.8142 8.86834 69.7374 8.80737 72.6823 10.6897C76.3062 13.3622 78.1919 16.4395 78.9927 20.8563C79.5904 27.0016 76.8426 33.0162 73.0329 37.6838C72.0685 38.8063 71.0665 39.8877 70.0462 40.9595C69.1845 41.8504 69.1845 41.8504 68.5371 42.7343C67.679 43.7572 66.7325 44.5714 65.7202 45.4375C64.4753 46.5324 63.3255 47.7191 62.1651 48.9022C60.3613 50.7412 58.516 52.4889 56.556 54.1608C55.7462 54.8549 54.9363 55.549 54.102 56.2642C53.9863 53.1406 53.8706 50.017 53.7514 46.7987C53.173 46.7987 52.5945 46.7987 51.9985 46.7987C51.8828 50.3851 51.7672 53.9715 51.648 57.6665C51.0695 57.088 50.4911 56.5096 49.8951 55.9136C49.4427 55.4822 48.9882 55.0529 48.5311 54.6264C48.2839 54.395 48.0367 54.1636 47.782 53.9251C47.5249 53.6847 47.2678 53.4444 47.0029 53.1967C45.1182 51.4306 43.261 49.647 41.4485 47.8066C40.5569 46.9297 39.6131 46.1218 38.6658 45.3061C36.513 43.401 34.5455 41.302 32.717 39.0861C32.4676 38.7842 32.2181 38.4824 31.9611 38.1713C28.1361 33.3246 25.3406 27.7335 25.5837 21.3931C26.1759 17.0809 27.9394 13.9597 31.2805 11.2306C34.78 8.65647 40.2823 8.21952 44.2325 10.1912Z" fill="#FDFDFD"/>
<path d="M17.2921 62.224C26.2332 61.8475 34.4492 64.3104 41.1968 70.3967C46.8055 75.6235 50.9177 82.874 51.3593 90.6546C51.3627 91.4653 51.3381 92.2652 51.2976 93.0744C49.3231 91.4395 47.5355 89.6781 45.7515 87.8391C45.1606 87.237 44.5694 86.6351 43.9781 86.0335C43.0531 85.0911 42.1298 84.1473 41.211 83.1989C40.319 82.2795 39.4207 81.3668 38.5209 80.4551C38.2462 80.1685 37.9716 79.8819 37.6886 79.5866C37.43 79.3267 37.1713 79.0667 36.9048 78.7989C36.6794 78.5678 36.4541 78.3367 36.2219 78.0986C35.5239 77.5472 35.5239 77.5472 34.559 77.7526C34.2983 77.8342 34.0376 77.9157 33.769 77.9998C33.9367 79.6126 34.4984 80.3017 35.6397 81.4264C35.9625 81.748 36.2854 82.0696 36.618 82.4009C36.9724 82.7471 37.3269 83.0931 37.6814 83.4391C38.0428 83.797 38.4039 84.1552 38.7646 84.5138C39.7131 85.455 40.6656 86.392 41.6192 87.3281C43.1478 88.8303 44.6699 90.3392 46.1928 91.8472C46.7262 92.3744 47.2611 92.9001 47.7962 93.4255C48.1179 93.7427 48.4397 94.0599 48.7711 94.3867C49.1993 94.8073 49.1993 94.8073 49.6361 95.2364C50.2459 95.879 50.2459 95.879 50.2459 96.2296C44.9886 96.5639 39.8941 95.3884 35.1713 93.0744C34.6873 92.8426 34.6873 92.8426 34.1935 92.6061C31.6753 91.3221 29.5669 89.6891 27.4587 87.8158C27.2097 87.5962 26.9607 87.3766 26.7041 87.1503C21.3368 82.1124 17.5587 74.1736 17.265 66.8039C17.2357 65.2765 17.255 63.7512 17.2921 62.224Z" fill="#FDFDFD"/>
<path d="M88.458 51.7067C88.8525 60.4616 86.2967 68.5656 80.5482 75.3143C74.346 82.083 66.4932 85.5552 57.3914 85.9921C56.7624 86.0184 56.1333 86.041 55.5042 86.0629C57.18 84.0387 58.9913 82.2007 60.8682 80.3633C61.499 79.7404 62.1296 79.1173 62.7601 78.4941C63.7479 77.5193 64.7368 76.5456 65.7284 75.5746C66.6897 74.6324 67.6465 73.6858 68.6027 72.7384C68.9011 72.4484 69.1994 72.1584 69.5067 71.8596C69.7807 71.5869 70.0546 71.3142 70.3369 71.0333C70.6998 70.6765 70.6998 70.6765 71.0702 70.3126C71.7157 69.4755 71.8872 68.8791 71.9811 67.8331C71.6173 67.3985 71.6173 67.3985 70.8308 67.3741C69.5656 67.518 69.1862 67.9639 68.3004 68.8663C67.9999 69.1681 67.6993 69.4699 67.3897 69.7809C67.0701 70.1106 66.7505 70.4404 66.4212 70.7801C66.087 71.1185 65.7524 71.4564 65.4173 71.794C64.5376 72.6824 63.6631 73.5758 62.7897 74.4705C61.5552 75.7332 60.3137 76.989 59.073 78.2456C58.4123 78.915 57.7537 79.5863 57.0962 80.2588C56.8 80.5606 56.5039 80.8624 56.1988 81.1733C55.9371 81.4411 55.6753 81.7089 55.4057 81.9849C54.803 82.5572 54.803 82.5572 54.4525 82.5572C54.7249 73.5938 58.3793 66.3705 64.6588 60.0794C71.1521 53.9779 79.7206 51.5597 88.458 51.7067Z" fill="#FDFDFD"/>
<path d="M11.0694 34.0685C13.0676 35.2024 14.8121 36.8616 15.5392 39.0861C15.806 41.4606 15.9038 43.7238 14.4875 45.747C14.2164 46.1917 14.2164 46.1917 13.9397 46.6453C12.2481 48.337 10.1884 49.346 7.78281 49.4499C5.25015 49.2953 3.60714 48.3204 1.91071 46.4701C0.289135 44.5732 -0.0500989 42.8599 0.00583981 40.4117C0.238383 38.3159 1.14181 36.8821 2.67759 35.4708C5.23391 33.479 8.04932 32.6694 11.0694 34.0685Z" fill="#111213"/>
<path d="M98.7124 0.698406C100.566 1.77001 101.908 3.40769 102.985 5.23394C103.52 7.67314 103.293 9.87558 102.13 12.092C100.925 13.8832 99.6433 15.0029 97.573 15.5978C94.9752 15.9492 92.7471 15.8416 90.5164 14.3886C88.3707 12.6102 87.6141 10.509 87.2531 7.7756C87.573 5.07892 88.876 2.97549 90.9669 1.27904C93.2911 -0.178484 96.1833 -0.415802 98.7124 0.698406Z" fill="#101212"/>
<path d="M8.87818 36.2816C10.6747 36.9283 11.6717 37.8578 12.7345 39.4367C13.1614 40.9044 13.143 41.6931 12.7126 43.1616C11.8467 44.6698 10.9588 45.7588 9.25614 46.3195C7.48243 46.6426 6.2511 46.3079 4.6713 45.3965C3.2199 43.8687 2.78621 42.6283 2.82121 40.509C3.0457 38.8427 4.07477 37.8916 5.30671 36.8513C6.64157 36.1707 7.39674 36.0964 8.87818 36.2816Z" fill="#FBFBFB"/>
<path d="M97.6386 3.39355C98.9513 4.2395 99.7842 4.96316 100.239 6.49804C100.553 8.30424 100.329 9.57507 99.4065 11.1596C98.4815 12.4076 97.5054 12.7199 96.0391 13.1C93.9926 13.1706 92.8016 12.5371 91.3064 11.1719C90.3842 9.70728 90.0546 8.56057 90.2108 6.83354C90.7374 5.31526 91.6159 4.14044 93.0154 3.32781C94.6649 2.77797 96.0046 2.78479 97.6386 3.39355Z" fill="#FBFBFB"/>
<path d="M78.4451 105.629C79.3435 105.695 79.3435 105.695 80.0446 106.396C79.9132 107.317 79.9132 107.317 79.6941 108.149C78.8614 108.368 78.8614 108.368 77.9412 108.5C77.24 107.799 77.24 107.799 77.1743 106.9C77.2627 105.751 77.2963 105.718 78.4451 105.629Z" fill="#161718"/>
<path d="M51.9984 39.7874C52.9187 39.9188 52.9187 39.9188 53.7513 40.1379C53.9704 40.9705 53.9704 40.9705 54.1019 41.8908C53.8705 42.1222 53.6391 42.3535 53.4007 42.5919C52.4805 42.4605 52.4805 42.4605 51.6479 42.2414C51.4288 41.4088 51.4288 41.4088 51.2973 40.4885C51.5287 40.2571 51.7601 40.0257 51.9984 39.7874Z" fill="#141516"/>
<path d="M51.9984 32.0747C52.9187 32.2062 52.9187 32.2062 53.7513 32.4253C53.9704 33.2579 53.9704 33.2579 54.1019 34.1781C53.8705 34.4095 53.6391 34.6409 53.4007 34.8793C52.4805 34.7478 52.4805 34.7478 51.6479 34.5287C51.4288 33.6961 51.4288 33.6961 51.2973 32.7759C51.5287 32.5445 51.7601 32.3131 51.9984 32.0747Z" fill="#131516"/>
<path d="M51.9984 24.3621C52.9187 24.4935 52.9187 24.4935 53.7513 24.7126C53.9704 25.5452 53.9704 25.5452 54.1019 26.4655C53.8705 26.6969 53.6391 26.9283 53.4007 27.1666C52.4805 27.0352 52.4805 27.0352 51.6479 26.8161C51.4288 25.9835 51.4288 25.9835 51.2973 25.0632C51.5287 24.8318 51.7601 24.6005 51.9984 24.3621Z" fill="#141516"/>
</svg>
