<svg xmlns="http://www.w3.org/2000/svg" width="131" height="163" fill="none" viewBox="0 0 131 163">
  <path fill="#6664D3" d="M65.819 59.784c1.948.033 3.464.113 5.047.755 1.167.472 1.21-.66 1.534-1.357.35-.749.51-1.356.71-2.103a.095.095 0 0 1 .162-.04l.891.99a.205.205 0 0 0 .347-.078c.215-.724.2-1.504.934-1.92.303-.172 1.06-.244 2.27-.215a.223.223 0 0 0 .21-.118l1.017-1.723a.152.152 0 0 0 .001-.15.147.147 0 0 0-.128-.075c-1.95-.008-1.774-3.45-1.626-4.666.058-.484.268-1.239.63-2.263a18.563 18.563 0 0 0 1.056-6.576c-.004-.201.04-.464.13-.787.021-.081.073-.108.154-.08 1.14.403 2.298.715 3.477.935.3.055.681.314 1.144.779.657.657 1.916.637 1.933-.532.01-.63.003-2.113.45-2.495.191-.165.371-.242.54-.23 3.863.28 1.688 5.023 4.228 5.852.662.215 1.091-.742 1.418-1.151.562-.707 1.007-.875 1.826-1.177.635-.232.982-.78 1.022-1.483.057-.98.112-2.588-.562-3.145-.467-.385-1.446-.3-2.008-.29-.129.002-.193-.061-.193-.19l.008-.806a.14.14 0 0 1 .042-.098.133.133 0 0 1 .098-.037c.517.015 1.141.092 1.433-.485.385-.762.75-1.247 1.097-1.453.83-.496 2.009-.847 3.534-1.052.098-.011.15-.066.155-.165l.185-3.032c.008-.14-.054-.233-.188-.28-.5-.17-1.004-.125-1.183-.831-.129-.503-.072-1.07.17-1.704.376-.986 2.275-.884 3.096-.846a.147.147 0 0 1 .14.13c.16 1.193 1.481 1.326 2.398 1.628 1.466.482 1.646 1.898 2.108 3.145.097.258.205.263.325.015.125-.259.215-.592.272-1.002.25-1.78.292-3.563.127-5.348-.214-2.352.29-4.763.138-7.073-.095-1.454-1.244-1.606-2.406-1.928-1.034-.286-1.788-.935-2.262-1.946-.035-.073-.021-.135.042-.187 1.586-1.286.542-4.53.769-6.242.04-.301-.065-.687-.314-1.159-.692-1.306-2.655-2.717-1.706-4.335a.193.193 0 0 1 .185-.103c3.119.1 2.987 2.465 4.43 4.339 1.909 2.472 4.206 4.673 6.379 6.913.878.904 2.036 1.888 3.475 2.952.522.385 1.356.61 1.823 1.202.315.4.473.814.474 1.243.005 2.456.015 4.902.03 7.338a.212.212 0 0 0 .22.213c2.316-.045 4.536.514 6.139 2.303.775.861 1.164 1.756 2.488 1.988 1.41.248 2.829.322 4.256.222.088-.007.138.034.15.122.122.96.307 1.734.207 2.74a14.84 14.84 0 0 0 .06 3.37c.26 1.97.412 3.569-.956 5.122-2.093 2.378-4.491 5.01-4.693 8.367-.007.102-.062.153-.165.153-1.124-.01-2.625-.272-3.397.837a.42.42 0 0 0-.075.217c-.033.61-.085 1.296-.412 1.82-.27.428-.922.725-1.139 1.287a.423.423 0 0 1-.392.287c-2.525.165-2.795 2.023-2.703 4.124.059 1.332.024 2.42-.102 3.264-.177 1.199-1.374 2.32-2.176 3.262-.711.832-1.061 2.553-1.328 3.612-.102.406-.384.584-.847.534-.09-.008-.147.031-.172.117-.78 2.768-.972 5.528-1.579 8.275-.614 2.793-.847 4.414-.072 6.859.876 2.767 1.578 4.968 1.993 7.488.742 4.49-.769 9.683 1.473 13.864a.178.178 0 0 1-.02.215 1.358 1.358 0 0 1-.771.469.306.306 0 0 0-.198.138l-.474.762c-.17.271-.249.246-.237-.075l.04-1.179c.003-.095-.042-.143-.135-.143-.51.003-.832-.284-1.322-.412a.241.241 0 0 0-.202.03.744.744 0 0 1-.574.093c-.099-.022-.149.018-.15.12 0 .144-.024.286-.073.424a.293.293 0 0 1-.174.18c-.32.125-.464.362-.433.712a.158.158 0 0 1-.097.162.16.16 0 0 1-.185-.04l-.327-.364a.485.485 0 0 0-.397-.158.485.485 0 0 0-.362.225 1.824 1.824 0 0 0-.24.622.123.123 0 0 1-.026.054.118.118 0 0 1-.05.033.116.116 0 0 1-.114-.02l-.172-.139a.358.358 0 0 0-.48.017c-.301.288-.439.653-.412 1.094.085 1.38.239 2.503.462 3.369.223.856.003 1.486-.662 1.889a.476.476 0 0 0-.175.192 2.479 2.479 0 0 1-1.406 1.266.408.408 0 0 0-.202.162c-.387.577-.487 1.002-1.179 1.287a.273.273 0 0 0-.152.15c-.467 1.069.787 1.908 1.416 2.59.055.06.117.067.187.022.178-.12.292-.162.525-.127 1.099.17 1.955-.33 3.147-.427a.474.474 0 0 0 .225-.08l.397-.282a.262.262 0 0 1 .249-.038c.357.123.626.348.807.674a.134.134 0 0 0 .031.036.12.12 0 0 0 .132.009 1.61 1.61 0 0 1 1.039-.209c.069.01.119.047.149.112.154.355.383.653.687.894a.251.251 0 0 1 .103.21c.007.824-.203 2.061 1.036 2.041.113-.002.179.052.198.162l.044.267a.3.3 0 0 0 .12.195c.157.111.274.255.353.43a.226.226 0 0 0 .184.137c.8.11 1.901.025 2.136-.909a.24.24 0 0 0-.033-.193l-.559-.881a.188.188 0 0 1 .002-.223c.39-.574.905-.965 1.544-1.173.425-.138.677.027.989.287.063.052.14.082.22.087.769.048 1.261.215 1.448 1.002.325 1.378.22 3.119.517 4.148.497 1.701 2.044 2.918 3.232 4.156.362.378.831 1.154 1.409 2.326.602 1.219 5.038 10.11 2.598 10.49-1.826.282-4.067 1.603-3.994 3.711.057 1.674 1.379 3.115 2.892 3.742.415.171.397.264-.052.277-1.006.028-1.95.426-2.833 1.194a86.342 86.342 0 0 0-3.601 3.329c-.839.822-1.626 1.344-2.84 1.556-2.021.35-5.073.775-7.051.173a.155.155 0 0 0-.147.027.154.154 0 0 0-.046.061.169.169 0 0 0-.012.077l.25 2.922a.113.113 0 0 1-.009.057.123.123 0 0 1-.088.071.127.127 0 0 1-.058-.003c-1.284-.422-3.252-.16-3.906 1.216-.215.455-.207 1.044-.252 1.569a.195.195 0 0 1-.175.179c-1.291.145-2.288.315-2.93-1.011-.356-.731-.499-1.709-.43-2.932.113-1.961.712-4.369.725-6.617.01-1.711.115-3.419.317-5.122.225-1.891.732-4.334 2.413-5.473a.524.524 0 0 0 .181-.212.523.523 0 0 0-.289-.702c-1.086-.412-2.125-1.321-3.227-2.388-.851-.824-1.833-1.538-3.082-1.111a.195.195 0 0 0-.142.185l-.21 3.591c-.005.094-.053.134-.145.12-1.618-.236-3.05-.319-4.296-.247-1.816.105-.999 3.422-1.506 4.608a.205.205 0 0 1-.175.13c-1.28.15-3.214.207-4.19-.602-.212-.175-.454-.479-.728-.912-1.058-1.683-1.808-2.964-3.374-3.998-1.828-1.209-4.773-2.603-7.003-2.408-.084.008-.127.054-.13.137-.033 1.317 1.486 1.474 2.403 1.317.351-.06.383.015.095.224l-1.11.81a.284.284 0 0 0-.122.207c-.202 1.613.59 3.239 1.267 4.651a.153.153 0 0 1-.012.15.154.154 0 0 1-.133.069c-1.506-.057-5.71-.567-6.674.732-.392.527-.25 2.076-.142 2.558.314 1.408.598 2.824.851 4.246.052.286.062.573.03.861-.008.082-.053.12-.135.113-.941-.083-1.45-.365-2.205-.674-.764-.31-1.84-.01-2.663.037-.44.025-.839.197-1.283.272a.252.252 0 0 1-.245-.085l-.052-.057a.394.394 0 0 0-.245-.13c-1.033-.135-1.756-.582-2.17-1.341-.828-1.514-1.517-3.05-.917-4.696.477-1.309.841-2.245.906-3.664.098-2.135 1.908-2.69 2.13-4.693.408-3.696-2.292-6.534-4.515-9.094-.624-.717-1.171-1.169-2.098-1.591-1.254-.569-2.907-1.199-3.69-2.49-.553-.914-.601-2.283-.626-3.414a.148.148 0 0 0-.015-.062.153.153 0 0 0-.096-.082.141.141 0 0 0-.064-.006c-2.607.31-6.341.709-6.581-2.982-.068-1.039-.31-1.904-.727-2.595a108.085 108.085 0 0 0-2.188-3.475c-.8-1.218-1.001-3.094-1.091-4.86-.19-3.85-.016-7.682.522-11.497.013-.086-.023-.14-.108-.162-1.45-.372-2.752-.687-3.084-2.39a8.977 8.977 0 0 1-.138-2.186c.135-2.702 1.202-6.546-3.017-6.641-.105-.003-.168-.056-.19-.157l-.257-1.197c-.018-.081-.069-.125-.152-.132-2.538-.195-4.331 2.39-7.039 2.1-1.508-.16-4.19-.714-4.91-2.267a.253.253 0 0 0-.202-.155l-1.764-.278c-.051-.008-.079-.038-.082-.09l-.27-2.894a.5.5 0 0 0-.345-.452 708.73 708.73 0 0 0-6.106-2.26c-1.044-.38-1.204 1.578-1.217 2.295-.001.098-.05.134-.144.107-2.66-.754-5.34-.936-8.008-.122-.09.028-.14-.005-.152-.1a7.159 7.159 0 0 0-.602-2.088.24.24 0 0 0-.173-.14c-1.528-.317-3.147-.834-3.01-2.755.006-.083.05-.125.133-.125l3.877-.015c.1 0 .154-.05.164-.15.143-1.418-.237-3.157-.41-4.588-.234-1.933 1.07-2.872 1.365-4.643.18-1.091-.03-2.173-.14-3.232-.007-.073-.048-.11-.123-.112l-3.484-.075c-.07-.002-.107-.037-.11-.105-.087-1.646-.694-4.846 1.122-5.835.337-.185.829-.242 1.246-.382a.213.213 0 0 0 .14-.152 4.8 4.8 0 0 0 .04-2.076.354.354 0 0 0-.28-.277c-1.351-.262-2.81-.442-3.554-1.803-.681-1.247-.992-2.603-.932-4.066.004-.069.04-.101.11-.098 1.474.08 2.46.248 2.957.505 1.619.836 5.128 3.274 6.711 1.121.392-.533.776-1.064 1.154-1.593a.264.264 0 0 1 .2-.113c3.185-.224 8.272.07 10.787 2.358 1.025.932 1.404 2.6 2.673 3.422 1.082.704 1.544-.857 1.773-1.526.46-1.339 1.372-.69 2.15-.088a.27.27 0 0 1 .106.198 8.746 8.746 0 0 1-.123 1.995c-.207 1.16-.651 3.182.597 3.926.572.343 1.147.043 1.489-.442a.47.47 0 0 0 .087-.252l.03-.662a.294.294 0 0 1 .118-.22c.364-.277.729-.214 1.161-.22.228 0 .362.142.402.43.092.653.155 1.308.19 1.966.09 1.643-.734 2.583-1.866 3.969-.386.471-.723 1.184-1.011 2.14a.175.175 0 0 0 .055.2c1.93 1.696 3.399 2.94 3.346 5.45-.003.146.069.228.215.245 1.659.192 2.655.017 2.583-1.933-.058-1.46-.365-2.82 1.124-3.794 1.389-.91 1.975-1.481 2.842-3.008.58-1.014 1.346-2.522 1.938-3.177.755-.834 1.774-.976 3.057-.427 2.466 1.054 4.641 1.774 7.366 1.641.157-.008.241-.09.255-.247.205-2.423 2.892-2.655 4.733-2.42 1.893.24 3.971 1.546 4.393 3.599.017.083.068.126.153.127Z"/>
  <path fill="#FCBD49" d="M61.761 59.472c1.949.033 3.465.113 5.048.755 1.167.472 1.21-.66 1.534-1.357.35-.749.51-1.356.71-2.103a.094.094 0 0 1 .119-.067.095.095 0 0 1 .043.027l.891.99a.204.204 0 0 0 .347-.078c.215-.724.2-1.504.934-1.92.303-.172 1.06-.244 2.27-.215a.222.222 0 0 0 .21-.118l1.017-1.723a.153.153 0 0 0 .001-.15.147.147 0 0 0-.128-.075c-1.95-.008-1.773-3.45-1.626-4.666.058-.484.268-1.238.63-2.262a18.558 18.558 0 0 0 1.056-6.577c-.004-.201.04-.464.13-.786.021-.082.073-.109.154-.08a23.1 23.1 0 0 0 3.477.934c.3.055.681.314 1.144.779.657.657 1.916.637 1.933-.532.01-.63.003-2.113.45-2.495.191-.165.371-.242.54-.23 3.863.28 1.688 5.023 4.228 5.852.662.215 1.091-.742 1.418-1.151.563-.707 1.007-.875 1.826-1.177.635-.232.982-.78 1.022-1.483.057-.98.112-2.588-.562-3.145-.467-.385-1.446-.3-2.008-.29-.129.002-.193-.061-.193-.19l.008-.806a.142.142 0 0 1 .042-.098.136.136 0 0 1 .098-.037c.517.015 1.141.092 1.433-.485.385-.762.75-1.247 1.097-1.453.83-.497 2.009-.847 3.534-1.052.098-.012.15-.066.155-.165l.185-3.032c.008-.14-.054-.233-.188-.28-.5-.17-1.004-.124-1.183-.831-.129-.503-.072-1.07.17-1.704.376-.986 2.275-.884 3.096-.846a.147.147 0 0 1 .14.13c.16 1.193 1.481 1.326 2.398 1.628 1.466.482 1.646 1.898 2.108 3.144.097.259.205.264.325.015.125-.258.215-.591.272-1.001.25-1.78.292-3.563.127-5.348-.214-2.352.29-4.762.138-7.073-.095-1.453-1.244-1.606-2.405-1.928-1.035-.286-1.789-.935-2.263-1.946-.035-.073-.021-.135.042-.187 1.586-1.286.542-4.53.77-6.242.04-.301-.066-.687-.315-1.159-.692-1.306-2.655-2.717-1.706-4.335a.194.194 0 0 1 .185-.103c3.12.1 2.987 2.465 4.43 4.339 1.909 2.472 4.207 4.673 6.379 6.913.878.904 2.036 1.888 3.475 2.952.522.385 1.356.61 1.823 1.202.315.4.473.814.475 1.244.005 2.456.015 4.902.029 7.338a.212.212 0 0 0 .22.212c2.316-.045 4.536.514 6.139 2.303.775.861 1.164 1.755 2.488 1.988 1.41.248 2.829.322 4.256.222.088-.007.138.034.15.123.122.959.307 1.733.207 2.74a14.838 14.838 0 0 0 .06 3.369c.26 1.97.412 3.569-.956 5.122-2.093 2.378-4.491 5.01-4.693 8.367-.007.102-.062.153-.165.153-1.124-.01-2.625-.272-3.397.837a.42.42 0 0 0-.075.217c-.032.61-.085 1.296-.412 1.82-.27.428-.922.725-1.139 1.287a.423.423 0 0 1-.392.287c-2.525.165-2.795 2.023-2.703 4.124.059 1.332.025 2.42-.102 3.264-.177 1.2-1.374 2.32-2.175 3.262-.712.832-1.062 2.553-1.329 3.612-.102.406-.384.584-.847.534-.09-.008-.147.031-.172.118-.78 2.767-.972 5.527-1.579 8.274-.614 2.793-.846 4.414-.072 6.859.876 2.767 1.578 4.968 1.993 7.488.742 4.49-.769 9.683 1.474 13.864a.18.18 0 0 1-.02.215 1.37 1.37 0 0 1-.772.47.302.302 0 0 0-.198.137l-.474.762c-.17.271-.249.246-.237-.075l.04-1.179c.003-.095-.042-.142-.135-.142-.51.002-.832-.285-1.322-.413a.241.241 0 0 0-.202.03.744.744 0 0 1-.574.093c-.099-.022-.148.018-.15.12 0 .145-.024.286-.073.424a.293.293 0 0 1-.174.18c-.32.125-.464.362-.433.712a.158.158 0 0 1-.097.162.16.16 0 0 1-.185-.04l-.327-.364a.485.485 0 0 0-.397-.158.485.485 0 0 0-.362.225 1.845 1.845 0 0 0-.24.622.123.123 0 0 1-.026.054.131.131 0 0 1-.05.034.13.13 0 0 1-.059.005.127.127 0 0 1-.055-.026l-.172-.139a.358.358 0 0 0-.48.017c-.301.288-.438.653-.412 1.094.085 1.38.239 2.503.462 3.369.223.856.003 1.486-.662 1.889a.467.467 0 0 0-.174.192 2.484 2.484 0 0 1-1.407 1.266.405.405 0 0 0-.202.163c-.387.576-.487 1.001-1.179 1.286a.275.275 0 0 0-.152.15c-.467 1.069.787 1.908 1.416 2.59.055.06.117.067.187.022.178-.12.293-.162.525-.127 1.099.17 1.955-.33 3.147-.427a.474.474 0 0 0 .225-.08l.397-.282a.264.264 0 0 1 .25-.038c.356.123.625.348.806.674a.134.134 0 0 0 .031.036.12.12 0 0 0 .132.009 1.61 1.61 0 0 1 1.039-.209c.07.01.12.047.149.112.154.355.383.653.687.894a.251.251 0 0 1 .103.21c.007.824-.203 2.061 1.036 2.041.113-.002.179.052.198.162l.045.267a.294.294 0 0 0 .119.195c.157.112.274.255.353.43a.226.226 0 0 0 .184.137c.8.11 1.901.025 2.136-.909a.237.237 0 0 0-.033-.193l-.559-.881a.188.188 0 0 1 .002-.222c.39-.575.905-.966 1.544-1.174.425-.138.677.027.989.287.063.052.14.082.22.087.769.048 1.261.215 1.448 1.002.325 1.379.22 3.119.517 4.148.498 1.701 2.044 2.918 3.232 4.157.362.377.831 1.153 1.409 2.325.602 1.219 5.038 10.11 2.598 10.49-1.826.282-4.066 1.603-3.994 3.711.057 1.674 1.379 3.115 2.892 3.742.415.171.397.264-.052.277-1.006.028-1.95.426-2.833 1.194a86.342 86.342 0 0 0-3.601 3.329c-.839.822-1.626 1.344-2.84 1.556-2.021.35-5.073.775-7.051.173a.155.155 0 0 0-.147.027.154.154 0 0 0-.046.061.169.169 0 0 0-.012.077l.25 2.922a.113.113 0 0 1-.009.057.123.123 0 0 1-.088.071.114.114 0 0 1-.058-.003c-1.284-.422-3.252-.16-3.906 1.216-.215.455-.207 1.044-.252 1.569a.195.195 0 0 1-.175.179c-1.291.145-2.288.315-2.93-1.011-.356-.731-.5-1.709-.43-2.932.113-1.961.712-4.369.725-6.617.01-1.711.115-3.419.317-5.122.225-1.891.732-4.334 2.413-5.473a.518.518 0 0 0-.108-.914c-1.086-.412-2.125-1.321-3.227-2.388-.851-.824-1.833-1.538-3.082-1.111a.196.196 0 0 0-.142.185l-.21 3.591c-.005.094-.053.134-.145.12-1.618-.236-3.05-.319-4.296-.247-1.816.105-.999 3.422-1.506 4.608a.205.205 0 0 1-.175.13c-1.28.15-3.214.207-4.19-.602-.212-.175-.454-.479-.728-.911-1.059-1.684-1.808-2.965-3.374-3.999-1.828-1.209-4.773-2.603-7.003-2.408-.083.008-.127.054-.13.137-.032 1.317 1.486 1.474 2.403 1.317.351-.06.383.015.095.225l-1.11.809a.283.283 0 0 0-.122.207c-.202 1.614.59 3.239 1.267 4.651a.154.154 0 0 1-.07.202.153.153 0 0 1-.075.017c-1.506-.057-5.71-.567-6.674.732-.392.527-.25 2.076-.142 2.558.314 1.409.598 2.824.851 4.246.052.286.062.573.03.862-.008.081-.053.119-.135.112-.941-.083-1.45-.365-2.205-.674-.764-.31-1.84-.01-2.662.037-.44.025-.84.197-1.284.272a.252.252 0 0 1-.245-.085l-.052-.057a.394.394 0 0 0-.245-.13c-1.033-.135-1.756-.582-2.17-1.341-.827-1.514-1.517-3.05-.917-4.696.477-1.309.841-2.245.906-3.664.098-2.135 1.908-2.69 2.13-4.693.408-3.696-2.292-6.534-4.515-9.094-.624-.717-1.171-1.169-2.098-1.591-1.254-.569-2.907-1.199-3.689-2.49-.554-.914-.602-2.283-.627-3.414a.15.15 0 0 0-.015-.062.154.154 0 0 0-.096-.082.14.14 0 0 0-.064-.006c-2.607.31-6.341.709-6.581-2.982-.068-1.039-.31-1.904-.727-2.595a107.734 107.734 0 0 0-2.188-3.475c-.799-1.218-1.001-3.094-1.091-4.86-.19-3.85-.016-7.682.522-11.497.013-.086-.023-.14-.108-.162-1.45-.372-2.752-.687-3.084-2.39a8.966 8.966 0 0 1-.138-2.186c.135-2.702 1.202-6.546-3.017-6.64-.105-.004-.168-.057-.19-.158l-.257-1.197c-.018-.081-.069-.125-.152-.132-2.538-.195-4.331 2.39-7.039 2.1-1.508-.16-4.19-.714-4.91-2.267a.254.254 0 0 0-.202-.155l-1.764-.278c-.051-.008-.079-.038-.082-.09l-.27-2.894a.5.5 0 0 0-.344-.452c-2.1-.788-4.136-1.541-6.107-2.26-1.044-.38-1.204 1.578-1.216 2.295-.002.098-.05.134-.145.107-2.66-.754-5.34-.936-8.008-.122-.09.028-.14-.005-.152-.1a7.16 7.16 0 0 0-.602-2.088.24.24 0 0 0-.172-.14c-1.529-.317-3.147-.834-3.01-2.755.005-.083.049-.125.132-.125l3.877-.015c.1 0 .154-.05.164-.15.143-1.418-.237-3.157-.41-4.588-.234-1.933 1.07-2.872 1.365-4.643.18-1.091-.03-2.173-.14-3.232-.007-.073-.048-.11-.123-.112l-3.484-.075c-.07-.002-.106-.037-.11-.105-.087-1.646-.694-4.846 1.122-5.835.337-.184.829-.242 1.246-.382a.211.211 0 0 0 .14-.152 4.8 4.8 0 0 0 .04-2.076.354.354 0 0 0-.28-.277c-1.351-.262-2.81-.442-3.554-1.803-.681-1.247-.992-2.603-.932-4.066.004-.069.04-.101.11-.098 1.474.08 2.46.248 2.957.505 1.619.836 5.128 3.274 6.712 1.121.39-.533.776-1.064 1.154-1.593a.263.263 0 0 1 .2-.113c3.184-.224 8.271.07 10.787 2.358 1.024.932 1.403 2.6 2.672 3.422 1.082.704 1.544-.857 1.773-1.526.46-1.339 1.372-.69 2.15-.088a.268.268 0 0 1 .106.198 8.746 8.746 0 0 1-.123 1.995c-.207 1.16-.651 3.182.597 3.927.572.342 1.147.042 1.489-.443a.47.47 0 0 0 .087-.252l.03-.662a.297.297 0 0 1 .118-.22c.364-.277.729-.214 1.161-.22.228 0 .362.142.402.43.092.653.155 1.308.19 1.966.09 1.644-.734 2.583-1.866 3.969-.386.471-.723 1.184-1.011 2.14a.175.175 0 0 0 .055.2c1.93 1.696 3.399 2.94 3.347 5.45-.004.147.068.228.214.245 1.659.192 2.655.017 2.583-1.934-.058-1.458-.365-2.82 1.124-3.793 1.389-.91 1.976-1.481 2.842-3.008.58-1.014 1.346-2.522 1.938-3.177.755-.834 1.774-.976 3.057-.427 2.466 1.054 4.641 1.774 7.366 1.641.157-.008.241-.09.255-.247.205-2.423 2.892-2.655 4.733-2.42 1.893.24 3.971 1.546 4.393 3.599.017.083.068.126.152.127Z"/>
</svg>
