<svg width="390" height="43" viewBox="0 0 390 43" fill="none" xmlns="http://www.w3.org/2000/svg">
<path d="M13.2955 20.8025C13.2382 20.0854 12.9692 19.526 12.4888 19.1245C12.0155 18.7229 11.2947 18.5221 10.3266 18.5221C9.70989 18.5221 9.20432 18.5974 8.8099 18.748C8.42265 18.8914 8.1358 19.0886 7.94935 19.3396C7.7629 19.5906 7.66608 19.8774 7.65891 20.2001C7.64457 20.4655 7.69118 20.7057 7.79875 20.9209C7.91349 21.1288 8.09277 21.3189 8.3366 21.491C8.58042 21.6559 8.89237 21.8065 9.27245 21.9428C9.65253 22.079 10.1043 22.2009 10.6278 22.3085L12.435 22.6957C13.6541 22.9539 14.6975 23.2945 15.5652 23.7176C16.433 24.1408 17.1429 24.6392 17.6951 25.2129C18.2473 25.7794 18.6525 26.4176 18.9106 27.1276C19.176 27.8375 19.3122 28.612 19.3194 29.4511C19.3122 30.8997 18.9501 32.126 18.2329 33.1299C17.5158 34.1339 16.4903 34.8977 15.1565 35.4212C13.8298 35.9447 12.2342 36.2064 10.3697 36.2064C8.45492 36.2064 6.78402 35.9231 5.35694 35.3566C3.93703 34.7901 2.83265 33.9188 2.04381 32.7427C1.26214 31.5594 0.867723 30.0463 0.860552 28.2033H6.5402C6.57605 28.8774 6.74458 29.4439 7.04577 29.9029C7.34696 30.3618 7.77007 30.7096 8.31508 30.9463C8.86727 31.1829 9.52344 31.3013 10.2836 31.3013C10.9218 31.3013 11.4561 31.2224 11.8864 31.0646C12.3167 30.9068 12.6429 30.6881 12.8653 30.4084C13.0876 30.1288 13.2023 29.8096 13.2095 29.4511C13.2023 29.114 13.0911 28.82 12.876 28.569C12.668 28.3108 12.3238 28.0814 11.8433 27.8806C11.3629 27.6726 10.7139 27.479 9.89635 27.2997L7.70194 26.8264C5.75136 26.4033 4.21312 25.6969 3.08723 24.7073C1.96851 23.7105 1.41274 22.3515 1.41991 20.6304C1.41274 19.232 1.78565 18.0093 2.53863 16.9623C3.29878 15.9081 4.34937 15.087 5.6904 14.499C7.0386 13.9109 8.58401 13.6169 10.3266 13.6169C12.1051 13.6169 13.6433 13.9145 14.9413 14.5097C16.2393 15.105 17.2397 15.944 17.9425 17.0269C18.6525 18.1025 19.011 19.3611 19.0182 20.8025H13.2955ZM21.6805 35.9482V19.4256H27.3171V22.5667H27.4893C27.8335 21.534 28.4215 20.7165 29.2534 20.1141C30.0853 19.5117 31.0749 19.2105 32.2223 19.2105C33.384 19.2105 34.3844 19.5189 35.2235 20.1356C36.0625 20.7452 36.5681 21.5555 36.7402 22.5667H36.9123C37.192 21.5555 37.7872 20.7452 38.6979 20.1356C39.6087 19.5189 40.6772 19.2105 41.9035 19.2105C43.4884 19.2105 44.772 19.7197 45.7545 20.738C46.7441 21.7563 47.2389 23.1117 47.2389 24.8041V35.9482H41.3011V26.3101C41.3011 25.5858 41.1183 25.0192 40.7525 24.6105C40.3868 24.1945 39.8955 23.9866 39.2788 23.9866C38.6693 23.9866 38.1852 24.1945 37.8266 24.6105C37.4752 25.0192 37.2996 25.5858 37.2996 26.3101V35.9482H31.6199V26.3101C31.6199 25.5858 31.437 25.0192 31.0713 24.6105C30.7056 24.1945 30.2143 23.9866 29.5976 23.9866C29.1888 23.9866 28.8375 24.0798 28.5434 24.2662C28.2494 24.4527 28.0199 24.7216 27.855 25.073C27.6972 25.4172 27.6183 25.8296 27.6183 26.3101V35.9482H21.6805ZM50.1675 35.9482V19.4256H56.1053V35.9482H50.1675ZM53.1364 17.7045C52.3332 17.7045 51.6448 17.4392 51.0711 16.9085C50.4974 16.3779 50.2105 15.7396 50.2105 14.9938C50.2105 14.248 50.4974 13.6097 51.0711 13.0791C51.6448 12.5484 52.3332 12.2831 53.1364 12.2831C53.9467 12.2831 54.6352 12.5484 55.2017 13.0791C55.7754 13.6097 56.0623 14.248 56.0623 14.9938C56.0623 15.7396 55.7754 16.3779 55.2017 16.9085C54.6352 17.4392 53.9467 17.7045 53.1364 17.7045ZM65.0685 13.9181V35.9482H59.1307V13.9181H65.0685ZM76.0109 36.2494C74.2468 36.2494 72.7265 35.9124 71.45 35.2383C70.1807 34.557 69.2018 33.5817 68.5134 32.3124C67.8321 31.0359 67.4915 29.5084 67.4915 27.73C67.4915 26.0232 67.8357 24.5316 68.5241 23.2551C69.2126 21.9786 70.1843 20.9854 71.4393 20.2754C72.6942 19.5655 74.1751 19.2105 75.8819 19.2105C77.1297 19.2105 78.2591 19.4041 79.2703 19.7914C80.2814 20.1786 81.1456 20.7416 81.8627 21.4802C82.5798 22.2117 83.132 23.1009 83.5193 24.1479C83.9065 25.1949 84.1001 26.3746 84.1001 27.6869V29.0638H69.3417V25.7937H78.6356C78.6285 25.3204 78.5065 24.9045 78.2699 24.5459C78.0404 24.1802 77.7285 23.8969 77.334 23.6961C76.9468 23.4882 76.5058 23.3842 76.0109 23.3842C75.5305 23.3842 75.0894 23.4882 74.6878 23.6961C74.2863 23.8969 73.9635 24.1766 73.7197 24.5352C73.4831 24.8937 73.3576 25.3133 73.3432 25.7937V29.322C73.3432 29.8527 73.4544 30.326 73.6767 30.7419C73.899 31.1578 74.2181 31.4841 74.6341 31.7208C75.05 31.9574 75.552 32.0758 76.14 32.0758C76.5488 32.0758 76.9217 32.0184 77.2587 31.9036C77.603 31.7889 77.897 31.624 78.1408 31.4088C78.3846 31.1865 78.5639 30.9212 78.6787 30.6128H84.1001C83.9137 31.7602 83.4726 32.757 82.777 33.6032C82.0814 34.4423 81.1599 35.0949 80.0125 35.561C78.8723 36.02 77.5384 36.2494 76.0109 36.2494ZM92.4717 35.9482V13.9181H107.962V18.7372H98.4525V22.5236H107.015V27.3427H98.4525V35.9482H92.4717ZM116.995 36.2494C115.202 36.2494 113.667 35.8945 112.391 35.1845C111.114 34.4674 110.135 33.4706 109.454 32.1941C108.773 30.9104 108.432 29.4224 108.432 27.73C108.432 26.0376 108.773 24.5531 109.454 23.2766C110.135 21.993 111.114 20.9962 112.391 20.2862C113.667 19.5691 115.202 19.2105 116.995 19.2105C118.788 19.2105 120.322 19.5691 121.599 20.2862C122.875 20.9962 123.854 21.993 124.535 23.2766C125.217 24.5531 125.557 26.0376 125.557 27.73C125.557 29.4224 125.217 30.9104 124.535 32.1941C123.854 33.4706 122.875 34.4674 121.599 35.1845C120.322 35.8945 118.788 36.2494 116.995 36.2494ZM117.038 31.8606C117.54 31.8606 117.974 31.6921 118.339 31.355C118.705 31.018 118.988 30.5375 119.189 29.9136C119.39 29.2897 119.49 28.5475 119.49 27.6869C119.49 26.8192 119.39 26.077 119.189 25.4603C118.988 24.8364 118.705 24.3559 118.339 24.0188C117.974 23.6818 117.54 23.5133 117.038 23.5133C116.507 23.5133 116.052 23.6818 115.672 24.0188C115.292 24.3559 115.001 24.8364 114.8 25.4603C114.6 26.077 114.499 26.8192 114.499 27.6869C114.499 28.5475 114.6 29.2897 114.8 29.9136C115.001 30.5375 115.292 31.018 115.672 31.355C116.052 31.6921 116.507 31.8606 117.038 31.8606ZM158.043 26.6543V35.9482H152.105V19.4256H157.742V22.5667H157.914C158.273 21.5197 158.904 20.6985 159.807 20.1033C160.718 19.5081 161.779 19.2105 162.991 19.2105C164.16 19.2105 165.175 19.4794 166.035 20.0173C166.903 20.5479 167.574 21.2794 168.047 22.2117C168.527 23.1439 168.764 24.2089 168.757 25.4065V35.9482H162.819V26.6543C162.826 25.8368 162.618 25.1949 162.195 24.7288C161.779 24.2627 161.198 24.0296 160.453 24.0296C159.965 24.0296 159.538 24.1372 159.173 24.3523C158.814 24.5603 158.538 24.8615 158.344 25.2559C158.151 25.6431 158.05 26.1093 158.043 26.6543ZM177.669 36.1634C176.493 36.1634 175.41 35.855 174.42 35.2383C173.438 34.6216 172.649 33.6857 172.054 32.4307C171.466 31.1758 171.172 29.5945 171.172 27.6869C171.172 25.6933 171.48 24.0726 172.097 22.8248C172.721 21.577 173.524 20.6627 174.506 20.0818C175.496 19.5009 176.536 19.2105 177.626 19.2105C178.444 19.2105 179.161 19.3539 179.777 19.6408C180.394 19.9205 180.91 20.297 181.326 20.7703C181.742 21.2364 182.058 21.7491 182.273 22.3085H182.359V13.9181H188.297V35.9482H182.402V33.2375H182.273C182.043 33.7969 181.714 34.2989 181.283 34.7435C180.86 35.1809 180.344 35.5287 179.734 35.7869C179.132 36.0379 178.444 36.1634 177.669 36.1634ZM179.863 31.6025C180.408 31.6025 180.875 31.4447 181.262 31.1292C181.656 30.8064 181.957 30.3547 182.165 29.7738C182.381 29.1857 182.488 28.4901 182.488 27.6869C182.488 26.8694 182.381 26.1702 182.165 25.5893C181.957 25.0013 181.656 24.5531 181.262 24.2447C180.875 23.9292 180.408 23.7714 179.863 23.7714C179.318 23.7714 178.852 23.9292 178.465 24.2447C178.085 24.5531 177.791 25.0013 177.583 25.5893C177.382 26.1702 177.282 26.8694 177.282 27.6869C177.282 28.5045 177.382 29.2073 177.583 29.7953C177.791 30.3762 178.085 30.8244 178.465 31.1399C178.852 31.4483 179.318 31.6025 179.863 31.6025ZM195.816 36.2064C194.762 36.2064 193.829 36.0343 193.019 35.6901C192.216 35.3387 191.585 34.808 191.126 34.0981C190.667 33.3881 190.437 32.4845 190.437 31.3873C190.437 30.4837 190.592 29.7128 190.9 29.0746C191.208 28.4292 191.639 27.9021 192.191 27.4933C192.743 27.0846 193.385 26.7726 194.116 26.5575C194.855 26.3423 195.651 26.2025 196.504 26.1379C197.429 26.0662 198.172 25.9802 198.731 25.8798C199.298 25.7722 199.706 25.6252 199.957 25.4388C200.208 25.2451 200.334 24.9905 200.334 24.675V24.632C200.334 24.2017 200.169 23.8718 199.839 23.6423C199.509 23.4129 199.086 23.2981 198.57 23.2981C198.003 23.2981 197.541 23.4236 197.182 23.6746C196.831 23.9184 196.619 24.2949 196.547 24.8041H191.083C191.155 23.8001 191.474 22.875 192.04 22.0288C192.614 21.1754 193.449 20.4942 194.547 19.985C195.644 19.4687 197.014 19.2105 198.656 19.2105C199.839 19.2105 200.9 19.3503 201.84 19.63C202.779 19.9025 203.579 20.2862 204.239 20.781C204.898 21.2687 205.4 21.8424 205.745 22.5021C206.096 23.1547 206.272 23.8647 206.272 24.632V35.9482H200.721V33.6248H200.592C200.262 34.2415 199.861 34.7399 199.387 35.12C198.921 35.5 198.387 35.7761 197.784 35.9482C197.189 36.1204 196.533 36.2064 195.816 36.2064ZM197.752 32.463C198.204 32.463 198.627 32.3698 199.021 32.1833C199.423 31.9969 199.749 31.728 200 31.3766C200.251 31.0252 200.377 30.5985 200.377 30.0965V28.7196C200.219 28.7841 200.051 28.8451 199.871 28.9025C199.699 28.9598 199.513 29.0136 199.312 29.0638C199.118 29.114 198.91 29.1606 198.688 29.2037C198.473 29.2467 198.247 29.2861 198.01 29.322C197.551 29.3937 197.175 29.512 196.881 29.677C196.594 29.8347 196.379 30.0319 196.235 30.2686C196.099 30.4981 196.031 30.7562 196.031 31.0431C196.031 31.5021 196.192 31.8534 196.515 32.0973C196.838 32.3411 197.25 32.463 197.752 32.463ZM218.962 19.4256V23.7284H208.076V19.4256H218.962ZM210.184 15.4671H216.122V30.6343C216.122 30.8638 216.162 31.0574 216.241 31.2152C216.319 31.3658 216.441 31.4805 216.606 31.5594C216.771 31.6311 216.983 31.667 217.241 31.667C217.42 31.667 217.628 31.6455 217.865 31.6025C218.109 31.5594 218.288 31.5236 218.403 31.4949L219.263 35.6686C218.998 35.7474 218.618 35.8443 218.123 35.959C217.635 36.0737 217.055 36.149 216.38 36.1849C215.018 36.2566 213.874 36.1168 212.949 35.7654C212.024 35.4068 211.328 34.8439 210.862 34.0765C210.396 33.3092 210.17 32.3483 210.184 31.1937V15.4671ZM221.385 35.9482V19.4256H227.323V35.9482H221.385ZM224.354 17.7045C223.551 17.7045 222.862 17.4392 222.289 16.9085C221.715 16.3779 221.428 15.7396 221.428 14.9938C221.428 14.248 221.715 13.6097 222.289 13.0791C222.862 12.5484 223.551 12.2831 224.354 12.2831C225.164 12.2831 225.853 12.5484 226.419 13.0791C226.993 13.6097 227.28 14.248 227.28 14.9938C227.28 15.7396 226.993 16.3779 226.419 16.9085C225.853 17.4392 225.164 17.7045 224.354 17.7045ZM238.308 36.2494C236.516 36.2494 234.981 35.8945 233.704 35.1845C232.428 34.4674 231.449 33.4706 230.768 32.1941C230.086 30.9104 229.746 29.4224 229.746 27.73C229.746 26.0376 230.086 24.5531 230.768 23.2766C231.449 21.993 232.428 20.9962 233.704 20.2862C234.981 19.5691 236.516 19.2105 238.308 19.2105C240.101 19.2105 241.636 19.5691 242.912 20.2862C244.189 20.9962 245.168 21.993 245.849 23.2766C246.53 24.5531 246.871 26.0376 246.871 27.73C246.871 29.4224 246.53 30.9104 245.849 32.1941C245.168 33.4706 244.189 34.4674 242.912 35.1845C241.636 35.8945 240.101 36.2494 238.308 36.2494ZM238.351 31.8606C238.853 31.8606 239.287 31.6921 239.653 31.355C240.019 31.018 240.302 30.5375 240.503 29.9136C240.704 29.2897 240.804 28.5475 240.804 27.6869C240.804 26.8192 240.704 26.077 240.503 25.4603C240.302 24.8364 240.019 24.3559 239.653 24.0188C239.287 23.6818 238.853 23.5133 238.351 23.5133C237.821 23.5133 237.365 23.6818 236.985 24.0188C236.605 24.3559 236.315 24.8364 236.114 25.4603C235.913 26.077 235.813 26.8192 235.813 27.6869C235.813 28.5475 235.913 29.2897 236.114 29.9136C236.315 30.5375 236.605 31.018 236.985 31.355C237.365 31.6921 237.821 31.8606 238.351 31.8606ZM255.218 26.6543V35.9482H249.28V19.4256H254.917V22.5667H255.089C255.448 21.5197 256.079 20.6985 256.982 20.1033C257.893 19.5081 258.954 19.2105 260.166 19.2105C261.335 19.2105 262.35 19.4794 263.211 20.0173C264.078 20.5479 264.749 21.2794 265.222 22.2117C265.703 23.1439 265.939 24.2089 265.932 25.4065V35.9482H259.994V26.6543C260.001 25.8368 259.793 25.1949 259.37 24.7288C258.954 24.2627 258.374 24.0296 257.628 24.0296C257.14 24.0296 256.713 24.1372 256.348 24.3523C255.989 24.5603 255.713 24.8615 255.519 25.2559C255.326 25.6431 255.225 26.1093 255.218 26.6543ZM286.688 20.8025C286.63 20.0854 286.361 19.526 285.881 19.1245C285.407 18.7229 284.687 18.5221 283.719 18.5221C283.102 18.5221 282.596 18.5974 282.202 18.748C281.815 18.8914 281.528 19.0886 281.341 19.3396C281.155 19.5906 281.058 19.8774 281.051 20.2001C281.037 20.4655 281.083 20.7057 281.191 20.9209C281.305 21.1288 281.485 21.3189 281.729 21.491C281.972 21.6559 282.284 21.8065 282.664 21.9428C283.045 22.079 283.496 22.2009 284.02 22.3085L285.827 22.6957C287.046 22.9539 288.09 23.2945 288.957 23.7176C289.825 24.1408 290.535 24.6392 291.087 25.2129C291.639 25.7794 292.044 26.4176 292.303 27.1276C292.568 27.8375 292.704 28.612 292.711 29.4511C292.704 30.8997 292.342 32.126 291.625 33.1299C290.908 34.1339 289.882 34.8977 288.548 35.4212C287.222 35.9447 285.626 36.2064 283.762 36.2064C281.847 36.2064 280.176 35.9231 278.749 35.3566C277.329 34.7901 276.225 33.9188 275.436 32.7427C274.654 31.5594 274.26 30.0463 274.253 28.2033H279.932C279.968 28.8774 280.137 29.4439 280.438 29.9029C280.739 30.3618 281.162 30.7096 281.707 30.9463C282.259 31.1829 282.915 31.3013 283.676 31.3013C284.314 31.3013 284.848 31.2224 285.278 31.0646C285.709 30.9068 286.035 30.6881 286.257 30.4084C286.48 30.1288 286.594 29.8096 286.601 29.4511C286.594 29.114 286.483 28.82 286.268 28.569C286.06 28.3108 285.716 28.0814 285.235 27.8806C284.755 27.6726 284.106 27.479 283.288 27.2997L281.094 26.8264C279.143 26.4033 277.605 25.6969 276.479 24.7073C275.361 23.7105 274.805 22.3515 274.812 20.6304C274.805 19.232 275.178 18.0093 275.931 16.9623C276.691 15.9081 277.741 15.087 279.082 14.499C280.431 13.9109 281.976 13.6169 283.719 13.6169C285.497 13.6169 287.035 13.9145 288.333 14.5097C289.631 15.105 290.632 15.944 291.335 17.0269C292.044 18.1025 292.403 19.3611 292.41 20.8025H286.688ZM303.033 36.2494C301.24 36.2494 299.705 35.8945 298.429 35.1845C297.152 34.4674 296.173 33.4706 295.492 32.1941C294.811 30.9104 294.47 29.4224 294.47 27.73C294.47 26.0376 294.811 24.5531 295.492 23.2766C296.173 21.993 297.152 20.9962 298.429 20.2862C299.705 19.5691 301.24 19.2105 303.033 19.2105C304.825 19.2105 306.36 19.5691 307.637 20.2862C308.913 20.9962 309.892 21.993 310.573 23.2766C311.254 24.5531 311.595 26.0376 311.595 27.73C311.595 29.4224 311.254 30.9104 310.573 32.1941C309.892 33.4706 308.913 34.4674 307.637 35.1845C306.36 35.8945 304.825 36.2494 303.033 36.2494ZM303.076 31.8606C303.578 31.8606 304.012 31.6921 304.377 31.355C304.743 31.018 305.026 30.5375 305.227 29.9136C305.428 29.2897 305.528 28.5475 305.528 27.6869C305.528 26.8192 305.428 26.077 305.227 25.4603C305.026 24.8364 304.743 24.3559 304.377 24.0188C304.012 23.6818 303.578 23.5133 303.076 23.5133C302.545 23.5133 302.09 23.6818 301.71 24.0188C301.329 24.3559 301.039 24.8364 300.838 25.4603C300.637 26.077 300.537 26.8192 300.537 27.6869C300.537 28.5475 300.637 29.2897 300.838 29.9136C301.039 30.5375 301.329 31.018 301.71 31.355C302.09 31.6921 302.545 31.8606 303.076 31.8606ZM321.965 36.2494C320.172 36.2494 318.637 35.8945 317.361 35.1845C316.084 34.4674 315.105 33.4706 314.424 32.1941C313.743 30.9104 313.402 29.4224 313.402 27.73C313.402 26.0376 313.743 24.5531 314.424 23.2766C315.105 21.993 316.084 20.9962 317.361 20.2862C318.637 19.5691 320.172 19.2105 321.965 19.2105C323.585 19.2105 324.987 19.5045 326.171 20.0926C327.361 20.6734 328.283 21.4981 328.935 22.5667C329.588 23.628 329.918 24.8758 329.925 26.3101H324.417C324.338 25.4423 324.087 24.7826 323.664 24.3308C323.248 23.8718 322.711 23.6423 322.051 23.6423C321.534 23.6423 321.083 23.7929 320.695 24.0941C320.308 24.3882 320.007 24.8364 319.792 25.4388C319.577 26.034 319.469 26.7834 319.469 27.6869C319.469 28.5905 319.577 29.3435 319.792 29.9459C320.007 30.5411 320.308 30.9893 320.695 31.2905C321.083 31.5845 321.534 31.7315 322.051 31.7315C322.488 31.7315 322.876 31.6311 323.213 31.4303C323.55 31.2224 323.822 30.9212 324.03 30.5268C324.245 30.1252 324.374 29.6375 324.417 29.0638H329.925C329.903 30.5196 329.57 31.7889 328.924 32.8718C328.279 33.9475 327.365 34.7793 326.181 35.3674C325.005 35.9554 323.6 36.2494 321.965 36.2494ZM332.375 35.9482V19.4256H338.313V35.9482H332.375ZM335.344 17.7045C334.54 17.7045 333.852 17.4392 333.278 16.9085C332.705 16.3779 332.418 15.7396 332.418 14.9938C332.418 14.248 332.705 13.6097 333.278 13.0791C333.852 12.5484 334.54 12.2831 335.344 12.2831C336.154 12.2831 336.842 12.5484 337.409 13.0791C337.983 13.6097 338.27 14.248 338.27 14.9938C338.27 15.7396 337.983 16.3779 337.409 16.9085C336.842 17.4392 336.154 17.7045 335.344 17.7045ZM349.255 36.2494C347.491 36.2494 345.971 35.9124 344.694 35.2383C343.425 34.557 342.446 33.5817 341.757 32.3124C341.076 31.0359 340.736 29.5084 340.736 27.73C340.736 26.0232 341.08 24.5316 341.768 23.2551C342.457 21.9786 343.428 20.9854 344.683 20.2754C345.938 19.5655 347.419 19.2105 349.126 19.2105C350.374 19.2105 351.503 19.4041 352.514 19.7914C353.526 20.1786 354.39 20.7416 355.107 21.4802C355.824 22.2117 356.376 23.1009 356.763 24.1479C357.151 25.1949 357.344 26.3746 357.344 27.6869V29.0638H342.586V25.7937H351.88C351.873 25.3204 351.751 24.9045 351.514 24.5459C351.284 24.1802 350.973 23.8969 350.578 23.6961C350.191 23.4882 349.75 23.3842 349.255 23.3842C348.775 23.3842 348.334 23.4882 347.932 23.6961C347.53 23.8969 347.208 24.1766 346.964 24.5352C346.727 24.8937 346.602 25.3133 346.587 25.7937V29.322C346.587 29.8527 346.698 30.326 346.921 30.7419C347.143 31.1578 347.462 31.4841 347.878 31.7208C348.294 31.9574 348.796 32.0758 349.384 32.0758C349.793 32.0758 350.166 32.0184 350.503 31.9036C350.847 31.7889 351.141 31.624 351.385 31.4088C351.629 31.1865 351.808 30.9212 351.923 30.6128H357.344C357.158 31.7602 356.717 32.757 356.021 33.6032C355.325 34.4423 354.404 35.0949 353.257 35.561C352.116 36.02 350.782 36.2494 349.255 36.2494ZM369.621 19.4256V23.7284H358.735V19.4256H369.621ZM360.843 15.4671H366.781V30.6343C366.781 30.8638 366.82 31.0574 366.899 31.2152C366.978 31.3658 367.1 31.4805 367.265 31.5594C367.43 31.6311 367.641 31.667 367.899 31.667C368.079 31.667 368.287 31.6455 368.523 31.6025C368.767 31.5594 368.946 31.5236 369.061 31.4949L369.922 35.6686C369.656 35.7474 369.276 35.8443 368.781 35.959C368.294 36.0737 367.713 36.149 367.039 36.1849C365.676 36.2566 364.533 36.1168 363.607 35.7654C362.682 35.4068 361.987 34.8439 361.521 34.0765C361.054 33.3092 360.829 32.3483 360.843 31.1937V15.4671ZM375.658 42.1442C374.977 42.1442 374.328 42.0904 373.711 41.9829C373.094 41.8825 372.553 41.7426 372.087 41.5633L373.377 37.3466C373.865 37.5187 374.31 37.6299 374.711 37.6801C375.12 37.7303 375.468 37.7016 375.755 37.594C376.049 37.4865 376.26 37.2821 376.389 36.9809L376.518 36.6797L370.71 19.4256H376.906L379.573 30.871H379.745L382.456 19.4256H388.695L382.671 37.3251C382.37 38.2359 381.933 39.0534 381.359 39.7777C380.792 40.5092 380.047 41.0865 379.122 41.5096C378.196 41.9327 377.042 42.1442 375.658 42.1442Z" fill="#6664D3"/>
<path d="M150.07 21.2186C150.07 23.3864 149.719 25.529 149.042 27.5024C148.365 29.4758 147.377 31.2343 146.145 32.6596C144.913 34.0849 143.465 35.144 141.898 35.7658C140.332 36.3876 138.683 36.5576 137.062 36.2645C135.442 35.9713 133.888 35.2218 132.504 34.0662C131.12 32.9107 129.939 31.3759 129.04 29.565C128.141 27.7541 127.545 25.7091 127.292 23.5674C127.039 21.4258 127.134 19.237 127.572 17.1484L131.436 18.5718C131.151 19.9295 131.089 21.3521 131.254 22.7442C131.418 24.1363 131.806 25.4656 132.39 26.6426C132.975 27.8197 133.742 28.8173 134.642 29.5684C135.541 30.3196 136.551 30.8068 137.605 30.9973C138.658 31.1879 139.73 31.0773 140.748 30.6732C141.766 30.269 142.708 29.5806 143.509 28.6541C144.309 27.7277 144.952 26.5847 145.392 25.302C145.832 24.0193 146.059 22.6266 146.06 21.2175L150.07 21.2186Z" fill="#6664D3"/>
<ellipse cx="134.717" cy="14.0815" rx="2.72432" ry="3.61127" fill="#6664D3"/>
<ellipse cx="143.213" cy="14.0815" rx="2.72432" ry="3.61127" fill="#6664D3"/>
</svg>
