<svg xmlns="http://www.w3.org/2000/svg" width="13" height="12" fill="none" viewBox="0 0 13 12">
  <path fill="#fff" d="M4.114 5.161c.382.689.821 1.35 1.393 1.952a7.978 7.978 0 0 0 2.207 1.63.23.23 0 0 0 .192.01.822.822 0 0 0 .265-.194c.068-.069.153-.178.242-.297.355-.467.794-1.046 1.414-.756.014.006.024.014.038.02l2.068 1.189c.007.003.014.01.02.014.272.187.385.477.388.805 0 .333-.123.708-.303 1.025a2.1 2.1 0 0 1-.995.88c-.385.177-.814.272-1.226.333a4.16 4.16 0 0 1-1.873-.156c-.607-.188-1.217-.497-1.885-.91l-.049-.031c-.306-.191-.636-.396-.96-.637-1.188-.896-2.397-2.191-3.186-3.616-.66-1.196-1.02-2.487-.824-3.717.11-.675.398-1.288.903-1.693.44-.355 1.032-.55 1.8-.48a.26.26 0 0 1 .207.132l1.326 2.242c.195.252.219.501.112.75-.087.205-.265.394-.507.57a3.843 3.843 0 0 1-.246.187c-.297.215-.634.464-.518.756l-.003-.008Z"/>
</svg>
