<svg xmlns="http://www.w3.org/2000/svg" width="165" height="18" fill="none" viewBox="0 0 165 18">
  <path fill="#fff" fill-opacity=".976" d="M5.61 8.2c-.025-.303-.138-.539-.34-.708-.2-.17-.505-.254-.913-.254-.26 0-.474.032-.64.095a.77.77 0 0 0-.363.25.617.617 0 0 0-.123.363.596.596 0 0 0 .06.304.736.736 0 0 0 .226.24c.103.07.235.134.395.191.16.058.351.11.572.154L5.247 9c.514.109.954.252 1.32.431.366.179.666.389.899.63.233.24.404.51.513.809.112.3.17.626.172.98-.003.611-.156 1.129-.458 1.552-.303.424-.735.746-1.298.967-.56.22-1.233.331-2.02.331-.808 0-1.513-.12-2.115-.358-.599-.24-1.065-.607-1.398-1.103-.33-.5-.496-1.138-.499-1.915H2.76c.016.284.087.523.214.717.127.193.305.34.535.44.233.1.51.15.83.15.27 0 .496-.034.677-.1a.913.913 0 0 0 .413-.277.653.653 0 0 0 .145-.404.574.574 0 0 0-.14-.372c-.088-.109-.233-.206-.436-.29a4.643 4.643 0 0 0-.822-.246l-.925-.2c-.823-.178-1.472-.476-1.947-.893C.832 9.428.597 8.855.6 8.129c-.003-.59.154-1.106.472-1.548.32-.445.764-.791 1.33-1.04.569-.248 1.22-.372 1.956-.372.75 0 1.4.126 1.947.377.548.251.97.605 1.266 1.062.3.454.451.985.454 1.593H5.61Zm3.537 6.39V7.62h2.379v1.324h.072c.145-.435.394-.78.745-1.034.35-.255.768-.382 1.252-.382.49 0 .912.13 1.266.39.354.258.568.6.64 1.026h.073c.118-.426.37-.768.753-1.025.385-.26.835-.39 1.353-.39.669 0 1.21.214 1.625.644.417.43.626 1.001.626 1.715v4.702h-2.505v-4.066c0-.306-.077-.545-.232-.717a.786.786 0 0 0-.621-.264.767.767 0 0 0-.613.264c-.149.172-.223.411-.223.717v4.066h-2.396v-4.066c0-.306-.077-.545-.231-.717a.786.786 0 0 0-.622-.264.82.82 0 0 0-.445.118.786.786 0 0 0-.29.34c-.067.146-.1.32-.1.523v4.066H9.147Zm12.02 0V7.62h2.505v6.97h-2.505Zm1.252-7.697c-.339 0-.63-.112-.871-.336a1.062 1.062 0 0 1-.363-.808c0-.314.12-.584.363-.808.242-.224.532-.335.871-.335.342 0 .633.111.872.335.242.224.363.494.363.808 0 .315-.121.584-.363.808a1.23 1.23 0 0 1-.872.336Zm5.035-1.598v9.295h-2.506V5.295h2.506Zm4.617 9.422c-.745 0-1.386-.142-1.925-.426a2.99 2.99 0 0 1-1.239-1.235c-.287-.538-.431-1.183-.431-1.933 0-.72.145-1.35.436-1.888.29-.539.7-.958 1.23-1.257.53-.3 1.154-.45 1.874-.45a3.97 3.97 0 0 1 1.43.245c.426.164.79.401 1.093.713.303.309.536.684.7 1.126.163.441.245.939.245 1.493v.58h-6.227v-1.38h3.92a.961.961 0 0 0-.153-.526.983.983 0 0 0-.395-.358 1.161 1.161 0 0 0-.558-.132c-.203 0-.39.044-.559.132-.17.085-.305.203-.408.354a.998.998 0 0 0-.16.53v1.49c0 .223.048.423.142.599.093.175.228.313.404.413.175.1.387.15.635.15.172 0 .33-.025.472-.073.145-.049.27-.118.372-.209a.85.85 0 0 0 .227-.336h2.288a2.606 2.606 0 0 1-.559 1.262c-.293.354-.682.63-1.166.826-.481.194-1.044.29-1.688.29Zm6.945-.127V5.295h6.535V7.33H41.54v1.597h3.613v2.034H41.54v3.63h-2.523Zm10.346.127c-.756 0-1.404-.15-1.942-.449a3.09 3.09 0 0 1-1.24-1.262c-.287-.541-.43-1.17-.43-1.883 0-.714.143-1.34.43-1.88a3.06 3.06 0 0 1 1.24-1.26c.538-.303 1.186-.455 1.942-.455.757 0 1.404.152 1.943.454.538.3.951.72 1.239 1.262.287.539.431 1.165.431 1.879s-.144 1.342-.431 1.883c-.288.539-.7.96-1.24 1.262-.538.3-1.185.45-1.942.45Zm.018-1.851a.783.783 0 0 0 .55-.214c.154-.142.273-.345.358-.608.085-.263.127-.576.127-.94 0-.365-.042-.678-.127-.939-.084-.263-.204-.466-.358-.608a.783.783 0 0 0-.55-.213.84.84 0 0 0-.576.213c-.16.142-.283.345-.367.608-.085.26-.128.574-.128.94 0 .363.043.676.128.94.084.262.207.465.367.607a.84.84 0 0 0 .576.214Zm17.301-2.197v3.921h-2.505V7.62h2.378v1.324h.073c.151-.441.418-.788.799-1.039.384-.251.832-.377 1.343-.377.493 0 .921.114 1.285.34.366.225.649.533.848.927.203.393.303.842.3 1.348v4.447h-2.505v-3.92c.003-.345-.085-.616-.264-.812-.175-.197-.42-.295-.735-.295-.206 0-.386.045-.54.136a.873.873 0 0 0-.35.381c-.081.163-.124.36-.127.59Zm8.281 4.012a2.54 2.54 0 0 1-1.37-.39c-.415-.26-.748-.655-1-1.185-.247-.53-.371-1.196-.371-2.001 0-.841.13-1.525.39-2.052.263-.526.602-.912 1.017-1.157a2.562 2.562 0 0 1 1.316-.368c.345 0 .647.06.908.182.26.118.478.277.653.476.176.197.309.413.4.65h.036v-3.54h2.505v9.294H76.96v-1.143h-.055a1.96 1.96 0 0 1-1.071 1.076 2.249 2.249 0 0 1-.871.158Zm.926-1.924c.23 0 .426-.067.59-.2.166-.136.293-.327.381-.572.09-.248.136-.541.136-.88 0-.345-.045-.64-.136-.885a1.208 1.208 0 0 0-.381-.568.904.904 0 0 0-.59-.2.904.904 0 0 0-.59.2c-.16.13-.285.32-.372.568-.085.245-.127.54-.127.885s.042.641.127.89c.087.244.212.434.372.567.163.13.36.195.59.195Zm6.73 1.942c-.444 0-.838-.072-1.18-.218a1.775 1.775 0 0 1-.798-.671c-.194-.3-.29-.681-.29-1.144 0-.381.064-.707.194-.976.13-.272.312-.495.545-.667.233-.172.504-.304.813-.395a4.95 4.95 0 0 1 1.007-.177c.39-.03.703-.066.94-.109.239-.045.411-.107.517-.186a.388.388 0 0 0 .159-.322v-.018a.48.48 0 0 0-.209-.418.917.917 0 0 0-.536-.145c-.239 0-.434.053-.585.159-.148.103-.238.262-.268.476h-2.305c.03-.423.165-.814.403-1.17.243-.36.595-.648 1.058-.863.463-.218 1.04-.327 1.734-.327.499 0 .947.06 1.343.177.397.115.734.277 1.012.486.279.206.49.448.636.726.148.275.222.575.222.899v4.774h-2.342v-.98h-.054c-.14.26-.309.47-.509.63a1.87 1.87 0 0 1-.676.35 2.984 2.984 0 0 1-.83.11Zm.818-1.58c.19 0 .369-.038.535-.117.17-.079.307-.192.413-.34a.905.905 0 0 0 .159-.54v-.582a3.222 3.222 0 0 1-.45.145 6.186 6.186 0 0 1-.55.109c-.192.03-.351.08-.475.15a.706.706 0 0 0-.272.25.628.628 0 0 0-.087.327c0 .193.068.342.204.444.137.103.31.155.523.155Zm8.948-5.5v1.816h-4.593V7.619h4.593Zm-3.703-1.67h2.505v6.4c0 .096.017.178.05.244a.328.328 0 0 0 .154.146c.07.03.16.045.268.045.076 0 .164-.01.263-.027.103-.018.179-.034.227-.046l.363 1.761a8.648 8.648 0 0 1-.48.123c-.206.048-.452.08-.736.095-.575.03-1.057-.029-1.448-.177a1.718 1.718 0 0 1-.88-.712c-.197-.324-.292-.73-.286-1.217V5.95Zm4.726 8.641V7.62h2.505v6.97h-2.505Zm1.252-7.697c-.339 0-.629-.112-.871-.336a1.062 1.062 0 0 1-.363-.808c0-.314.12-.584.363-.808.242-.224.532-.335.871-.335.342 0 .633.111.872.335.242.224.363.494.363.808 0 .315-.121.584-.363.808a1.23 1.23 0 0 1-.872.336Zm5.888 7.824c-.757 0-1.404-.15-1.943-.449a3.09 3.09 0 0 1-1.239-1.262c-.287-.541-.43-1.17-.43-1.883 0-.714.143-1.34.43-1.88.288-.54.7-.961 1.24-1.26.538-.303 1.185-.455 1.942-.455.756 0 1.404.152 1.942.454.539.3.952.72 1.239 1.262.288.539.432 1.165.432 1.879s-.144 1.342-.432 1.883c-.287.539-.7.96-1.239 1.262-.538.3-1.186.45-1.942.45Zm.018-1.851a.782.782 0 0 0 .549-.214c.155-.142.274-.345.359-.608.085-.263.127-.576.127-.94 0-.365-.042-.678-.127-.939-.085-.263-.204-.466-.359-.608a.782.782 0 0 0-.549-.213.839.839 0 0 0-.576.213c-.16.142-.283.345-.368.608-.085.26-.127.574-.127.94 0 .363.042.676.127.94.085.262.207.465.368.607.16.143.352.214.576.214Zm7.117-2.197v3.921h-2.506V7.62h2.378v1.324h.073c.151-.441.418-.788.799-1.039.384-.251.832-.377 1.343-.377.493 0 .922.114 1.285.34.366.225.649.533.848.927.203.393.303.842.3 1.348v4.447h-2.505v-3.92c.003-.345-.085-.616-.264-.812-.175-.197-.42-.295-.735-.295-.206 0-.386.045-.54.136a.87.87 0 0 0-.349.381c-.082.163-.124.36-.127.59ZM120.959 8.2c-.024-.303-.138-.539-.34-.708-.2-.17-.504-.254-.913-.254-.26 0-.473.032-.64.095a.773.773 0 0 0-.363.25.62.62 0 0 0-.122.363.59.59 0 0 0 .059.304.73.73 0 0 0 .227.24c.103.07.234.134.395.191.16.058.351.11.571.154l.763.164a5.74 5.74 0 0 1 1.321.431c.366.179.665.389.898.63.233.24.404.51.513.809.112.3.17.626.173.98-.003.611-.156 1.129-.459 1.552-.302.424-.735.746-1.298.967-.56.22-1.233.331-2.019.331-.808 0-1.513-.12-2.115-.358-.599-.24-1.065-.607-1.398-1.103-.33-.5-.496-1.138-.5-1.915h2.397c.015.284.086.523.213.717.127.193.306.34.536.44.233.1.51.15.83.15.27 0 .495-.034.676-.1a.906.906 0 0 0 .413-.277.653.653 0 0 0 .146-.404.573.573 0 0 0-.141-.372c-.088-.109-.233-.206-.436-.29a4.616 4.616 0 0 0-.821-.246l-.926-.2c-.823-.178-1.472-.476-1.947-.893-.472-.421-.707-.994-.704-1.72-.003-.59.155-1.106.472-1.548.321-.445.764-.791 1.33-1.04.569-.248 1.221-.372 1.956-.372.751 0 1.4.126 1.947.377.548.251.97.605 1.267 1.062.299.454.451.985.454 1.593h-2.415Zm6.896 6.517c-.756 0-1.404-.15-1.942-.449a3.085 3.085 0 0 1-1.239-1.262c-.288-.541-.431-1.17-.431-1.883 0-.714.143-1.34.431-1.88.287-.54.7-.961 1.239-1.26.538-.303 1.186-.455 1.942-.455.757 0 1.404.152 1.943.454.538.3.951.72 1.239 1.262.287.539.431 1.165.431 1.879s-.144 1.342-.431 1.883c-.288.539-.701.96-1.239 1.262-.539.3-1.186.45-1.943.45Zm.019-1.851a.785.785 0 0 0 .549-.214c.154-.142.273-.345.358-.608.085-.263.127-.576.127-.94 0-.365-.042-.678-.127-.939-.085-.263-.204-.466-.358-.608a.785.785 0 0 0-.549-.213.84.84 0 0 0-.577.213c-.16.142-.283.345-.368.608a3.08 3.08 0 0 0-.127.94c0 .363.043.676.127.94.085.262.208.465.368.607a.84.84 0 0 0 .577.214Zm7.969 1.851c-.756 0-1.404-.15-1.942-.449a3.085 3.085 0 0 1-1.239-1.262c-.288-.541-.431-1.17-.431-1.883 0-.714.143-1.34.431-1.88.287-.54.7-.961 1.239-1.26.538-.303 1.186-.455 1.942-.455.684 0 1.276.124 1.775.373.502.245.891.593 1.166 1.043.276.448.415.975.418 1.58h-2.324c-.033-.366-.139-.645-.318-.835a.875.875 0 0 0-.68-.29.904.904 0 0 0-.572.19c-.164.124-.291.313-.382.567-.09.251-.136.567-.136.949 0 .381.046.699.136.953.091.251.218.44.382.567a.918.918 0 0 0 .572.186.941.941 0 0 0 .49-.127.965.965 0 0 0 .345-.381c.09-.17.145-.375.163-.617h2.324c-.009.614-.15 1.15-.422 1.606a2.735 2.735 0 0 1-1.158 1.053c-.496.248-1.089.372-1.779.372Zm4.392-.127V7.62h2.506v6.97h-2.506Zm1.253-7.697c-.339 0-.629-.112-.871-.336a1.062 1.062 0 0 1-.363-.808c0-.314.121-.584.363-.808.242-.224.532-.335.871-.335.342 0 .632.111.871.335.242.224.363.494.363.808 0 .315-.121.584-.363.808a1.227 1.227 0 0 1-.871.336Zm5.869 7.824c-.744 0-1.385-.142-1.924-.426a2.996 2.996 0 0 1-1.239-1.235c-.287-.538-.431-1.183-.431-1.933 0-.72.145-1.35.436-1.888.29-.539.7-.958 1.23-1.257.529-.3 1.154-.45 1.874-.45.526 0 1.003.082 1.43.245.426.164.791.401 1.093.713.303.309.536.684.699 1.126.164.441.245.939.245 1.493v.58h-6.226v-1.38h3.921a.968.968 0 0 0-.154-.526.987.987 0 0 0-.395-.358 1.165 1.165 0 0 0-.559-.132c-.202 0-.388.044-.558.132a1.057 1.057 0 0 0-.408.354.996.996 0 0 0-.159.53v1.49c0 .223.047.423.141.599.093.175.228.313.404.413.175.1.387.15.635.15.172 0 .33-.025.472-.073.145-.049.269-.118.372-.209a.844.844 0 0 0 .227-.336h2.287a2.594 2.594 0 0 1-.558 1.262c-.293.354-.682.63-1.166.826-.481.194-1.044.29-1.689.29Zm8.593-7.098v1.816h-4.593V7.619h4.593Zm-3.703-1.67h2.505v6.4c0 .096.017.178.05.244a.329.329 0 0 0 .154.146c.07.03.159.045.268.045.076 0 .163-.01.263-.027a3.6 3.6 0 0 0 .227-.046l.363 1.761a8.617 8.617 0 0 1-.481.123 4.27 4.27 0 0 1-.735.095c-.575.03-1.058-.029-1.448-.177a1.717 1.717 0 0 1-.88-.712c-.197-.324-.292-.73-.286-1.217V5.95Zm6.25 11.255c-.287 0-.561-.022-.821-.067a3.463 3.463 0 0 1-.685-.178l.544-1.779c.206.073.394.12.563.141.172.021.319.01.44-.036a.453.453 0 0 0 .268-.259l.054-.127-2.45-7.28h2.614l1.125 4.83h.073l1.144-4.83h2.632l-2.542 7.552a3.34 3.34 0 0 1-.553 1.035 2.468 2.468 0 0 1-.944.73c-.391.18-.878.268-1.462.268Zm-95.18-8.171a8.21 8.21 0 0 1-.433 2.651 6.594 6.594 0 0 1-1.223 2.176c-.52.602-1.13 1.049-1.791 1.31a3.702 3.702 0 0 1-2.04.211c-.684-.123-1.34-.44-1.924-.927-.584-.488-1.082-1.135-1.461-1.9a7.757 7.757 0 0 1-.738-2.53 8.433 8.433 0 0 1 .118-2.708l1.63.6a5.484 5.484 0 0 0-.076 1.76 5.05 5.05 0 0 0 .479 1.646c.247.496.57.917.95 1.234.38.317.806.523 1.25.603.444.08.897.034 1.326-.137.43-.17.827-.46 1.165-.852.338-.39.609-.873.794-1.414a5.335 5.335 0 0 0 .282-1.723h1.692Z"/>
  <ellipse cx="56.84" cy="6.022" fill="#fff" fill-opacity=".976" rx="1.149" ry="1.524"/>
  <ellipse cx="60.425" cy="6.022" fill="#fff" fill-opacity=".976" rx="1.149" ry="1.524"/>
</svg>
