<svg width="591" height="78" viewBox="0 0 591 78" fill="none" xmlns="http://www.w3.org/2000/svg">
<path d="M26.2456 15.638C26.1363 16.622 26.0816 17.6333 26.0816 18.672C26.0816 20.64 25.9723 22.4167 25.7536 24.002C25.5349 25.5873 25.3983 26.6807 25.3436 27.282C25.2889 27.8287 25.2069 28.3753 25.0976 28.922V29.496C25.0976 30.48 24.8789 31.464 24.4416 32.448L24.1956 36.138L23.8676 43.928V48.028C23.8676 50.1053 23.7583 51.226 23.5396 51.39L23.6216 53.522V54.424L23.5396 55.408C23.5396 55.6267 23.4849 55.736 23.3756 55.736C23.4849 56.392 23.2116 57.1027 22.5556 57.868C21.9543 58.5787 21.1889 59.0433 20.2596 59.262L18.7836 59.508C18.5649 59.508 18.2643 59.5353 17.8816 59.59C17.4989 59.59 17.1709 59.5353 16.8976 59.426C16.6243 59.3167 16.3509 59.18 16.0776 59.016C15.5309 58.688 15.1483 58.0593 14.9296 57.13C14.7656 56.8567 14.4376 55.1893 13.9456 52.128C13.9456 51.472 13.8909 50.652 13.7816 49.668L14.0276 47.7V46.142C14.0276 45.158 14.1369 44.4747 14.3556 44.092C14.1369 43.764 14.2736 43.0533 14.7656 41.96C14.3829 41.468 14.4103 40.3747 14.8476 38.68C14.6289 37.9693 14.6289 37.5047 14.8476 37.286C14.9569 36.958 15.0116 36.1927 15.0116 34.99L15.0936 34.17C15.0936 32.5847 15.2576 31.136 15.5856 29.824C15.4763 29.66 15.4763 29.2227 15.5856 28.512C15.6949 27.8013 15.7769 26.954 15.8316 25.97V25.396C15.8863 24.576 15.9136 23.7013 15.9136 22.772L15.9956 22.034C15.9956 21.706 16.0503 21.05 16.1596 20.066C16.3236 19.082 16.4603 18.0433 16.5696 16.95H16.4056C10.6109 18.5353 7.05761 19.328 5.74561 19.328L4.35161 19.41C3.53161 19.41 2.68428 19.2733 1.80961 19C1.37228 18.7813 1.04428 18.2073 0.825609 17.278C0.825609 15.474 1.20828 14.162 1.97361 13.342C2.79361 12.522 4.29694 11.7567 6.48361 11.046C7.03028 10.9913 10.4196 9.84333 16.6516 7.602L20.1776 6.782C20.8336 6.56333 21.8723 6.454 23.2936 6.454C24.7149 6.454 25.8903 6.29 26.8196 5.962C27.8036 5.57933 28.8696 5.306 30.0176 5.142C31.1656 4.92333 32.3683 4.70466 33.6256 4.486C34.2269 4.26733 35.3203 4.322 36.9056 4.65C37.5069 4.65 38.4636 5.27867 39.7756 6.536L40.2676 7.684C40.2676 8.012 40.3496 8.258 40.5136 8.422C40.7323 9.898 40.4043 10.8547 39.5296 11.292C39.2016 11.456 38.6276 11.6747 37.8076 11.948C36.7143 11.948 33.9809 12.4947 29.6076 13.588C29.3889 13.588 28.2956 13.752 26.3276 14.08L26.2456 15.146V15.638ZM52.0397 28.102L51.1377 39.254L51.6297 38.106C51.8484 37.614 52.6411 36.466 54.0077 34.662C54.0077 34.498 54.8551 33.0493 56.5497 30.316L57.9437 28.676L58.6817 27.528C59.7204 26.708 60.5951 26.298 61.3057 26.298C62.7817 26.0793 64.3671 26.5167 66.0617 27.61C66.4444 27.6647 66.9364 28.0747 67.5377 28.84C68.4671 29.5507 68.8771 30.562 68.7677 31.874C68.7677 31.9833 68.7404 32.1473 68.6857 32.366C67.6471 40.894 67.1004 46.88 67.0457 50.324C66.9911 53.7133 67.2644 56.556 67.8657 58.852C68.3031 60.7653 67.5924 62.1047 65.7337 62.87C65.2417 63.198 64.4764 63.2527 63.4377 63.034C62.5084 63.034 61.7977 62.8973 61.3057 62.624C60.8684 62.4053 60.4037 61.8587 59.9117 60.984L59.5017 59.344C59.2831 58.9067 59.1737 58.3053 59.1737 57.54L58.8457 55.162C58.9004 55.0527 58.9277 54.342 58.9277 53.03L59.0097 50.898C58.8457 50.1327 58.8731 48.6293 59.0917 46.388L59.2557 42.862V40.812C59.3104 40.648 59.1464 40.2653 58.7637 39.664C57.3424 40.7573 55.7571 44.42 54.0077 50.652L51.8757 57.212C50.8917 60.7107 49.8257 62.5967 48.6777 62.87L47.7757 63.034C47.0104 63.034 45.9717 62.8153 44.6597 62.378C43.6211 61.23 43.1017 60.082 43.1017 58.934C43.2111 58.7153 43.2384 58.4693 43.1837 58.196C43.0197 57.4853 43.0744 56.5013 43.3477 55.244C43.2931 55.08 43.2657 54.8613 43.2657 54.588L43.3477 53.358C43.2384 53.0847 43.1291 52.3193 43.0197 51.062C42.9104 49.75 42.9104 48.766 43.0197 48.11C42.9104 47.8913 43.0744 47.1533 43.5117 45.896C43.0744 45.24 42.8284 44.502 42.7737 43.682C42.5551 41.4407 42.4731 39.7733 42.5277 38.68C42.6371 37.532 42.6917 36.466 42.6917 35.482C42.5824 34.498 42.5551 33.3227 42.6097 31.956L43.1837 25.314L43.7577 20.558C43.7577 20.1753 43.6211 19.6013 43.3477 18.836C43.1291 18.016 43.0744 17.0593 43.1837 15.966C43.2931 14.8727 43.4024 14.1893 43.5117 13.916C43.6757 13.588 43.8944 12.768 44.1677 11.456C44.1677 10.3627 44.2771 9.54266 44.4957 8.996L44.9877 7.52C45.0424 7.13733 45.7531 6.50866 47.1197 5.634H48.0217C50.1537 5.798 51.7117 6.15333 52.6957 6.7C53.1331 6.97333 53.2424 7.93 53.0237 9.57C52.9144 11.866 52.8324 13.2873 52.7777 13.834C52.7231 14.3807 52.5864 16.7587 52.3677 20.968C52.1491 25.1773 52.0397 27.5553 52.0397 28.102ZM92.8578 36.466C92.8031 35.2633 92.5298 34.3613 92.0378 33.76C91.5458 33.104 90.6438 32.7213 89.3318 32.612C88.9491 32.8853 88.4298 33.8147 87.7738 35.4C87.1725 36.9307 86.7898 38.5707 86.6258 40.32C86.0791 42.944 85.8058 45.568 85.8058 48.192C85.8605 50.8707 86.2978 52.8387 87.1178 54.096C87.2271 54.3147 87.3365 54.3967 87.4458 54.342C87.7191 54.342 88.1565 53.7953 88.7578 52.702C91.6551 47.454 93.0218 42.042 92.8578 36.466ZM95.3998 52.128L94.1698 55.326C94.1698 55.4353 93.3771 56.6107 91.7918 58.852C91.2998 59.8907 90.3705 60.4647 89.0038 60.574C87.6918 60.6833 86.4071 60.5467 85.1498 60.164C83.4551 59.5627 82.1705 58.852 81.2958 58.032C80.4211 57.212 79.5465 55.8453 78.6718 53.932C77.8518 51.964 77.4145 50.3513 77.3598 49.094C77.0865 47.29 76.9498 46.142 76.9498 45.65V43.682C76.9498 41.714 77.0318 40.566 77.1958 40.238C77.2505 40.0193 77.3871 39.4453 77.6058 38.516C77.8791 36.22 78.5351 34.0333 79.5738 31.956C81.5965 27.9653 83.6738 25.9153 85.8058 25.806H86.2158C86.3251 25.8607 86.4891 25.888 86.7078 25.888H87.7738C89.6871 26.052 90.8625 26.216 91.2998 26.38C92.1198 26.5987 92.8305 26.708 93.4318 26.708L95.5638 27.118C96.2198 27.0633 97.0671 27.2 98.1058 27.528C99.1991 27.856 99.7731 28.102 99.8278 28.266C99.9371 28.43 100.101 29.0313 100.32 30.07C100.538 31.1087 100.675 31.874 100.73 32.366C100.839 32.8033 100.921 33.268 100.976 33.76C101.413 37.7507 102.124 41.468 103.108 44.912C103.162 45.076 103.217 45.322 103.272 45.65C103.326 45.978 103.518 46.634 103.846 47.618C104.174 48.5473 104.42 49.34 104.584 49.996C104.748 50.652 105.048 51.5267 105.486 52.62C105.814 53.44 106.306 54.3967 106.962 55.49C108.164 57.1847 107.536 58.4967 105.076 59.426C104.748 59.5353 104.174 59.59 103.354 59.59C103.19 59.59 102.67 59.3167 101.796 58.77C101.249 58.77 100.73 58.4693 100.238 57.868L99.5818 57.704C99.1991 57.3213 98.8711 57.13 98.5978 57.13C98.4885 57.0207 97.5045 54.8067 95.6458 50.488C95.4818 51.0893 95.3998 51.636 95.3998 52.128ZM113.248 51.882C113.248 51.6633 113.303 50.8433 113.412 49.422C112.975 48.766 112.756 47.29 112.756 44.994C112.702 39.1447 112.674 36.1653 112.674 36.056C112.729 35.9467 112.674 35.7553 112.51 35.482C112.346 35.154 112.264 34.826 112.264 34.498V33.596C112.046 31.792 112.155 30.4253 112.592 29.496C112.702 28.9493 113.002 28.5393 113.494 28.266C113.877 27.7193 114.424 27.446 115.134 27.446C115.845 27.446 116.446 27.528 116.938 27.692C117.321 27.528 117.676 27.7467 118.004 28.348C118.66 28.6213 119.016 28.758 119.07 28.758L119.48 29.086C119.918 29.086 120.191 29.168 120.3 29.332C120.464 29.4413 120.574 29.7693 120.628 30.316L121.366 37.45V38.844C121.476 39.5 121.53 40.0193 121.53 40.402L121.612 44.256L121.94 44.338C122.268 43.026 122.624 41.9327 123.006 41.058C123.444 40.1287 123.717 39.4453 123.826 39.008C123.881 38.5707 124.072 38.1607 124.4 37.778C124.728 37.122 124.892 36.6573 124.892 36.384C124.892 36.1107 125.111 35.7553 125.548 35.318C126.04 34.1153 126.505 33.2407 126.942 32.694L127.188 32.038C127.407 31.71 127.571 31.4367 127.68 31.218C128.282 30.726 128.719 30.2887 128.992 29.906L129.648 29.414C129.758 29.414 129.867 29.2773 129.976 29.004C130.086 28.676 130.796 28.4847 132.108 28.43C133.147 28.266 134.022 28.266 134.732 28.43C135.224 28.43 135.525 28.4573 135.634 28.512L136.126 29.004L136.782 29.168C137.712 29.66 138.313 30.8353 138.586 32.694C138.586 36.4113 138.723 38.8713 138.996 40.074C139.379 43.19 140.008 45.978 140.882 48.438C141.812 50.898 142.714 52.538 143.588 53.358C144.736 54.834 144.955 56.392 144.244 58.032C143.752 58.852 143.124 59.2893 142.358 59.344C141.593 59.3987 141.046 59.3713 140.718 59.262C140.281 59.262 139.926 59.18 139.652 59.016C139.051 59.18 138.532 59.0433 138.094 58.606C137.602 58.606 137.22 58.36 136.946 57.868C135.033 55.3533 133.912 53.7953 133.584 53.194C133.311 52.5927 133.092 52.1827 132.928 51.964C132.819 51.7453 132.737 51.554 132.682 51.39C132.628 51.226 132.546 50.98 132.436 50.652C132.327 50.16 132.108 49.7227 131.78 49.34C131.507 48.9027 131.37 48.5747 131.37 48.356C131.206 48.0827 131.097 47.6453 131.042 47.044C130.714 46.8253 130.55 46.552 130.55 46.224C130.277 46.06 130.086 45.568 129.976 44.748L129.648 42.616L129.484 42.534C126.751 45.978 125.193 49.8867 124.81 54.26C124.701 55.3533 124.592 56.064 124.482 56.392C124.209 56.8293 124.318 57.5127 124.81 58.442V58.934C124.81 59.1527 124.51 59.5627 123.908 60.164C123.252 60.2187 122.87 60.246 122.76 60.246H121.858C121.749 60.246 121.53 60.328 121.202 60.492C120.874 60.492 120.601 60.5467 120.382 60.656C120.164 60.7653 119.863 60.738 119.48 60.574C118.496 60.5193 117.922 60.4373 117.758 60.328C117.594 60.2733 117.348 60.1913 117.02 60.082C116.692 60.0273 116.419 59.8633 116.2 59.59C115.927 59.59 115.736 59.426 115.626 59.098C114.205 57.6767 113.494 56.474 113.494 55.49V54.916L113.412 54.26C113.522 53.3853 113.467 52.5927 113.248 51.882ZM159.44 8.34C160.807 8.34 161.517 9.652 161.572 12.276C161.736 16.1027 161.599 19.9567 161.162 23.838C160.779 27.7193 160.451 31.6553 160.178 35.646L159.358 39.91L159.44 40.156C160.807 39.5547 162.146 38.434 163.458 36.794L163.622 36.712C164.387 35.9467 165.125 35.3727 165.836 34.99C166 34.6073 166.683 33.924 167.886 32.94C168.05 32.94 168.405 32.612 168.952 31.956C170.264 31.2453 171.057 30.808 171.33 30.644C171.603 30.4253 171.877 30.2613 172.15 30.152C172.423 29.988 172.997 29.8513 173.872 29.742C173.927 29.7967 174.173 29.906 174.61 30.07C175.047 30.234 175.348 30.398 175.512 30.562C176.551 31.546 176.332 32.9127 174.856 34.662C173.161 37.0127 171.412 38.9533 169.608 40.484C167.804 42.0147 166.492 42.9987 165.672 43.436C166 44.1467 166.547 44.994 167.312 45.978C167.968 47.7273 168.624 48.9027 169.28 49.504C170.319 51.1987 171.767 52.9207 173.626 54.67C173.735 54.7247 173.899 54.9433 174.118 55.326C174.391 55.7087 174.993 56.5013 175.922 57.704C176.742 58.2507 177.152 58.9887 177.152 59.918C177.097 60.3007 176.742 60.5467 176.086 60.656C175.485 60.82 174.801 60.82 174.036 60.656C173.763 60.7653 172.997 60.6287 171.74 60.246C171.631 60.1367 171.385 60 171.002 59.836C170.783 59.836 170.346 59.6173 169.69 59.18C168.87 59.18 168.351 59.0707 168.132 58.852C166.601 58.3053 165.809 57.7587 165.754 57.212C165.317 57.1027 164.907 56.7473 164.524 56.146C164.251 55.9273 163.841 55.244 163.294 54.096C163.075 54.0413 162.747 53.7407 162.31 53.194C161.873 52.5927 161.627 52.2373 161.572 52.128C161.572 51.964 161.517 51.8 161.408 51.636C161.299 51.4173 161.162 51.1713 160.998 50.898C159.85 48.9847 159.057 47.8093 158.62 47.372L158.456 49.34L158.21 50.57C158.374 51.0073 158.374 51.39 158.21 51.718C158.101 52.374 158.046 52.8933 158.046 53.276L157.718 56.72V58.278C157.773 59.0433 157.663 59.508 157.39 59.672C157.171 60.2187 156.324 60.3827 154.848 60.164L153.208 59.59L152.716 59.262C152.388 59.262 151.978 59.098 151.486 58.77C151.267 58.77 150.775 58.606 150.01 58.278C149.299 57.8953 148.862 57.5127 148.698 57.13C148.097 55.7087 148.015 54.4513 148.452 53.358C148.288 52.8113 148.233 52.3467 148.288 51.964C148.507 51.144 148.561 50.6247 148.452 50.406C148.452 49.9687 148.479 49.5313 148.534 49.094C148.589 48.6567 148.561 48.2467 148.452 47.864C148.561 47.3173 148.698 46.552 148.862 45.568C148.807 45.1307 148.807 44.748 148.862 44.42C148.917 44.092 148.944 43.8187 148.944 43.6C149.108 43.1627 149.19 42.616 149.19 41.96C149.19 40.976 149.272 40.156 149.436 39.5C149.764 38.4067 149.819 37.532 149.6 36.876L150.748 29.414C151.677 22.2527 152.689 16.5673 153.782 12.358L153.618 10.554C153.399 9.95266 153.727 9.21466 154.602 8.34C155.477 7.73866 156.133 7.49266 156.57 7.602C157.007 7.32866 157.964 7.57466 159.44 8.34ZM184.88 28.184C186.356 26.38 188.379 25.4233 190.948 25.314C195.158 25.15 198.274 26.1887 200.296 28.43C202.374 30.6713 203.467 32.8853 203.576 35.072C203.74 37.2587 203.194 38.434 201.936 38.598C200.132 38.6527 198.957 38.4067 198.41 37.86C197.918 37.9147 197.29 37.5593 196.524 36.794C196.196 36.63 195.759 36.0013 195.212 34.908L194.31 32.858C193.873 31.874 193.326 31.3273 192.67 31.218C191.85 31.546 191.44 32.366 191.44 33.678C191.659 36.2473 192.889 38.7073 195.13 41.058C195.13 41.058 195.158 41.14 195.212 41.304C195.322 41.4133 195.732 41.8507 196.442 42.616C200.761 47.372 203.002 51.1987 203.166 54.096C203.166 55.9547 202.784 57.1847 202.018 57.786C199.668 60.574 196.606 62.0227 192.834 62.132C189.062 62.2413 185.946 61.066 183.486 58.606C182.83 57.95 182.502 57.3213 182.502 56.72C182.174 55.6813 182.065 54.998 182.174 54.67C182.01 53.1393 182.01 51.9913 182.174 51.226C182.502 49.4767 183.787 48.5747 186.028 48.52C186.848 48.52 187.368 49.012 187.586 49.996C188.297 52.784 188.953 54.6153 189.554 55.49C190.21 56.3647 191.249 56.7747 192.67 56.72C194.474 56.6107 195.322 55.5993 195.212 53.686C195.158 51.7727 194.256 49.996 192.506 48.356C191.96 47.7 191.413 47.208 190.866 46.88C190.374 46.4973 190.046 46.224 189.882 46.06C189.828 45.896 189.691 45.732 189.472 45.568C188.379 44.6933 186.985 43.2447 185.29 41.222C183.65 39.1993 182.776 37.3133 182.666 35.564C182.448 32.448 183.186 29.988 184.88 28.184ZM232.995 56.966C233.049 56.9113 232.94 56.1187 232.667 54.588C232.667 54.26 232.612 53.112 232.503 51.144V49.258C232.667 48.4927 232.667 47.9187 232.503 47.536L232.585 46.47C232.585 45.7047 232.612 45.1307 232.667 44.748C232.776 44.3107 232.749 43.6547 232.585 42.78C232.585 41.304 232.585 40.2653 232.585 39.664C232.639 39.008 232.585 38.2973 232.421 37.532C232.475 37.3133 232.503 36.5207 232.503 35.154C232.612 34.826 232.694 34.416 232.749 33.924L227.583 34.088C225.943 34.1973 224.877 33.7873 224.385 32.858C223.947 32.2567 224.111 31.4093 224.877 30.316C225.095 29.988 226.298 29.6873 228.485 29.414L229.387 29.25L232.831 28.266C232.94 27.8287 232.967 27.3093 232.913 26.708L233.159 24.002C233.159 23.1273 233.241 22.116 233.405 20.968C233.405 20.312 233.487 19.5467 233.651 18.672C233.651 18.016 233.705 17.278 233.815 16.458C233.815 15.9113 233.924 14.1347 234.143 11.128C234.361 10.6907 234.553 10.1167 234.717 9.406C234.498 9.18733 234.607 8.61333 235.045 7.684C235.045 6.864 235.865 5.716 237.505 4.24L239.145 2.928C240.074 2.272 241.331 1.616 242.917 0.959998C243.354 0.631999 244.42 0.659332 246.115 1.042C246.279 1.042 246.771 0.959996 247.591 0.795995L250.461 1.124C252.975 1.124 254.697 1.944 255.627 3.584C255.9 4.13066 255.955 4.75933 255.791 5.47C255.681 7.21933 254.67 8.012 252.757 7.848C250.843 7.848 249.641 7.87533 249.149 7.93C247.29 8.422 246.087 9.078 245.541 9.898C244.283 11.7567 243.491 13.2873 243.163 14.49C242.835 15.638 242.589 17.0047 242.425 18.59C242.206 21.4327 242.042 23.1 241.933 23.592C241.878 24.0293 241.796 24.5487 241.687 25.15C241.632 25.7513 241.769 26.1613 242.097 26.38C242.315 26.38 242.698 26.298 243.245 26.134C243.627 25.7513 244.475 25.642 245.787 25.806C245.951 25.7513 246.033 25.7513 246.033 25.806C246.087 25.806 246.169 25.806 246.279 25.806L247.591 25.642L250.543 25.806C251.855 25.97 252.702 26.38 253.085 27.036C253.522 27.6373 253.577 28.2387 253.249 28.84C252.921 29.4413 252.374 29.8787 251.609 30.152C245.923 31.4093 242.452 32.202 241.195 32.53C241.14 33.186 241.085 33.7873 241.031 34.334C240.976 34.8807 240.949 35.4273 240.949 35.974V42.288L241.195 45.158L241.113 46.06V47.618L241.031 49.504C241.304 52.6747 241.632 55.49 242.015 57.95C242.397 59.3167 242.589 60.246 242.589 60.738C242.589 61.722 241.905 62.542 240.539 63.198C237.751 64.4007 235.837 64.264 234.799 62.788C234.744 62.6787 234.662 62.542 234.553 62.378C234.498 62.2687 234.471 62.1867 234.471 62.132L234.143 61.23C234.143 61.1753 233.979 60.3553 233.651 58.77L233.241 57.868L232.995 56.966ZM273.877 40.156L273.467 38.024C273.467 37.86 273.412 37.6687 273.303 37.45C273.248 37.2313 273.166 36.8213 273.057 36.22C272.619 35.892 272.319 35.646 272.155 35.482L271.745 34.826L271.499 34.088C271.225 33.924 271.061 33.7053 271.007 33.432C271.007 33.104 270.897 32.858 270.679 32.694C270.515 32.4753 270.378 32.284 270.269 32.12C270.159 31.9013 270.05 31.7647 269.941 31.71C269.449 31.382 268.793 31.3547 267.973 31.628C267.153 31.9013 266.661 32.284 266.497 32.776C265.567 34.8533 265.103 36.1927 265.103 36.794C264.337 39.418 264.119 41.2767 264.447 42.37C264.337 44.1193 264.556 46.5247 265.103 49.586V50.488C265.595 51.144 266.059 52.0187 266.497 53.112C267.043 53.8227 267.399 54.342 267.563 54.67C267.781 54.9433 267.918 55.1073 267.973 55.162C268.519 55.5447 268.847 55.818 268.957 55.982C269.394 55.7633 269.695 55.5993 269.859 55.49V54.916C270.132 54.6973 270.378 54.5333 270.597 54.424C270.542 54.424 270.733 54.2327 271.171 53.85L271.581 53.44C272.401 51.6907 272.811 50.7887 272.811 50.734C272.811 50.6247 272.783 50.4333 272.729 50.16C272.51 49.668 272.647 49.2853 273.139 49.012C273.139 49.012 273.467 48.0553 274.123 46.142V45.65C274.232 45.322 274.177 45.076 273.959 44.912V44.338C274.068 44.1193 274.123 43.9007 274.123 43.682C274.341 42.8073 274.423 42.288 274.369 42.124C274.369 41.96 274.396 41.7687 274.451 41.55C274.505 41.2767 274.587 41.0853 274.697 40.976C274.861 40.7573 274.587 40.484 273.877 40.156ZM262.233 24.658C262.725 24.658 263.08 24.6033 263.299 24.494C263.572 24.33 264.037 24.1387 264.693 23.92C265.403 23.7013 267.043 23.7013 269.613 23.92C271.034 24.1933 272.619 24.904 274.369 26.052C276.173 26.9267 277.621 28.1293 278.715 29.66C280.245 33.7053 281.093 37.2313 281.257 40.238C281.366 44.83 280.929 48.6293 279.945 51.636C278.578 55.08 277.676 57.1027 277.239 57.704C277.129 58.4147 276.692 59.344 275.927 60.492C275.653 60.492 275.435 60.5193 275.271 60.574C275.271 60.6287 275.107 60.7927 274.779 61.066C274.505 61.394 274.095 61.558 273.549 61.558C272.838 61.722 272.401 61.8587 272.237 61.968C272.127 62.132 271.854 62.214 271.417 62.214L269.367 62.378H267.153C265.677 62.378 264.501 62.1867 263.627 61.804L261.167 60.164L260.347 59.18C260.183 59.18 260.073 59.1253 260.019 59.016C260.019 58.852 259.991 58.7153 259.937 58.606C259.445 58.2233 259.199 57.786 259.199 57.294C258.597 56.3647 258.297 55.7087 258.297 55.326C258.297 54.9433 258.215 54.67 258.051 54.506C258.051 53.686 257.805 52.4833 257.313 50.898L257.149 49.75V48.848C257.094 48.028 256.875 47.0713 256.493 45.978C256.602 45.8687 256.602 45.568 256.493 45.076C256.493 43.8187 256.52 42.9713 256.575 42.534L256.329 41.468C256.493 41.14 256.547 40.8393 256.493 40.566C256.493 40.2927 256.575 39.8827 256.739 39.336V38.762L257.067 35.892C257.067 35.5093 257.121 35.2087 257.231 34.99V34.416C257.34 34.416 257.422 34.1427 257.477 33.596L257.887 32.94L257.969 32.284C257.969 32.12 257.941 31.956 257.887 31.792L258.297 30.562C258.297 30.4527 258.488 30.1247 258.871 29.578C258.871 29.3047 259.062 28.8947 259.445 28.348C259.445 28.0747 259.581 27.7467 259.855 27.364C259.855 26.872 260.155 26.2433 260.757 25.478C261.303 24.9313 261.795 24.658 262.233 24.658ZM287.948 54.342C288.987 47.2353 289.506 43.5727 289.506 43.354L289.916 41.058C290.08 40.894 290.162 39.664 290.162 37.368V35.728L290.326 34.006C290.162 32.858 290.08 31.956 290.08 31.3C289.861 30.2613 289.971 29.2227 290.408 28.184C291.228 27.0907 292.622 26.7627 294.59 27.2C295.301 27.4187 295.929 27.7467 296.476 28.184C297.241 28.4573 297.788 28.7307 298.116 29.004C298.553 29.168 298.772 30.1793 298.772 32.038C299.428 31.382 300.877 30.644 303.118 29.824C303.446 29.824 304.129 29.7147 305.168 29.496C306.207 29.2227 307.081 29.086 307.792 29.086C308.503 29.086 309.049 29.168 309.432 29.332C310.525 29.988 311.127 30.4253 311.236 30.644C311.345 30.808 311.455 31.0813 311.564 31.464C311.728 31.8467 311.783 32.038 311.728 32.038C312.22 32.53 312.357 33.0767 312.138 33.678C311.646 34.3887 310.881 34.7987 309.842 34.908C308.858 34.908 306.999 35.728 304.266 37.368L301.806 38.598C299.674 40.074 298.499 40.894 298.28 41.058C297.351 52.8113 296.749 59.3167 296.476 60.574C296.312 61.066 295.929 61.558 295.328 62.05C294.727 62.542 293.989 62.46 293.114 61.804L291.966 61.394C291.037 61.0113 290.217 60.3553 289.506 59.426L288.522 58.114L288.03 56.72C288.03 56.392 288.003 56.064 287.948 55.736V54.342ZM361.009 36.548C361.337 35.892 361.556 34.6893 361.665 32.94C361.775 31.1907 361.884 29.988 361.993 29.332C361.993 22.936 360.244 18.754 356.745 16.786C355.324 15.966 353.957 15.7473 352.645 16.13C352.044 16.13 351.115 16.5127 349.857 17.278C349.803 18.0433 349.775 19.328 349.775 21.132L349.365 24.166L348.627 31.71C348.627 31.8193 348.573 32.612 348.463 34.088C347.643 42.6707 347.233 49.094 347.233 53.358C348.217 53.1393 349.065 52.6747 349.775 51.964C351.689 50.3787 352.755 49.5313 352.973 49.422L354.121 48.356C354.395 48.3013 355.105 47.6453 356.253 46.388V46.306L357.811 44.256L359.451 40.894C359.889 40.2927 360.408 38.844 361.009 36.548ZM337.311 48.93C337.202 48.7113 337.147 48.3287 337.147 47.782C337.147 47.1807 337.229 46.4973 337.393 45.732C337.557 44.9667 337.639 44.0647 337.639 43.026C337.639 41.9873 337.803 40.648 338.131 39.008C337.913 38.68 337.94 37.45 338.213 35.318C338.487 34.826 338.596 34.17 338.541 33.35C338.487 32.53 338.459 31.874 338.459 31.382C338.459 29.0313 338.514 27.692 338.623 27.364C338.733 27.036 338.76 26.38 338.705 25.396C339.033 25.068 339.307 23.7833 339.525 21.542C337.667 21.5967 336.273 21.1047 335.343 20.066C334.414 18.9727 333.649 17.442 333.047 15.474C333.102 15.146 333.157 14.8453 333.211 14.572C333.321 14.244 333.403 13.9707 333.457 13.752C333.512 13.5333 333.621 13.3147 333.785 13.096C333.949 12.8227 334.059 12.6313 334.113 12.522C334.223 12.358 334.414 12.1667 334.687 11.948C334.961 11.6747 335.152 11.5107 335.261 11.456C335.371 11.3467 335.617 11.1827 335.999 10.964C336.382 10.6907 336.628 10.5267 336.737 10.472C336.847 10.3627 337.12 10.1713 337.557 9.898C338.049 9.57 338.377 9.35133 338.541 9.242C338.705 8.96867 339.143 8.77733 339.853 8.668C340.564 8.504 341.63 8.12133 343.051 7.52C343.27 7.30133 344.555 6.946 346.905 6.454C349.256 5.90733 351.552 6.09866 353.793 7.028C355.051 7.028 355.953 7.13733 356.499 7.356C357.046 7.848 357.784 8.20333 358.713 8.422L362.895 10.636C363.497 11.2373 364.727 12.6587 366.585 14.9C368.608 18.508 369.893 22.1707 370.439 25.888C370.494 26.9267 370.521 28.758 370.521 31.382C370.029 36.3567 369.127 39.9647 367.815 42.206C367.706 42.862 367.405 43.682 366.913 44.666C366.913 44.7753 366.531 45.4587 365.765 46.716C365.055 47.9187 364.235 49.1213 363.305 50.324C362.376 51.472 361.775 52.2373 361.501 52.62C359.26 54.6973 358.003 55.8453 357.729 56.064C356.472 56.9933 355.761 57.4853 355.597 57.54C351.443 59.6173 349.229 60.738 348.955 60.902C348.737 61.066 348.081 61.2573 346.987 61.476C345.402 61.64 344.418 61.558 344.035 61.23C343.161 60.8473 342.368 60.2733 341.657 59.508C341.439 59.4533 341.001 59.016 340.345 58.196C339.471 57.54 338.979 57.1573 338.869 57.048C338.159 56.0093 337.639 54.0413 337.311 51.144C337.257 50.9253 337.257 50.1873 337.311 48.93ZM383.902 45.732C383.629 47.6453 383.492 49.422 383.492 51.062C383.492 52.702 383.601 53.85 383.82 54.506C383.875 54.998 383.984 55.326 384.148 55.49C384.421 55.5993 384.804 55.5993 385.296 55.49C386.061 55.162 386.444 54.8067 386.444 54.424C388.029 52.8933 388.931 51.882 389.15 51.39C389.369 50.898 389.533 50.5973 389.642 50.488C389.861 50.2147 389.997 49.8593 390.052 49.422C390.325 49.1487 390.489 48.9573 390.544 48.848C390.489 48.684 390.599 48.2193 390.872 47.454C390.653 47.0713 390.653 46.798 390.872 46.634C391.145 46.4153 391.282 45.8413 391.282 44.912L391.61 42.288C391.61 41.96 391.637 41.714 391.692 41.55C391.637 41.3313 391.637 41.0033 391.692 40.566C391.801 40.074 391.829 39.3087 391.774 38.27C391.719 37.2313 391.528 36.548 391.2 36.22L391.036 35.728C390.927 35.3453 390.489 35.072 389.724 34.908L389.068 34.58C389.232 34.908 389.068 35.3453 388.576 35.892C386.444 38.7893 384.886 42.0693 383.902 45.732ZM378.244 36.958C378.299 36.5207 378.463 36.1107 378.736 35.728L378.654 35.236C378.873 34.4707 379.009 34.0333 379.064 33.924C379.119 33.8147 379.201 33.8147 379.31 33.924C379.255 33.7053 379.283 33.5413 379.392 33.432C379.556 32.94 379.802 32.366 380.13 31.71C380.513 31.054 380.731 30.644 380.786 30.48C381.114 29.5507 381.633 28.9493 382.344 28.676C382.344 28.2387 383.109 27.938 384.64 27.774C386.389 27.1727 387.811 27.0633 388.904 27.446C389.451 27.118 390.271 27.2547 391.364 27.856C392.184 28.184 393.059 28.676 393.988 29.332C394.808 29.8787 395.491 30.48 396.038 31.136C396.803 31.464 397.295 32.0107 397.514 32.776C399.045 36.4387 399.81 39.664 399.81 42.452L399.646 43.354C399.646 44.1193 399.564 44.6113 399.4 44.83C399.291 44.994 399.236 45.2673 399.236 45.65C399.345 45.7047 399.345 45.9507 399.236 46.388C399.236 46.6613 398.799 48.438 397.924 51.718L396.612 54.424C396.612 54.5333 396.475 54.7247 396.202 54.998V55.49C396.202 55.5993 396.065 55.818 395.792 56.146C395.245 57.2393 394.699 58.0593 394.152 58.606C393.277 60.0273 392.539 61.066 391.938 61.722L391.282 62.624L390.298 62.542C390.134 62.8153 389.97 62.952 389.806 62.952C389.697 62.952 389.314 62.8427 388.658 62.624L389.314 62.542C388.877 62.5967 388.521 62.5693 388.248 62.46C388.029 62.3507 387.811 62.296 387.592 62.296C386.553 61.7493 385.815 61.558 385.378 61.722C385.159 61.722 384.339 61.5033 382.918 61.066L380.622 60.656L378.818 60C378.326 59.7267 377.861 59.3987 377.424 59.016C377.26 58.688 377.178 58.4147 377.178 58.196L376.686 56.556C376.686 56.4467 376.631 56.1733 376.522 55.736V53.604C376.631 53.0573 376.686 52.538 376.686 52.046C376.577 51.7727 376.577 51.1987 376.686 50.324V49.422C376.686 49.258 376.713 48.9573 376.768 48.52C376.713 48.2467 376.741 47.6453 376.85 46.716C376.959 45.7867 377.014 44.9393 377.014 44.174C377.014 43.4633 377.123 42.4793 377.342 41.222C377.506 40.8393 377.615 40.156 377.67 39.172C377.725 38.1333 377.916 37.3953 378.244 36.958ZM425.903 56.966L425.411 55.572L424.509 50.078C424.236 49.0393 424.099 48.11 424.099 47.29L424.427 43.682C424.427 43.0807 424.455 42.7527 424.509 42.698C423.853 42.698 422.869 43.4907 421.557 45.076C421.448 45.24 421.284 45.5133 421.065 45.896C418.769 49.5587 417.403 53.9593 416.965 59.098C416.528 60.0273 415.954 60.492 415.243 60.492C413.767 60.164 412.947 60 412.783 60L412.209 60.082H411.143C409.886 59.9727 409.066 59.4807 408.683 58.606C408.465 58.3327 408.355 57.622 408.355 56.474V55.326L408.109 50.816V44.092C408.109 43.3267 408.055 42.37 407.945 41.222C407.836 39.9647 407.809 37.9967 407.863 35.318C407.918 32.5847 407.891 31.136 407.781 30.972C407.672 30.7533 407.617 30.48 407.617 30.152C407.617 29.824 407.699 29.496 407.863 29.168C408.027 28.84 408.765 28.4847 410.077 28.102C410.788 27.6647 411.389 27.446 411.881 27.446C412.647 27.61 413.631 27.938 414.833 28.43C415.653 28.594 416.063 29.3867 416.063 30.808C416.173 33.1587 416.173 34.8533 416.063 35.892C416.009 36.9307 416.036 39.0353 416.145 42.206C420.191 34.4433 423.799 29.7693 426.969 28.184C427.243 27.9107 427.653 27.774 428.199 27.774C428.746 27.774 429.375 28.0473 430.085 28.594C430.796 29.1407 431.288 29.496 431.561 29.66C431.835 29.824 432.135 30.0973 432.463 30.48C432.846 30.8627 433.147 31.1087 433.365 31.218C434.021 32.3113 434.158 34.8807 433.775 38.926C433.721 39.5273 433.666 40.074 433.611 40.566C433.557 41.0033 433.529 41.9873 433.529 43.518C433.529 45.0487 433.557 46.1147 433.611 46.716C433.775 48.6293 433.857 49.75 433.857 50.078L434.267 53.194C434.814 54.4513 435.087 55.4353 435.087 56.146C435.142 56.802 435.634 57.868 436.563 59.344C436.946 60.164 436.782 60.82 436.071 61.312C434.978 61.8587 434.377 62.0773 434.267 61.968C434.213 61.9133 433.912 61.968 433.365 62.132C432.819 62.3507 431.835 62.4053 430.413 62.296C429.703 62.132 428.992 61.6947 428.281 60.984L427.051 59.754C426.614 59.098 426.313 58.3873 426.149 57.622C425.876 57.3487 425.794 57.13 425.903 56.966ZM458.895 36.466C458.84 35.2633 458.567 34.3613 458.075 33.76C457.583 33.104 456.681 32.7213 455.369 32.612C454.986 32.8853 454.467 33.8147 453.811 35.4C453.21 36.9307 452.827 38.5707 452.663 40.32C452.116 42.944 451.843 45.568 451.843 48.192C451.898 50.8707 452.335 52.8387 453.155 54.096C453.264 54.3147 453.374 54.3967 453.483 54.342C453.756 54.342 454.194 53.7953 454.795 52.702C457.692 47.454 459.059 42.042 458.895 36.466ZM461.437 52.128L460.207 55.326C460.207 55.4353 459.414 56.6107 457.829 58.852C457.337 59.8907 456.408 60.4647 455.041 60.574C453.729 60.6833 452.444 60.5467 451.187 60.164C449.492 59.5627 448.208 58.852 447.333 58.032C446.458 57.212 445.584 55.8453 444.709 53.932C443.889 51.964 443.452 50.3513 443.397 49.094C443.124 47.29 442.987 46.142 442.987 45.65V43.682C442.987 41.714 443.069 40.566 443.233 40.238C443.288 40.0193 443.424 39.4453 443.643 38.516C443.916 36.22 444.572 34.0333 445.611 31.956C447.634 27.9653 449.711 25.9153 451.843 25.806H452.253C452.362 25.8607 452.526 25.888 452.745 25.888H453.811C455.724 26.052 456.9 26.216 457.337 26.38C458.157 26.5987 458.868 26.708 459.469 26.708L461.601 27.118C462.257 27.0633 463.104 27.2 464.143 27.528C465.236 27.856 465.81 28.102 465.865 28.266C465.974 28.43 466.138 29.0313 466.357 30.07C466.576 31.1087 466.712 31.874 466.767 32.366C466.876 32.8033 466.958 33.268 467.013 33.76C467.45 37.7507 468.161 41.468 469.145 44.912C469.2 45.076 469.254 45.322 469.309 45.65C469.364 45.978 469.555 46.634 469.883 47.618C470.211 48.5473 470.457 49.34 470.621 49.996C470.785 50.652 471.086 51.5267 471.523 52.62C471.851 53.44 472.343 54.3967 472.999 55.49C474.202 57.1847 473.573 58.4967 471.113 59.426C470.785 59.5353 470.211 59.59 469.391 59.59C469.227 59.59 468.708 59.3167 467.833 58.77C467.286 58.77 466.767 58.4693 466.275 57.868L465.619 57.704C465.236 57.3213 464.908 57.13 464.635 57.13C464.526 57.0207 463.542 54.8067 461.683 50.488C461.519 51.0893 461.437 51.636 461.437 52.128ZM493.307 10.718C493.198 12.0847 493.143 13.096 493.143 13.752C493.143 14.3533 493.116 14.9 493.061 15.392V17.524L492.979 18.098V19.82C492.979 20.312 492.952 20.804 492.897 21.296L495.767 20.722C495.986 20.722 496.779 20.5853 498.145 20.312C499.512 20.0387 500.742 19.9293 501.835 19.984C502.983 19.984 503.749 20.2027 504.131 20.64C504.569 21.0773 504.787 21.706 504.787 22.526C504.897 23.182 504.705 23.8107 504.213 24.412L503.885 24.904C503.448 25.6147 502.819 26.0793 501.999 26.298L499.129 26.708L495.439 27.61L493.225 28.43C493.28 29.7967 493.362 31.3 493.471 32.94C493.635 34.58 493.717 35.728 493.717 36.384L493.963 39.418C494.674 44.2287 495.603 49.1487 496.751 54.178C497.079 54.67 497.435 55.7907 497.817 57.54L498.473 59.262C498.692 61.1207 497.544 62.05 495.029 62.05C494.592 62.05 493.499 61.9407 491.749 61.722C491.257 61.6673 490.547 61.1753 489.617 60.246C489.617 60.1367 489.317 59.7813 488.715 59.18L487.157 55.408C487.048 55.244 486.911 54.7247 486.747 53.85C486.146 53.2487 485.654 51.882 485.271 49.75C485.271 49.6407 485.217 49.3673 485.107 48.93V47.782C484.725 47.3993 484.451 46.3333 484.287 44.584C484.123 42.8347 483.932 41.1947 483.713 39.664C483.713 37.532 483.549 35.482 483.221 33.514L483.057 31.71V30.972C483.112 30.4253 483.112 30.152 483.057 30.152H482.073C481.253 30.2613 480.57 30.2613 480.023 30.152C477.618 30.152 475.951 29.4687 475.021 28.102C474.365 26.626 474.338 25.6693 474.939 25.232C475.541 24.7947 477.017 24.3573 479.367 23.92C480.406 23.92 481.745 23.5647 483.385 22.854C483.385 21.4873 483.467 20.722 483.631 20.558C483.795 19.3007 483.959 18.508 484.123 18.18C484.342 17.7973 484.479 17.4147 484.533 17.032C484.588 15.72 485.053 13.7793 485.927 11.21C486.255 9.95266 486.556 9.10533 486.829 8.668C487.54 7.62933 489.016 7.30133 491.257 7.684C492.187 7.848 492.87 8.20333 493.307 8.75C493.471 8.69533 493.471 9.35133 493.307 10.718ZM513.245 6.946C513.3 6.89133 513.819 6.80933 514.803 6.7C516.388 6.42666 517.482 6.536 518.083 7.028C518.739 7.46533 519.204 7.95733 519.477 8.504C519.586 10.2533 519.34 12.522 518.739 15.31C518.138 17.114 517.618 18.4533 517.181 19.328L516.361 20.558C516.197 20.9953 515.842 21.46 515.295 21.952C514.748 22.444 514.338 22.69 514.065 22.69C513.846 22.6353 513.436 22.444 512.835 22.116C512.288 21.7333 511.96 21.46 511.851 21.296C511.796 21.132 511.742 20.9407 511.687 20.722L511.277 19.082L509.637 17.032C509.309 16.376 509.145 15.72 509.145 15.064C508.981 13.5333 509.172 12.358 509.719 11.538C509.719 11.4287 509.801 11.1553 509.965 10.718C510.238 9.51533 511.332 8.258 513.245 6.946ZM510.785 43.764C510.785 43.272 510.867 42.616 511.031 41.796C511.25 40.9213 511.304 40.32 511.195 39.992C511.14 39.664 511.14 38.7347 511.195 37.204C511.359 36.548 511.386 35.81 511.277 34.99C510.894 33.7873 510.785 32.9127 510.949 32.366C511.113 31.8193 511.468 31.218 512.015 30.562C512.562 29.8513 513.163 29.3593 513.819 29.086C514.475 28.8127 515.459 28.84 516.771 29.168C517.099 29.332 517.646 29.8787 518.411 30.808C518.575 30.972 518.766 31.6007 518.985 32.694C519.258 33.7873 519.422 34.99 519.477 36.302C519.586 37.5593 519.668 39.418 519.723 41.878C519.778 44.2833 519.887 47.536 520.051 51.636C520.215 55.6813 520.242 58.196 520.133 59.18C520.078 60.164 519.723 60.902 519.067 61.394C518.466 61.9407 517.919 62.05 517.427 61.722C516.99 61.4487 516.525 61.2573 516.033 61.148C515.158 61.148 514.393 60.7927 513.737 60.082C513.518 60.0273 512.999 59.7813 512.179 59.344C511.359 58.852 510.84 57.9773 510.621 56.72C510.348 56.1733 510.266 54.3967 510.375 51.39V48.438L510.785 45.65V43.764ZM536.087 50.324C536.579 49.176 537.098 47.8367 537.645 46.306L539.449 41.714L540.187 40.32C529.09 53.44 529.199 53.3033 540.515 39.91L542.647 35.482C542.811 35.318 542.948 34.9627 543.057 34.416L545.189 31.218L546.829 29.742C547.157 29.578 547.512 29.3047 547.895 28.922C548.004 29.0313 548.442 28.922 549.207 28.594C549.699 28.594 550.683 28.676 552.159 28.84L553.799 29.414L557.489 31.628C558.254 32.3933 558.582 33.2133 558.473 34.088C558.418 34.744 558.118 36.548 557.571 39.5C557.134 41.8507 556.505 44.5567 555.685 47.618C555.248 50.078 555.111 51.8547 555.275 52.948C555.439 54.0413 555.521 54.67 555.521 54.834C555.63 55.162 555.767 55.6267 555.931 56.228C556.15 56.8293 556.204 57.1573 556.095 57.212C556.478 57.2667 556.669 57.54 556.669 58.032C557.106 59.18 557.243 59.9453 557.079 60.328C556.97 60.7653 556.614 61.23 556.013 61.722C555.466 62.214 554.455 62.46 552.979 62.46C552.104 62.3507 551.394 62.296 550.847 62.296C550.355 62.296 549.726 62.1047 548.961 61.722C547.376 60.574 546.474 59.3987 546.255 58.196C545.982 57.4307 545.818 56.8567 545.763 56.474C545.708 56.0913 545.681 55.818 545.681 55.654C545.408 54.014 545.435 52.3193 545.763 50.57C545.818 49.914 546.064 48.5747 546.501 46.552C546.938 44.4747 547.376 42.8347 547.813 41.632C547.813 40.4293 547.786 39.8007 547.731 39.746L544.533 45.978C544.205 46.8527 543.904 47.5087 543.631 47.946C543.358 48.2193 543.221 48.5473 543.221 48.93C542.784 49.3673 542.374 50.242 541.991 51.554C541.991 51.9367 541.964 52.21 541.909 52.374C541.854 52.538 541.636 52.948 541.253 53.604C540.925 54.2053 540.679 54.7793 540.515 55.326C540.406 55.8727 540.078 56.474 539.531 57.13C539.531 57.3487 539.176 58.4693 538.465 60.492C538.41 60.7107 537.836 60.902 536.743 61.066L535.185 60.902C534.802 60.7927 533.9 60.5193 532.479 60.082C531.058 59.6447 530.265 59.426 530.101 59.426C529.992 59.426 529.882 59.3713 529.773 59.262C528.844 59.0433 528.27 58.278 528.051 56.966V55.654C528.324 55.326 528.352 54.6973 528.133 53.768C528.242 53.2213 528.324 52.5927 528.379 51.882C528.215 51.7727 528.188 51.5813 528.297 51.308C528.406 49.5587 528.461 48.3287 528.461 47.618V45.65C528.57 43.846 528.707 41.9053 528.871 39.828C529.035 37.7507 529.117 36.4113 529.117 35.81V34.17C529.008 33.8967 528.98 33.268 529.035 32.284C528.926 31.2453 528.789 30.6167 528.625 30.398C528.461 30.1247 528.406 29.742 528.461 29.25L529.035 27.856C529.91 27.1453 531.386 27.0087 533.463 27.446C534.392 27.61 535.677 28.1567 537.317 29.086C537.426 29.25 537.7 29.6053 538.137 30.152C538.465 30.152 538.656 30.6167 538.711 31.546C538.656 32.038 538.629 32.448 538.629 32.776C538.574 32.8307 538.274 34.088 537.727 36.548C536.524 44.1467 535.923 48.274 535.923 48.93C535.923 49.586 535.978 50.0507 536.087 50.324ZM574.94 44.01L575.104 47.208L575.678 48.766L576.498 50.406C576.662 51.554 577.209 52.2373 578.138 52.456C578.794 52.5653 579.423 52.21 580.024 51.39C580.352 51.1167 580.598 50.9253 580.762 50.816C581.09 50.5427 581.254 49.9413 581.254 49.012C581.254 48.028 581.336 47.2353 581.5 46.634C581.446 46.3607 581.473 45.404 581.582 43.764C581.746 42.0693 581.883 40.7847 581.992 39.91C582.156 38.9807 582.211 38.352 582.156 38.024C581.774 37.532 581.418 36.5207 581.09 34.99C579.997 33.8967 579.259 33.2953 578.876 33.186C577.674 32.7487 576.936 32.694 576.662 33.022C576.28 33.4047 575.87 35.2087 575.432 38.434C575.104 38.9807 574.94 39.6913 574.94 40.566C574.995 41.386 574.995 42.0147 574.94 42.452V44.01ZM590.192 41.796C590.411 44.5293 590.52 46.6613 590.52 48.192L590.602 49.258L590.438 54.26C590.438 55.0253 590.411 55.736 590.356 56.392V57.704L590.028 59.836V60.656C590.028 62.6787 589.099 65.5487 587.24 69.266C586.584 70.6327 585.573 72.0267 584.206 73.448C581.91 75.908 579.095 77.1927 575.76 77.302C572.972 77.302 570.922 76.728 569.61 75.58L568.79 75.17C568.134 74.842 567.396 73.8033 566.576 72.054C566.576 71.89 566.44 71.5347 566.166 70.988C566.166 70.2227 566.33 69.6213 566.658 69.184C566.877 68.7467 567.615 68.364 568.872 68.036C569.419 67.9267 570.43 68.4733 571.906 69.676C573 70.8787 574.284 71.5073 575.76 71.562C577.291 71.7807 578.466 71.07 579.286 69.43C580.106 67.79 580.735 65.6033 581.172 62.87C581.391 61.8313 581.5 60.656 581.5 59.344C581.5 58.032 581.446 57.1573 581.336 56.72C579.86 57.4853 578.548 57.8133 577.4 57.704H576.662C576.225 57.8133 575.569 57.8133 574.694 57.704C573.82 57.54 573 57.1847 572.234 56.638L570.676 55.572C570.731 55.6267 570.704 55.654 570.594 55.654L570.184 55.408L569.036 54.506C568.544 54.2327 568.298 53.7133 568.298 52.948C567.916 52.7293 567.642 52.456 567.478 52.128C567.041 51.964 566.822 51.5813 566.822 50.98L566.412 49.34C566.412 49.0667 566.276 48.3833 566.002 47.29C565.729 46.8527 565.647 46.4153 565.756 45.978C565.92 45.5407 566.002 45.1853 566.002 44.912L566.248 42.124V41.55C566.084 41.386 566.084 40.8667 566.248 39.992C566.412 39.664 566.494 39.418 566.494 39.254C566.822 37.5047 567.068 36.4113 567.232 35.974C567.396 35.482 567.506 34.9353 567.56 34.334C567.67 33.7327 567.888 33.186 568.216 32.694L569.036 30.808C569.364 30.2067 570.239 29.3593 571.66 28.266C572.207 27.7193 572.89 27.364 573.71 27.2L576.006 27.364L578.384 27.938C578.439 27.938 579.45 28.348 581.418 29.168C581.418 28.1293 581.938 27.2547 582.976 26.544C583.414 26.1067 584.37 26.0793 585.846 26.462H586.584C587.186 26.4073 587.842 26.6533 588.552 27.2C588.88 27.5827 589.236 28.4573 589.618 29.824C590.001 34.908 590.192 38.8987 590.192 41.796Z" fill="#6664D3"/>
</svg>
