<svg width="573" height="333" viewBox="0 0 573 333" fill="none" xmlns="http://www.w3.org/2000/svg">
<path d="M144.371 322.776C239.94 334.884 463.748 335.079 525.707 328.353C550.434 325.669 556.963 321.059 566.561 314.288C571.18 311.029 571.842 308.401 572.235 306.599C573.587 300.467 574.261 297.401 564.295 295.315C535.749 289.344 436.586 287.02 372.491 286.912C368.016 286.904 363.504 286.907 358.952 286.921C283.902 287.142 199.214 290.237 146.983 296.849C141.523 297.54 136.482 298.261 131.886 299.01C84.2103 306.775 92.233 316.171 144.371 322.776Z" fill="#FCBD49"/>
<g clip-path="url(#clip0_353_345)">
<path d="M272.568 0.526855H270.717C267.887 1.32239 265.751 3.52477 264.16 5.92534C264.11 6.0035 264.04 6.05654 263.951 6.08445C259.102 7.64203 253.157 11.3908 254.963 17.5011C255.093 17.9421 255.219 18.3822 255.34 18.8214C255.366 18.9126 255.335 18.9749 255.247 19.0084C252.124 20.1892 251.203 23.0029 251.733 26.0762C251.75 26.1673 251.717 26.2334 251.635 26.2743C242.625 30.788 251.219 47.0616 254.589 52.608C255.845 52.809 256.326 53.572 256.032 54.8969C257.158 56.7002 258.376 58.3787 259.686 59.9326C259.762 60.0219 259.824 60.0126 259.873 59.9046L260.598 58.2577L261.293 56.4796C261.303 56.4238 261.306 56.3643 261.302 56.301C261.3 56.247 261.28 56.194 261.24 56.1419C259.655 53.9721 258.466 51.6013 257.673 49.0295C257.66 48.9886 257.637 48.956 257.603 48.9318C257.538 48.8834 257.511 48.8797 257.522 48.9206C249.732 49.8446 248.995 38.9443 256.275 38.5424C256.431 38.5498 256.519 38.4307 256.54 38.1851C256.903 33.7022 258.297 29.6491 260.724 26.0259C266.29 17.7188 276.498 14.5423 285.185 20.3874C289.5 23.2932 292.512 27.9855 293.961 32.9959C295.262 30.4809 299.376 21.9003 296.772 19.6281C296.701 19.5667 296.693 19.4979 296.749 19.4216C302.927 11.1898 292.342 8.69158 286.927 7.90721C286.837 7.89418 286.793 7.84301 286.795 7.75368C286.862 4.81159 285.975 2.42498 283.13 1.55966C280.797 0.847862 278.125 1.60153 275.876 2.31053C275.834 2.32395 275.789 2.32556 275.746 2.31521C275.704 2.30485 275.666 2.28293 275.635 2.25192C274.783 1.38101 273.761 0.805991 272.568 0.526855Z" fill="black"/>
<path d="M404.429 36.1359C406.26 37.66 408.404 39.5972 409.579 41.7075C409.624 41.7894 409.638 41.8759 409.621 41.9671L407.215 54.9497C407.159 55.1265 407.165 55.266 407.234 55.3684L419.949 69.8918C419.985 69.9334 420.031 69.9659 420.082 69.9868C420.134 70.0076 420.189 70.0162 420.245 70.0119L431.678 69.1549C431.79 69.1456 431.82 69.1912 431.77 69.2917L424.462 83.3685C424.451 83.3896 424.436 83.4081 424.417 83.4231C424.398 83.4381 424.377 83.4491 424.354 83.4556C424.331 83.4621 424.306 83.4639 424.282 83.461C424.258 83.458 424.235 83.4503 424.214 83.4383C414.623 77.8667 407.446 68.2896 407.187 56.8729C404.714 57.7569 402.473 59.0586 400.465 60.778C397.365 63.4317 394.561 66.3738 392.055 69.6043C388.683 73.9495 385.952 77.9868 383.862 81.716C383.268 82.7749 382.65 84.3371 382.006 86.4027C379.868 93.2667 378.84 100.438 378.143 107.578C377.64 112.708 377.28 117.849 377.062 123C376.355 139.767 376.389 156.567 377.163 173.401C377.165 173.451 377.183 173.5 377.214 173.54C377.245 173.58 377.287 173.611 377.336 173.627L380.197 174.579C390.377 177.566 400.351 179.012 410.977 178.671C412.046 178.638 413.112 178.621 414.176 178.621C417.826 178.429 421.458 178.054 425.074 177.496C418.611 173.78 412.83 169.489 407.731 164.625C397.812 155.166 389.472 144.48 382.709 132.566C382.703 132.556 382.7 132.545 382.699 132.533C382.697 132.521 382.698 132.51 382.702 132.498C382.705 132.487 382.711 132.477 382.718 132.468C382.726 132.459 382.735 132.451 382.746 132.446L404.621 120.904C404.696 120.863 404.744 120.884 404.767 120.968C406.054 125.73 408.038 130.245 410.718 134.512C418.14 146.333 428.253 156.672 438.989 165.462C439.061 165.52 439.141 165.535 439.229 165.507C442.712 164.392 446.18 163.288 449.632 162.194C450.149 162.03 450.83 161.758 451.673 161.379L452.437 157.035L448.979 156.435C448.963 156.432 448.947 156.427 448.933 156.418C448.919 156.409 448.907 156.397 448.898 156.384C448.889 156.37 448.882 156.355 448.879 156.339C448.875 156.323 448.875 156.306 448.878 156.29L450.679 147.279C450.696 147.196 450.747 147.153 450.832 147.151L451.427 147.132L453.493 146.981C452.434 141.819 451.213 136.679 449.83 131.561L447.123 122.213C447.097 122.122 447.111 122.038 447.165 121.962L459.234 105.018L461.713 101.348C461.758 101.283 461.755 101.218 461.705 101.155L436.613 68.8981C436.605 68.888 436.6 68.876 436.599 68.8634C436.597 68.8508 436.599 68.838 436.604 68.8265C436.609 68.815 436.616 68.8052 436.627 68.7981C436.637 68.7911 436.648 68.787 436.661 68.7865L444.446 68.1975C444.556 68.19 444.631 68.1351 444.672 68.0328L452.535 48.6831C452.572 48.5938 452.55 48.523 452.468 48.4709L450.556 47.2232L446.556 44.9371C446.476 44.8906 446.391 44.8822 446.302 44.912C437.992 47.6614 429.526 46.5449 421.381 43.8764C418.446 42.9161 415.502 41.9615 412.549 41.0124C412.469 40.9882 412.434 40.9343 412.446 40.8505L413.744 31.5749C413.758 31.4806 413.802 31.3936 413.869 31.3264L428.557 16.8448C428.632 16.7704 428.717 16.7527 428.814 16.7918C435.562 19.5646 442.32 22.3475 449.088 25.1408C449.61 25.3557 450.009 25.2859 450.567 25.3055C450.67 25.3073 450.721 25.3604 450.721 25.4646L450.693 35.667L454.539 24.7304C454.555 24.6866 454.58 24.6467 454.612 24.6135C454.645 24.5803 454.683 24.5545 454.726 24.5378C458.86 22.9607 461.194 20.1442 461.144 15.5804C461.142 15.4892 461.105 15.4157 461.032 15.3598C452.962 9.12953 440.954 2.85455 430.506 4.34793C423.374 5.36678 416.323 8.0074 410.539 12.3591C409.94 12.8095 409.379 13.3007 408.856 13.833C408.547 14.1456 408.319 14.5336 408.172 14.997C406.441 20.4066 404.71 25.7986 402.977 31.1729C402.925 31.3343 402.925 31.5074 402.977 31.667L404.429 36.1359ZM431.929 55.614C429.434 55.0921 427.271 53.942 425.272 52.323C425.179 52.2476 425.061 52.2099 424.941 52.2171C424.821 52.2243 424.708 52.276 424.624 52.3621L424.543 52.4431C424.234 52.7594 424.25 53.0581 424.591 53.3391C426.582 54.9804 428.756 56.0923 431.114 56.6747C432.292 56.9669 434.142 57.1176 436.663 57.1269C438.634 57.1344 440.604 57.1335 442.573 57.1242C442.588 57.1239 442.604 57.1275 442.618 57.1348C442.632 57.142 442.644 57.1526 442.653 57.1656C442.662 57.1787 442.667 57.1937 442.669 57.2093C442.67 57.225 442.668 57.2408 442.662 57.2554L440.99 61.3196C440.968 61.372 440.933 61.418 440.888 61.4535C440.844 61.4891 440.792 61.5131 440.736 61.5233C437.819 62.0565 434.656 61.5708 431.79 60.979C429.823 60.5715 428.333 60.1853 427.321 59.8206C422.16 57.9588 418.718 52.5603 417.64 47.4046C417.638 47.397 417.639 47.3891 417.641 47.3817C417.644 47.3743 417.649 47.3677 417.655 47.3628C417.661 47.3578 417.669 47.3547 417.677 47.3537C417.686 47.3527 417.694 47.3539 417.702 47.3572C426.12 51.3516 435.963 52.1918 445.099 51.0055C445.114 51.0034 445.128 51.0052 445.142 51.0108C445.156 51.0163 445.168 51.0253 445.177 51.0369C445.186 51.0485 445.192 51.0623 445.194 51.0769C445.196 51.0914 445.194 51.1063 445.188 51.1199L443.265 55.7899C443.228 55.8773 443.162 55.922 443.067 55.9239C440.869 55.935 438.674 55.935 436.482 55.9239C434.385 55.9127 432.867 55.8094 431.929 55.614ZM413.459 106.609C415.234 104.346 414.327 101.417 414.682 98.8466C414.997 96.5633 415.832 93.0322 418.651 92.6777C420.736 92.4181 423.368 94.1041 424.806 95.5668C424.825 95.5864 424.849 95.6006 424.875 95.6081C424.902 95.6155 424.93 95.6158 424.956 95.609C424.983 95.6022 425.007 95.5886 425.027 95.5694C425.046 95.5502 425.061 95.5262 425.068 95.4998C426.601 89.9198 431.377 86.1096 437.124 89.5374C437.215 89.5914 437.266 89.6714 437.278 89.7775L440.306 115.804C440.319 115.918 440.269 115.97 440.155 115.96L404.845 112.912C404.774 112.907 404.75 112.87 404.772 112.803C405.813 109.574 408.778 103.126 413.227 106.637C413.315 106.704 413.392 106.695 413.459 106.609Z" fill="#231F20"/>
<path d="M450.556 47.223L450.693 35.6668L450.721 25.4644C450.721 25.3602 450.67 25.3071 450.567 25.3053C450.009 25.2857 449.61 25.3555 449.088 25.1406C442.32 22.3474 435.562 19.5644 428.814 16.7916C428.717 16.7526 428.632 16.7702 428.557 16.8447L413.869 31.3262C413.802 31.3934 413.758 31.4805 413.744 31.5747L412.446 40.8504C412.435 40.9341 412.469 40.9881 412.549 41.0122C415.502 41.9613 418.446 42.916 421.381 43.8762C429.526 46.5447 437.992 47.6613 446.302 44.9118C446.391 44.882 446.476 44.8904 446.556 44.9369L450.556 47.223ZM423.424 29.4142C425.816 26.7261 429.772 25.8915 432.035 29.3472C433.038 30.8768 431.165 32.2083 430.101 30.8768C428.53 28.9033 427.137 29.1769 425.032 31.2146C424.855 31.3853 424.621 31.483 424.375 31.4882C424.13 31.4934 423.892 31.4056 423.709 31.2425L423.522 31.0778C423.406 30.9749 423.311 30.8501 423.244 30.7107C423.176 30.5713 423.137 30.42 423.128 30.2654C423.119 30.1109 423.14 29.9561 423.191 29.8101C423.242 29.664 423.321 29.5294 423.424 29.4142ZM441.144 30.7345C443.321 27.9375 447.34 27.2146 449.652 30.3353C450.35 31.2788 450.26 32.6745 448.789 32.6605C448.462 32.6568 448.227 32.5591 448.086 32.3674C446.283 29.9361 444.87 30.5195 442.905 32.3507C442.393 32.8252 441.878 32.8308 441.359 32.3674L441.286 32.3004C441.069 32.1059 440.933 31.8361 440.906 31.5455C440.88 31.2549 440.965 30.965 441.144 30.7345ZM439.153 35.9431C445.177 38.5698 441.186 47.1365 435.514 44.4177C431.603 42.5419 432.309 37.0346 436.396 35.8092C436.489 35.7812 436.551 35.7208 436.583 35.6277L437.883 31.6612C438.133 30.9057 438.638 30.6405 439.399 30.8657L439.703 30.9578C439.825 30.9936 439.939 31.0537 440.037 31.1343C440.135 31.2148 440.216 31.3144 440.275 31.4269C440.333 31.5394 440.369 31.6626 440.379 31.7892C440.39 31.9158 440.374 32.0431 440.334 32.1636L439.109 35.8427C439.103 35.8624 439.104 35.8835 439.112 35.9021C439.12 35.9206 439.135 35.9352 439.153 35.9431ZM424.421 35.932L424.379 35.8203C424.338 35.7093 424.339 35.5872 424.382 35.4771C424.426 35.367 424.508 35.2765 424.613 35.223C426.425 34.2907 429.741 33.1015 431.449 35.0415C431.929 35.5858 431.684 36.6019 430.813 36.2279C430.727 36.1906 430.662 36.1311 430.617 36.0492C429.738 34.4358 426.737 35.53 425.225 36.2586C424.837 36.4447 424.57 36.3358 424.421 35.932ZM443.687 36.3786C446.009 35.2509 448.929 34.7708 449.49 38.0785C449.557 38.4805 449.388 38.7038 448.985 38.7485L448.851 38.7624C448.736 38.7756 448.621 38.7461 448.528 38.6796C448.434 38.6132 448.368 38.5144 448.343 38.4023C448.128 37.4756 447.782 36.7415 446.846 36.7275C446.039 36.7164 445.138 36.9797 444.144 37.5175C444.039 37.5738 443.916 37.5878 443.801 37.5567C443.685 37.5255 443.587 37.4516 443.525 37.35L443.441 37.2104C443.398 37.1404 443.371 37.0623 443.36 36.9811C443.35 36.8999 443.356 36.8175 443.379 36.7391C443.403 36.6607 443.442 36.5882 443.495 36.5261C443.548 36.464 443.613 36.4137 443.687 36.3786Z" fill="#F3852F"/>
<path d="M256.275 38.5422C256.387 38.6706 256.465 38.7711 256.454 38.9553C256.247 42.264 256.608 45.5066 257.537 48.6832C257.55 48.7279 257.545 48.807 257.523 48.9205C257.511 48.8795 257.538 48.8833 257.604 48.9316C257.637 48.9558 257.66 48.9884 257.673 49.0293C258.466 51.6011 259.655 53.9719 261.241 56.1417C261.28 56.1938 261.3 56.2469 261.302 56.3008C261.306 56.3641 261.303 56.4236 261.294 56.4795L261.403 56.4906C261.488 56.5018 261.557 56.5418 261.609 56.6107C266.131 62.587 273.252 65.4146 280.621 63.2681C285.95 61.5011 290.034 57.4313 292.406 52.4208C295.281 46.3496 295.787 39.6001 293.961 32.9958C292.512 27.9853 289.5 23.293 285.185 20.3872C276.498 14.5421 266.29 17.7187 260.724 26.0257C258.298 29.6489 256.903 33.702 256.54 38.1849C256.52 38.4305 256.431 38.5496 256.275 38.5422ZM288.071 27.3014C287.094 26.1318 284.498 23.9741 282.991 25.4228C282.907 25.5028 282.824 25.5019 282.743 25.42L282.112 24.7864C282.024 24.6989 282.027 24.6142 282.12 24.5324C284.367 22.5673 287.418 24.6022 289.006 26.4975C289.013 26.5055 289.018 26.5148 289.021 26.5247C289.024 26.5347 289.025 26.5453 289.024 26.5557C289.023 26.5661 289.02 26.5762 289.015 26.5854C289.01 26.5946 289.003 26.6026 288.995 26.6091L288.18 27.3098C288.141 27.3433 288.105 27.3405 288.071 27.3014ZM272.222 27.3823C270.128 26.5059 268.035 27.1842 266.357 28.5882C266.349 28.5952 266.34 28.6005 266.33 28.6039C266.32 28.6073 266.309 28.6086 266.298 28.6078C266.288 28.607 266.277 28.6042 266.268 28.5994C266.258 28.5946 266.25 28.5879 266.243 28.5798L265.545 27.7508C265.517 27.7173 265.52 27.6866 265.553 27.6587C267.572 25.9085 270.388 25.1716 272.856 26.3244C272.958 26.3728 272.979 26.4445 272.92 26.5394L272.451 27.3098C272.395 27.3991 272.319 27.4233 272.222 27.3823ZM285.36 35.5275C285.136 35.5271 284.915 35.4666 284.708 35.3494C284.502 35.2322 284.314 35.0606 284.157 34.8444C283.999 34.6282 283.874 34.3717 283.789 34.0894C283.704 33.8072 283.66 33.5047 283.661 33.1994C283.661 32.894 283.706 32.5917 283.792 32.3098C283.878 32.0278 284.004 31.7717 284.162 31.5561C284.321 31.3404 284.509 31.1695 284.716 31.053C284.923 30.9365 285.144 30.8767 285.368 30.8771C285.591 30.8775 285.813 30.938 286.019 31.0553C286.225 31.1725 286.413 31.3441 286.571 31.5603C286.728 31.7764 286.853 32.033 286.938 32.3152C287.023 32.5975 287.067 32.8999 287.066 33.2053C287.066 33.5106 287.021 33.8129 286.935 34.0949C286.849 34.3768 286.723 34.6329 286.565 34.8486C286.406 35.0642 286.218 35.2352 286.012 35.3517C285.805 35.4682 285.583 35.5279 285.36 35.5275ZM268.822 35.5275C268.37 35.5275 267.937 35.2826 267.618 34.8465C267.299 34.4104 267.119 33.819 267.119 33.2023C267.119 32.5856 267.299 31.9942 267.618 31.5582C267.937 31.1221 268.37 30.8771 268.822 30.8771C269.274 30.8771 269.707 31.1221 270.026 31.5582C270.345 31.9942 270.525 32.5856 270.525 33.2023C270.525 33.819 270.345 34.4104 270.026 34.8465C269.707 35.2826 269.274 35.5275 268.822 35.5275ZM280.445 35.5834C280.469 35.5672 280.496 35.5562 280.524 35.5512C280.552 35.5462 280.581 35.5474 280.609 35.5545C280.637 35.5616 280.663 35.5746 280.685 35.5926C280.707 35.6106 280.725 35.6331 280.738 35.6587L283.655 41.4787C283.667 41.5022 283.675 41.5278 283.677 41.5541C283.679 41.5804 283.676 41.6069 283.668 41.632C283.66 41.6572 283.647 41.6805 283.63 41.7006C283.613 41.7208 283.592 41.7374 283.569 41.7495L275.862 45.7048C275.818 45.7273 275.767 45.7326 275.719 45.7197C275.671 45.7068 275.629 45.6767 275.602 45.635L272.722 41.1744C272.692 41.1306 272.682 41.0771 272.692 41.0254C272.702 40.9738 272.731 40.9281 272.775 40.8981L280.445 35.5834ZM268.962 46.5227C267.722 46.2575 266.374 46.104 265.916 47.3992C265.771 47.8039 265.559 48.0161 265.123 47.8653C264.987 47.8191 264.872 47.7263 264.797 47.6032C264.723 47.4802 264.694 47.3348 264.716 47.1926C265.037 45.1354 267.429 44.82 269.188 45.3699C269.261 45.3927 269.328 45.4298 269.387 45.4791C269.445 45.5283 269.493 45.5887 269.527 45.6566C269.562 45.7245 269.583 45.7986 269.588 45.8744C269.593 45.9503 269.584 46.0265 269.559 46.0984L269.525 46.2017C269.487 46.3149 269.408 46.4102 269.305 46.4693C269.201 46.5285 269.079 46.5475 268.962 46.5227ZM267.32 47.1535L282.162 49.5206C282.413 49.5597 282.433 49.649 282.221 49.7886C277.012 53.208 271.161 51.9268 267.242 47.2931C267.144 47.1759 267.17 47.1293 267.32 47.1535Z" fill="#F3852F"/>
<path d="M282.991 25.4224C284.498 23.9737 287.094 26.1314 288.071 27.301C288.105 27.3401 288.141 27.3428 288.18 27.3094L288.995 26.6087C289.003 26.6022 289.01 26.5941 289.015 26.585C289.02 26.5758 289.023 26.5657 289.024 26.5553C289.025 26.5448 289.024 26.5343 289.021 26.5243C289.018 26.5143 289.013 26.5051 289.006 26.4971C287.418 24.6017 284.367 22.5668 282.12 24.5319C282.027 24.6138 282.024 24.6985 282.112 24.786L282.743 25.4196C282.824 25.5015 282.907 25.5024 282.991 25.4224Z" fill="white"/>
<path d="M266.357 28.5881C268.035 27.184 270.128 26.5057 272.222 27.3822C272.319 27.4232 272.395 27.399 272.451 27.3097L272.92 26.5392C272.979 26.4443 272.958 26.3727 272.856 26.3243C270.388 25.1715 267.572 25.9084 265.553 27.6586C265.52 27.6865 265.517 27.7172 265.545 27.7507L266.243 28.5797C266.25 28.5878 266.258 28.5944 266.268 28.5992C266.277 28.604 266.288 28.6069 266.298 28.6077C266.309 28.6085 266.32 28.6071 266.33 28.6038C266.34 28.6004 266.349 28.5951 266.357 28.5881Z" fill="white"/>
<path d="M432.035 29.3471C429.772 25.8914 425.816 26.726 423.424 29.4141C423.321 29.5293 423.242 29.6639 423.191 29.81C423.14 29.956 423.118 30.1108 423.127 30.2653C423.137 30.4199 423.176 30.5712 423.244 30.7106C423.311 30.85 423.406 30.9748 423.522 31.0777L423.709 31.2424C423.892 31.4055 424.13 31.4933 424.375 31.4881C424.62 31.4829 424.855 31.3852 425.032 31.2145C427.136 29.1768 428.529 28.9032 430.101 30.8767C431.164 32.2082 433.037 30.8767 432.035 29.3471Z" fill="#231F20"/>
<path d="M449.652 30.3352C447.341 27.2145 443.321 27.9374 441.144 30.7344C440.965 30.9649 440.88 31.2548 440.907 31.5454C440.933 31.836 441.069 32.1058 441.286 32.3003L441.359 32.3673C441.878 32.8307 442.393 32.8251 442.905 32.3506C444.87 30.5194 446.283 29.936 448.086 32.3673C448.227 32.559 448.462 32.6567 448.789 32.6604C450.26 32.6744 450.35 31.2787 449.652 30.3352Z" fill="#231F20"/>
<path d="M439.153 35.9435C439.135 35.9356 439.12 35.921 439.112 35.9024C439.104 35.8839 439.103 35.8627 439.109 35.843L440.334 32.164C440.374 32.0435 440.389 31.9161 440.379 31.7895C440.369 31.663 440.333 31.5397 440.274 31.4272C440.216 31.3147 440.135 31.2152 440.037 31.1346C439.938 31.054 439.825 30.994 439.703 30.9581L439.399 30.866C438.638 30.6408 438.133 30.906 437.883 31.6615L436.582 35.6281C436.551 35.7211 436.489 35.7816 436.395 35.8095C432.309 37.0349 431.603 42.5423 435.513 44.418C441.185 47.1368 445.177 38.5701 439.153 35.9435ZM437.216 40.2924C437.216 39.8801 437.38 39.4846 437.672 39.193C437.963 38.9014 438.359 38.7376 438.771 38.7376C439.183 38.7376 439.579 38.9014 439.87 39.193C440.162 39.4846 440.326 39.8801 440.326 40.2924C440.326 40.7048 440.162 41.1002 439.87 41.3918C439.579 41.6834 439.183 41.8472 438.771 41.8472C438.359 41.8472 437.963 41.6834 437.672 41.3918C437.38 41.1002 437.216 40.7048 437.216 40.2924Z" fill="#F36A22"/>
<path d="M287.066 33.2053C287.064 34.4894 286.3 35.5291 285.359 35.5275C284.419 35.5258 283.658 34.4835 283.661 33.1993C283.663 31.9151 284.427 30.8754 285.368 30.8771C286.308 30.8787 287.068 31.9211 287.066 33.2053Z" fill="#231F20"/>
<path d="M270.525 33.2024C270.525 34.4865 269.762 35.5276 268.822 35.5276C267.881 35.5276 267.119 34.4865 267.119 33.2024C267.119 31.9182 267.881 30.8772 268.822 30.8772C269.762 30.8772 270.525 31.9182 270.525 33.2024Z" fill="#231F20"/>
<path d="M425.225 36.2588C426.738 35.5302 429.738 34.436 430.618 36.0494C430.662 36.1313 430.727 36.1908 430.813 36.2281C431.684 36.6021 431.929 35.586 431.449 35.0417C429.741 33.1017 426.425 34.2908 424.613 35.2232C424.508 35.2767 424.426 35.3671 424.383 35.4773C424.339 35.5874 424.338 35.7095 424.379 35.8205L424.421 35.9322C424.57 36.336 424.838 36.4448 425.225 36.2588Z" fill="#231F20"/>
<path d="M443.686 36.3787C443.613 36.4138 443.548 36.4641 443.495 36.5262C443.442 36.5883 443.402 36.6608 443.379 36.7392C443.356 36.8176 443.35 36.9 443.36 36.9812C443.371 37.0624 443.398 37.1405 443.441 37.2105L443.525 37.3501C443.586 37.4517 443.685 37.5256 443.8 37.5568C443.916 37.5879 444.039 37.5739 444.144 37.5176C445.138 36.9798 446.039 36.7164 446.846 36.7276C447.781 36.7416 448.127 37.4757 448.342 38.4024C448.368 38.5145 448.434 38.6133 448.527 38.6797C448.621 38.7462 448.736 38.7757 448.85 38.7625L448.984 38.7486C449.388 38.7039 449.557 38.4806 449.49 38.0786C448.929 34.7709 446.009 35.251 443.686 36.3787Z" fill="#231F20"/>
<path d="M280.445 35.5832L272.774 40.898C272.731 40.9279 272.701 40.9736 272.691 41.0253C272.681 41.077 272.692 41.1305 272.721 41.1743L275.602 45.6349C275.629 45.6765 275.67 45.7067 275.718 45.7196C275.766 45.7325 275.817 45.7272 275.862 45.7047L283.568 41.7493C283.592 41.7372 283.613 41.7206 283.63 41.7005C283.647 41.6803 283.66 41.657 283.668 41.6319C283.676 41.6067 283.679 41.5803 283.677 41.554C283.674 41.5276 283.667 41.502 283.655 41.4786L280.738 35.6586C280.725 35.633 280.707 35.6104 280.685 35.5925C280.662 35.5745 280.636 35.5615 280.609 35.5544C280.581 35.5472 280.552 35.5461 280.524 35.5511C280.495 35.5561 280.469 35.567 280.445 35.5832ZM279.984 39.7814C279.984 39.4498 280.116 39.1317 280.351 38.8972C280.585 38.6626 280.903 38.5309 281.235 38.5309C281.567 38.5309 281.885 38.6626 282.119 38.8972C282.354 39.1317 282.485 39.4498 282.485 39.7814C282.485 40.1131 282.354 40.4312 282.119 40.6657C281.885 40.9002 281.567 41.032 281.235 41.032C281.071 41.032 280.908 40.9996 280.756 40.9368C280.605 40.8739 280.467 40.7818 280.351 40.6657C280.235 40.5496 280.142 40.4117 280.08 40.26C280.017 40.1083 279.984 39.9456 279.984 39.7814Z" fill="#F36A22"/>
<path d="M404.429 36.1361C401.71 36.0021 399.34 37.5653 398.503 40.1138C396.767 45.3867 402.051 50.6902 407.26 48.6693C407.275 48.6633 407.292 48.6612 407.308 48.6633C407.325 48.6653 407.341 48.6715 407.354 48.6812C407.368 48.6909 407.379 48.7038 407.386 48.7188C407.393 48.7338 407.397 48.7503 407.396 48.767L407.215 54.9498L409.621 41.9672C409.638 41.8761 409.624 41.7895 409.579 41.7076C408.404 39.5974 406.26 37.6602 404.429 36.1361Z" fill="#F37829"/>
<path d="M281.235 41.0324C280.544 41.0324 279.984 40.4725 279.984 39.7818C279.984 39.0912 280.544 38.5313 281.235 38.5313C281.926 38.5313 282.485 39.0912 282.485 39.7818C282.485 40.4725 281.926 41.0324 281.235 41.0324Z" fill="#F3852F"/>
<path d="M256.275 38.5419C248.995 38.9438 249.732 49.8441 257.523 48.9201C257.545 48.8066 257.55 48.7275 257.537 48.6829C256.608 45.5063 256.247 42.2637 256.454 38.955C256.465 38.7708 256.387 38.6703 256.275 38.5419Z" fill="#F36A22"/>
<path d="M438.771 41.8472C437.912 41.8472 437.216 41.1511 437.216 40.2924C437.216 39.4337 437.912 38.7376 438.771 38.7376C439.63 38.7376 440.326 39.4337 440.326 40.2924C440.326 41.1511 439.63 41.8472 438.771 41.8472Z" fill="#DFE6CD"/>
<path d="M265.916 47.3989C266.374 46.1037 267.722 46.2572 268.961 46.5224C269.078 46.5472 269.2 46.5282 269.304 46.4691C269.408 46.4099 269.487 46.3147 269.525 46.2014L269.559 46.0981C269.583 46.0262 269.593 45.9501 269.588 45.8742C269.582 45.7983 269.562 45.7242 269.527 45.6563C269.493 45.5884 269.445 45.5281 269.386 45.4788C269.328 45.4296 269.261 45.3924 269.188 45.3696C267.429 44.8197 265.037 45.1351 264.716 47.1923C264.694 47.3345 264.723 47.4799 264.797 47.603C264.872 47.726 264.987 47.8188 265.123 47.8651C265.559 48.0158 265.771 47.8037 265.916 47.3989Z" fill="#F36A22"/>
<path d="M282.162 49.5207L267.32 47.1537C267.169 47.1295 267.143 47.176 267.242 47.2932C271.161 51.9269 277.012 53.2081 282.22 49.7887C282.432 49.6491 282.413 49.5598 282.162 49.5207Z" fill="#F36A22"/>
<path d="M425.272 52.3234C427.271 53.9424 429.434 55.0924 431.929 55.6144C432.867 55.8098 434.385 55.9131 436.482 55.9243C438.674 55.9354 440.869 55.9354 443.067 55.9243C443.162 55.9224 443.228 55.8777 443.265 55.7903L445.188 51.1203C445.194 51.1067 445.196 51.0918 445.194 51.0773C445.192 51.0627 445.186 51.0489 445.177 51.0373C445.168 51.0257 445.156 51.0167 445.142 51.0111C445.128 51.0056 445.114 51.0038 445.099 51.0059C435.963 52.1922 426.121 51.352 417.702 47.3576C417.694 47.3543 417.686 47.3531 417.678 47.3541C417.669 47.3551 417.662 47.3582 417.655 47.3632C417.649 47.3681 417.644 47.3746 417.641 47.382C417.639 47.3894 417.638 47.3974 417.64 47.405C418.718 52.5607 422.16 57.9592 427.321 59.821C428.333 60.1857 429.823 60.5719 431.79 60.9794C434.657 61.5712 437.819 62.0569 440.736 61.5237C440.792 61.5135 440.844 61.4895 440.888 61.4539C440.933 61.4184 440.968 61.3724 440.99 61.32L442.662 57.2557C442.668 57.2412 442.671 57.2254 442.669 57.2097C442.667 57.1941 442.662 57.179 442.653 57.166C442.644 57.153 442.632 57.1424 442.618 57.1352C442.604 57.1279 442.589 57.1243 442.573 57.1245C440.604 57.1338 438.634 57.1348 436.664 57.1273C434.142 57.118 432.292 56.9673 431.114 56.6751C428.757 56.0927 426.582 54.9808 424.591 53.3395C424.25 53.0585 424.235 52.7598 424.543 52.4434L424.624 52.3625C424.709 52.2764 424.822 52.2247 424.941 52.2175C425.061 52.2102 425.179 52.248 425.272 52.3234Z" fill="white"/>
<path d="M254.589 52.6078C251.409 52.8785 253.757 57.7299 256.032 54.8967C256.326 53.5717 255.845 52.8088 254.589 52.6078Z" fill="#6ECDE3"/>
<path d="M293.179 57.5761C292.323 57.5761 291.63 56.8825 291.63 56.0269C291.63 55.1713 292.323 54.4777 293.179 54.4777C294.035 54.4777 294.728 55.1713 294.728 56.0269C294.728 56.8825 294.035 57.5761 293.179 57.5761Z" fill="#6ECDE3"/>
<path d="M407.234 55.3687L407.187 56.8732C407.446 68.2899 414.623 77.867 424.214 83.4386C424.235 83.4506 424.258 83.4583 424.282 83.4613C424.306 83.4642 424.331 83.4624 424.354 83.4559C424.377 83.4494 424.399 83.4383 424.417 83.4234C424.436 83.4084 424.451 83.3899 424.463 83.3688L431.77 69.292C431.821 69.1915 431.79 69.1459 431.678 69.1552L420.245 70.0121C420.189 70.0165 420.134 70.0079 420.082 69.9871C420.031 69.9662 419.985 69.9337 419.949 69.8921L407.234 55.3687Z" fill="#F37829"/>
<path d="M261.294 56.4796L260.599 58.2577L259.678 66.28C266.168 70.3647 273.15 71.351 280.621 69.2389V63.2681C273.252 65.4147 266.131 62.587 261.609 56.6107C261.557 56.5419 261.488 56.5019 261.403 56.4907L261.294 56.4796Z" fill="#F36A22"/>
<path d="M259.677 66.2794L258.862 73.1825C258.777 73.9659 258.678 74.7521 258.566 75.5411C258.354 76.9982 263.627 80.9927 264.59 81.5454C269.797 84.5377 275.105 84.5163 280.515 81.4812C280.585 81.4402 280.621 81.3788 280.621 81.2969L280.632 72.5823L280.621 69.2383C273.149 71.3504 266.168 70.3641 259.677 66.2794Z" fill="#F3852F"/>
<path d="M280.632 72.5826L280.621 81.2972C280.621 81.3791 280.586 81.4405 280.515 81.4815C275.105 84.5166 269.797 84.538 264.59 81.5457C263.627 80.993 258.354 76.9985 258.566 75.5414C258.678 74.7524 258.777 73.9662 258.862 73.1828L227.457 74.6845C227.409 74.6869 227.363 74.7037 227.326 74.7327C227.289 74.7617 227.261 74.8014 227.247 74.8464L212.629 121.127C212.599 121.222 212.632 121.279 212.727 121.297L216.942 122.132L216.311 120.823C216.302 120.804 216.299 120.784 216.3 120.763C216.301 120.743 216.308 120.723 216.319 120.705C216.329 120.688 216.344 120.674 216.362 120.664C216.38 120.655 216.4 120.65 216.42 120.65H232.118C232.166 120.65 232.212 120.664 232.251 120.691C232.29 120.718 232.319 120.756 232.336 120.801L239.169 139.475C244.376 139.376 248.029 139.295 250.128 139.232C250.203 139.23 250.293 139.194 250.399 139.123L262.084 120.446C262.162 120.322 262.271 120.219 262.401 120.15C262.53 120.08 262.676 120.044 262.823 120.047L272.174 120.259C272.258 120.261 272.317 120.223 272.35 120.145L273.726 116.862C268.895 117.201 264.123 117.239 259.409 116.976C254.365 116.694 248.878 115.888 244.065 113.507C244.047 113.498 244.032 113.484 244.023 113.466C244.014 113.448 244.011 113.427 244.016 113.407C244.02 113.387 244.031 113.37 244.046 113.357C244.062 113.344 244.081 113.337 244.102 113.336C247.842 113.292 252.174 112.921 255.06 110.241C255.349 109.973 255.781 109.419 256.356 108.58C257.355 107.117 258.904 105.571 260.665 105.339C262.784 105.063 264.434 106.704 265.126 108.577C265.238 108.882 265.342 108.881 265.439 108.572C267.421 102.193 273.31 96.4292 278.901 104.089C279.008 104.165 279.088 104.138 279.141 104.008C280.223 101.412 281.308 98.8232 282.396 96.2422C282.41 96.2093 282.433 96.1815 282.463 96.1625C282.492 96.1436 282.526 96.1343 282.561 96.1361L309.819 97.409L301.503 76.6217C301.491 76.5918 301.472 76.5654 301.447 76.5449C301.422 76.5245 301.392 76.5105 301.361 76.5045L280.632 72.5826Z" fill="#231F20"/>
<path d="M513.239 83.4639H524.187C524.236 83.4639 524.276 83.5039 524.276 83.5533V89.5379C524.276 89.5873 524.236 89.6273 524.187 89.6273H513.239C513.19 89.6273 513.15 89.5873 513.15 89.5379V83.5533C513.15 83.5039 513.19 83.4639 513.239 83.4639Z" fill="#6664D3"/>
<path d="M413.227 106.637C408.778 103.126 405.813 109.574 404.772 112.803C404.75 112.87 404.774 112.907 404.845 112.912L440.155 115.96C440.269 115.97 440.319 115.918 440.306 115.804L437.277 89.7774C437.266 89.6713 437.215 89.5913 437.124 89.5374C431.377 86.1096 426.6 89.9198 425.068 95.4997C425.061 95.5261 425.046 95.5501 425.027 95.5693C425.007 95.5885 424.983 95.6022 424.956 95.609C424.93 95.6158 424.902 95.6154 424.875 95.608C424.849 95.6006 424.825 95.5863 424.806 95.5667C423.368 94.104 420.736 92.418 418.651 92.6776C415.831 93.0321 414.997 96.5632 414.681 98.8465C414.327 101.417 415.234 104.346 413.459 106.609C413.392 106.695 413.315 106.704 413.227 106.637Z" fill="white"/>
<path d="M506.275 111.832L506.392 111.916C506.461 111.964 506.538 111.994 506.623 112.005L509.504 112.354L509.521 109.945C509.521 109.854 509.566 109.808 509.658 109.808H524.1C524.199 109.808 524.249 109.857 524.251 109.956L524.296 112.223C525.576 111.339 526.951 110.912 528.421 110.941C529.076 110.956 529.732 111.083 530.389 111.321C530.391 110.506 530.368 109.723 530.319 108.973C530.199 107.075 529.454 106.227 528.103 105.032C527.335 104.357 526.956 103.689 527.229 102.676C527.433 101.934 528.103 101.495 528.491 100.831C530.844 96.8171 527.793 92.3705 523.466 91.9685C520.898 91.7303 518.334 91.7229 515.773 91.9462C514.279 92.0764 513.108 92.3249 512.259 92.6915C510.503 93.4535 508.803 94.8743 508.321 96.8283C507.827 98.8194 508.191 100.56 509.412 102.051C510.216 103.036 510.328 103.712 509.178 104.401C506.177 106.196 506.308 108.664 506.275 111.832Z" fill="#A6A5E2"/>
<path d="M278.902 104.089C278.937 104.316 278.934 104.478 278.893 104.577C277.174 108.691 275.452 112.786 273.726 116.862L272.35 120.144C272.317 120.223 272.258 120.261 272.174 120.259L262.823 120.047C262.676 120.044 262.53 120.079 262.401 120.149C262.271 120.219 262.162 120.321 262.084 120.446L250.399 139.123C250.485 139.199 250.581 139.235 250.687 139.232C253.716 139.152 256.743 139.085 259.767 139.031C278.12 139.14 296.468 139.332 314.821 139.469C316.434 139.48 318.72 139.62 320.68 139.569C320.942 139.564 321.185 139.709 321.475 139.692C322.367 139.638 323.262 139.587 324.161 139.539C322.679 139.489 321.065 139.653 319.619 139.405C299.399 135.955 279.193 132.506 259.002 129.057C258.99 129.055 258.978 129.049 258.968 129.042C258.958 129.034 258.95 129.024 258.945 129.013C258.94 129.002 258.938 128.989 258.938 128.977C258.939 128.965 258.943 128.953 258.949 128.943L263.276 122.031C263.303 121.988 263.341 121.952 263.387 121.928C263.432 121.903 263.483 121.891 263.535 121.892C268.262 122.007 273.004 122.124 277.763 122.241C283.814 122.391 289.835 122.11 295.881 122.537C296.119 122.553 296.286 122.464 296.535 122.475C310.445 123.004 324.348 123.397 338.243 123.656C338.26 123.656 338.276 123.661 338.29 123.67C338.304 123.678 338.315 123.69 338.323 123.705C338.33 123.719 338.334 123.736 338.333 123.752C338.333 123.769 338.328 123.785 338.319 123.798L328.3 139.592L330.5 139.603L332.376 136.647L340.828 123.304C340.915 123.167 340.965 123.008 340.971 122.845C340.977 122.682 340.939 122.52 340.862 122.376C340.785 122.233 340.67 122.112 340.531 122.026C340.392 121.94 340.232 121.893 340.069 121.889L321.858 121.456C321.843 121.752 321.729 121.899 321.517 121.897C313.545 121.822 305.556 121.629 297.581 121.71C293.011 121.755 288.419 121.673 283.806 121.465C283.707 121.461 283.676 121.413 283.711 121.32L290.369 102.972C290.393 102.903 290.441 102.874 290.514 102.885L318.171 107.514L321.649 98.1597C321.702 98.0145 321.652 97.9383 321.498 97.9308L309.819 97.4088L282.561 96.136C282.527 96.1342 282.492 96.1434 282.463 96.1624C282.433 96.1814 282.41 96.2092 282.396 96.242C281.308 98.8231 280.223 101.412 279.142 104.008C279.088 104.138 279.008 104.165 278.902 104.089Z" fill="#DFE6CD"/>
<path d="M273.726 116.862C275.451 112.787 277.174 108.692 278.893 104.577C278.934 104.479 278.937 104.316 278.902 104.089C273.31 96.4295 267.421 102.194 265.439 108.572C265.342 108.881 265.238 108.883 265.126 108.577C264.434 106.704 262.784 105.063 260.666 105.339C258.904 105.571 257.355 107.118 256.356 108.58C255.781 109.42 255.349 109.973 255.061 110.241C252.174 112.921 247.842 113.292 244.102 113.337C244.082 113.337 244.062 113.344 244.046 113.357C244.031 113.37 244.02 113.388 244.016 113.407C244.012 113.427 244.014 113.448 244.023 113.466C244.032 113.484 244.047 113.498 244.065 113.507C248.878 115.888 254.366 116.695 259.41 116.977C264.123 117.239 268.895 117.201 273.726 116.862Z" fill="white"/>
<path d="M321.858 121.457L326.558 109.119C326.563 109.105 326.566 109.091 326.565 109.076C326.564 109.062 326.56 109.048 326.553 109.035C326.546 109.022 326.536 109.012 326.525 109.003C326.513 108.995 326.5 108.99 326.486 108.988L318.17 107.514L290.513 102.886C290.441 102.875 290.392 102.903 290.368 102.972L283.711 121.32C283.675 121.413 283.707 121.461 283.806 121.465C288.419 121.673 293.011 121.755 297.581 121.711C305.556 121.63 313.545 121.822 321.517 121.898C321.729 121.9 321.843 121.753 321.858 121.457Z" fill="#F3852F"/>
<path d="M459.234 105.019L447.165 121.962C447.111 122.038 447.097 122.122 447.123 122.213L449.83 131.562C456.122 138.733 464.513 143.403 473.892 145.591C473.931 145.589 474.058 145.583 474.274 145.571C475.96 145.491 477.66 145.245 479.327 145.541C482.505 146.103 485.68 146.685 488.851 147.288C489.223 147.26 489.597 147.249 489.973 147.255C495.537 147.325 501.074 146.989 506.584 146.247C511.372 145.601 515.74 144.502 519.687 142.95L505.44 142.953C505.413 142.953 505.386 142.948 505.36 142.937C505.335 142.927 505.313 142.911 505.294 142.892C505.275 142.872 505.26 142.849 505.25 142.824C505.24 142.798 505.235 142.771 505.236 142.744L505.909 122.384C505.912 122.276 505.966 122.207 506.071 122.177L509.487 121.183C509.822 121.018 510.226 120.806 510.699 120.547C512.597 119.506 513.917 117.837 513.091 115.545C512.486 113.868 511.29 112.805 509.504 112.354L506.623 112.005C506.538 111.994 506.46 111.964 506.392 111.916L506.274 111.832C506.336 111.857 506.339 111.896 506.283 111.95C506.238 111.994 506.183 112.019 506.118 112.025C500.845 112.452 499.396 118.057 499.572 122.462C499.576 122.564 499.527 122.618 499.424 122.624C484.144 123.28 467.514 119.154 459.234 105.019Z" fill="#F36A22"/>
<path d="M509.504 112.354C511.29 112.804 512.486 113.868 513.091 115.545C513.917 117.836 512.597 119.505 510.699 120.547C510.226 120.805 509.822 121.017 509.487 121.183L509.523 128.069C509.523 128.17 509.574 128.22 509.674 128.22L521.155 128.212C519.938 123.025 519.422 115.826 524.295 112.223L524.251 109.956C524.249 109.858 524.199 109.808 524.1 109.808H509.657C509.566 109.808 509.521 109.854 509.521 109.945L509.504 112.354Z" fill="#6664D3"/>
<path d="M524.296 112.223C519.422 115.826 519.938 123.025 521.155 128.212C521.822 130.955 523.226 133.948 525.954 135.168C527.461 135.84 529.049 135.483 530.378 135.589L535.391 135.704C535.488 135.705 535.538 135.658 535.542 135.561L535.615 134.059V126.486C535.523 124.064 535.409 121.644 535.271 119.229C535.081 115.938 533.63 112.588 530.389 111.321C529.732 111.083 529.076 110.956 528.421 110.941C526.951 110.912 525.576 111.339 524.296 112.223Z" fill="#F36A22"/>
<path d="M216.942 122.132L227.722 145.172L231.588 153.401C232.5 155.312 233.396 157.213 234.276 159.104C234.516 159.623 234.677 160.185 234.759 160.79C235.471 166.046 236.945 171.257 239.716 175.821C239.981 176.165 240.266 176.536 240.573 176.932C244.498 181.984 253.221 182.208 256.138 175.81H249.64C249.57 175.81 249.502 175.788 249.446 175.746C249.391 175.704 249.351 175.645 249.333 175.578L246.393 164.993C246.388 164.975 246.388 164.956 246.393 164.938C246.398 164.919 246.407 164.903 246.421 164.889C246.434 164.875 246.45 164.866 246.469 164.86C246.487 164.855 246.506 164.855 246.524 164.859C248.395 165.351 251.052 165.443 252.344 163.799C255.767 159.441 246.938 154.157 244.04 152.603C243.94 152.549 243.863 152.46 243.825 152.354L239.169 139.475L232.336 120.801C232.319 120.756 232.29 120.718 232.251 120.691C232.212 120.664 232.166 120.65 232.118 120.65H216.42C216.4 120.65 216.38 120.655 216.362 120.664C216.344 120.674 216.329 120.688 216.319 120.706C216.308 120.723 216.301 120.743 216.3 120.763C216.299 120.784 216.302 120.804 216.311 120.823L216.942 122.132Z" fill="#F3852F"/>
<path d="M425.074 177.496C431.874 181.139 438.754 183.69 446.433 184.698C446.506 184.707 446.576 184.728 446.643 184.762C446.706 184.794 446.784 184.814 446.877 184.823C446.914 184.76 447.021 184.738 447.198 184.756C450.82 185.156 454.533 185.151 458.338 184.74L450.249 178.336C450.234 178.324 450.223 178.308 450.217 178.29C450.21 178.272 450.208 178.253 450.212 178.234C450.215 178.215 450.224 178.198 450.236 178.184C450.249 178.17 450.265 178.16 450.283 178.155L451.011 177.926C451.614 177.51 452.329 177.153 452.856 176.742C456.295 174.068 459.888 168.472 458.813 163.933C457.967 160.357 454.531 160.27 451.673 161.379C450.83 161.758 450.15 162.03 449.632 162.194C446.18 163.288 442.712 164.392 439.229 165.507C439.141 165.535 439.061 165.52 438.989 165.462C428.253 156.672 418.14 146.333 410.718 134.512C408.038 130.245 406.054 125.73 404.767 120.968C404.744 120.884 404.696 120.863 404.622 120.904L382.746 132.446C382.735 132.452 382.726 132.459 382.718 132.468C382.711 132.477 382.705 132.487 382.702 132.498C382.698 132.51 382.697 132.521 382.699 132.533C382.7 132.545 382.704 132.556 382.709 132.566C389.472 144.48 397.813 155.166 407.731 164.625C412.83 169.489 418.611 173.78 425.074 177.496ZM394.176 146.178C394.135 146.067 394.116 145.949 394.12 145.83C394.124 145.711 394.152 145.595 394.201 145.487C394.251 145.379 394.321 145.281 394.408 145.201C394.495 145.12 394.597 145.057 394.709 145.015L399.664 143.173C399.775 143.131 399.893 143.112 400.012 143.117C400.131 143.121 400.248 143.149 400.356 143.198C400.464 143.247 400.561 143.318 400.642 143.405C400.722 143.492 400.785 143.594 400.827 143.705L400.842 143.747C400.884 143.858 400.903 143.977 400.898 144.095C400.894 144.214 400.866 144.331 400.817 144.439C400.767 144.547 400.697 144.644 400.61 144.725C400.523 144.806 400.421 144.868 400.31 144.91L395.355 146.753C395.243 146.794 395.125 146.813 395.006 146.809C394.888 146.804 394.771 146.777 394.663 146.727C394.555 146.678 394.458 146.608 394.377 146.521C394.296 146.434 394.233 146.332 394.192 146.22L394.176 146.178ZM400.862 154.303C400.739 154.095 400.704 153.846 400.764 153.611C400.824 153.377 400.975 153.176 401.183 153.053L407.488 149.324C407.591 149.263 407.705 149.223 407.824 149.206C407.942 149.189 408.063 149.196 408.179 149.226C408.295 149.256 408.405 149.308 408.5 149.38C408.596 149.452 408.677 149.542 408.738 149.645L408.755 149.674C408.878 149.882 408.914 150.131 408.853 150.366C408.793 150.6 408.642 150.801 408.434 150.924L402.13 154.653C402.026 154.714 401.912 154.754 401.793 154.771C401.675 154.788 401.554 154.781 401.438 154.751C401.322 154.721 401.213 154.669 401.117 154.597C401.021 154.525 400.94 154.435 400.879 154.332L400.862 154.303ZM408.407 162.019C408.345 161.917 408.304 161.803 408.286 161.685C408.268 161.567 408.273 161.447 408.302 161.331C408.33 161.215 408.382 161.105 408.452 161.009C408.523 160.913 408.612 160.831 408.714 160.769L415.209 156.836C415.311 156.774 415.424 156.733 415.542 156.715C415.66 156.697 415.781 156.702 415.897 156.731C416.013 156.759 416.122 156.81 416.219 156.881C416.315 156.952 416.396 157.041 416.458 157.143L416.479 157.177C416.541 157.279 416.582 157.392 416.6 157.51C416.618 157.628 416.612 157.749 416.584 157.865C416.555 157.981 416.504 158.09 416.434 158.187C416.363 158.283 416.274 158.364 416.172 158.426L409.677 162.359C409.575 162.421 409.462 162.462 409.344 162.481C409.225 162.499 409.105 162.493 408.989 162.465C408.873 162.436 408.764 162.385 408.667 162.314C408.571 162.244 408.489 162.155 408.428 162.052L408.407 162.019ZM416.733 169.031C416.661 168.936 416.608 168.828 416.578 168.712C416.547 168.596 416.54 168.476 416.556 168.358C416.572 168.239 416.612 168.125 416.672 168.022C416.732 167.919 416.812 167.829 416.908 167.756L423.307 162.899C423.499 162.753 423.741 162.69 423.98 162.722C424.219 162.755 424.436 162.882 424.582 163.074L424.605 163.105C424.677 163.2 424.73 163.309 424.761 163.424C424.791 163.54 424.798 163.66 424.782 163.779C424.766 163.897 424.726 164.011 424.666 164.114C424.606 164.217 424.526 164.308 424.431 164.38L418.032 169.237C417.839 169.383 417.597 169.447 417.358 169.414C417.119 169.381 416.903 169.255 416.757 169.062L416.733 169.031ZM423.854 173.731C423.794 173.629 423.754 173.515 423.737 173.397C423.721 173.279 423.728 173.159 423.757 173.044C423.787 172.928 423.84 172.82 423.911 172.725C423.983 172.63 424.073 172.55 424.175 172.489L429.115 169.579C429.218 169.519 429.332 169.479 429.45 169.463C429.568 169.446 429.688 169.453 429.803 169.483C429.918 169.512 430.027 169.565 430.122 169.636C430.217 169.708 430.297 169.798 430.358 169.9L430.38 169.939C430.441 170.042 430.48 170.155 430.497 170.273C430.513 170.391 430.507 170.511 430.477 170.626C430.447 170.742 430.395 170.85 430.323 170.945C430.251 171.04 430.162 171.121 430.059 171.181L425.119 174.091C425.016 174.151 424.903 174.191 424.785 174.208C424.667 174.224 424.547 174.217 424.431 174.188C424.316 174.158 424.208 174.105 424.112 174.034C424.017 173.962 423.937 173.872 423.877 173.77L423.854 173.731Z" fill="#F36A22"/>
<path d="M509.487 121.183L506.071 122.177C505.967 122.206 505.913 122.275 505.909 122.383L505.236 142.743C505.235 142.771 505.24 142.798 505.25 142.823C505.26 142.848 505.275 142.871 505.294 142.891C505.313 142.911 505.336 142.926 505.361 142.937C505.386 142.947 505.413 142.953 505.44 142.953L519.687 142.95L530.294 142.941C530.316 142.941 530.338 142.933 530.353 142.917C530.369 142.901 530.378 142.88 530.378 142.858V135.589C529.049 135.483 527.461 135.84 525.954 135.168C523.227 133.948 521.822 130.955 521.155 128.211L509.674 128.22C509.574 128.22 509.524 128.17 509.524 128.069L509.487 121.183Z" fill="#A6A5E2"/>
<path d="M324.161 139.539L328.3 139.592L338.319 123.799C338.328 123.785 338.333 123.769 338.333 123.752C338.334 123.736 338.33 123.72 338.323 123.705C338.315 123.691 338.304 123.678 338.29 123.67C338.276 123.661 338.26 123.656 338.243 123.656C324.348 123.397 310.445 123.004 296.535 122.475C296.286 122.464 296.119 122.554 295.882 122.537C289.835 122.11 283.815 122.392 277.763 122.241C273.005 122.124 268.262 122.007 263.535 121.892C263.483 121.891 263.432 121.903 263.387 121.928C263.341 121.952 263.303 121.988 263.276 122.032L258.949 128.943C258.943 128.953 258.939 128.965 258.938 128.977C258.938 128.99 258.94 129.002 258.945 129.013C258.95 129.024 258.958 129.034 258.968 129.042C258.978 129.05 258.99 129.055 259.002 129.057C279.193 132.506 299.399 135.955 319.619 139.405C321.065 139.653 322.679 139.489 324.161 139.539Z" fill="white"/>
<path d="M332.376 136.648L330.5 139.604H333.626L332.376 136.648Z" fill="#F3852F"/>
<path d="M259.767 139.031L259.839 175.83H306.248L309.096 175.827H334.193L335.605 175.821C335.706 175.82 335.756 175.768 335.756 175.668L335.806 172.438L335.798 145.859L335.761 139.827C335.761 139.728 335.712 139.678 335.613 139.676L333.626 139.604H330.5L328.3 139.592L324.16 139.539C323.262 139.588 322.367 139.639 321.475 139.693C321.185 139.71 320.942 139.564 320.68 139.57C318.72 139.62 316.434 139.481 314.821 139.47C296.467 139.333 278.12 139.14 259.767 139.031Z" fill="#A6A5E2"/>
<path d="M259.767 139.031C256.743 139.085 253.716 139.152 250.687 139.232C250.58 139.236 250.485 139.2 250.399 139.123C250.293 139.194 250.203 139.23 250.128 139.232C248.029 139.295 244.376 139.376 239.169 139.475L243.825 152.354C243.863 152.46 243.94 152.549 244.04 152.603C246.938 154.158 255.767 159.442 252.345 163.799C251.052 165.443 248.395 165.351 246.525 164.86C246.506 164.855 246.487 164.855 246.469 164.861C246.451 164.866 246.434 164.876 246.421 164.889C246.408 164.903 246.398 164.919 246.393 164.938C246.388 164.956 246.389 164.975 246.393 164.994L249.333 175.578C249.351 175.645 249.391 175.704 249.447 175.746C249.502 175.788 249.57 175.81 249.64 175.81H256.138L259.839 175.83L259.767 139.031Z" fill="#6664D3"/>
<path d="M394.708 145.015L399.664 143.173C400.132 142.998 400.652 143.237 400.827 143.705L400.842 143.747C401.016 144.215 400.778 144.736 400.31 144.91L395.354 146.753C394.886 146.927 394.366 146.688 394.192 146.22L394.176 146.178C394.002 145.71 394.24 145.189 394.708 145.015Z" fill="#F37829"/>
<path d="M227.722 145.172L227.311 183.012C227.31 183.116 227.36 183.168 227.462 183.168L231.833 183.213L250.614 183.182L301.908 183.179L305.595 183.165C305.699 183.163 305.754 183.111 305.76 183.009L306.248 175.83H259.839L256.138 175.81C253.221 182.208 244.498 181.985 240.573 176.932C240.266 176.536 239.98 176.166 239.716 175.821L231.652 175.818C231.633 175.818 231.614 175.811 231.601 175.796C231.587 175.782 231.579 175.763 231.579 175.743L231.588 153.401L227.722 145.172Z" fill="#231F20"/>
<path d="M473.892 145.591L453.493 146.981L451.427 147.132C451.609 147.31 451.811 147.415 452.033 147.447C454.917 147.86 457.797 148.306 460.672 148.784C461.303 148.89 461.932 149.02 462.559 149.175C462.86 149.25 463.078 149.153 463.385 149.245C463.702 149.338 463.894 149.388 463.963 149.395C464.733 149.481 465.498 149.605 466.258 149.767C466.45 149.809 466.632 149.736 466.794 149.789C467.002 149.858 467.112 149.893 467.123 149.895C470.729 150.472 474.333 151.073 477.934 151.698C478.023 151.713 478.111 151.706 478.196 151.676C478.323 151.633 478.43 151.66 478.517 151.757C478.541 151.782 478.572 151.799 478.607 151.804L479.743 151.989C479.817 152 479.891 151.997 479.966 151.98C480.083 151.954 480.191 151.974 480.29 152.039C480.36 152.085 480.438 152.115 480.521 152.128C483.261 152.536 485.993 152.983 488.72 153.471C488.748 153.474 488.786 153.472 488.834 153.462C488.903 153.451 488.972 153.454 489.041 153.471C489.577 153.61 490.12 153.706 490.671 153.758C490.944 153.786 491.151 153.965 491.48 153.909C491.571 153.894 491.661 153.9 491.748 153.926C492.109 154.036 492.477 154.11 492.851 154.149C493.29 154.197 493.647 154.258 493.923 154.331C494.433 154.465 494.792 154.528 495 154.52C495.416 154.501 495.533 154.601 495.868 154.654C499.142 155.164 502.411 155.702 505.677 156.268C506.07 156.337 506.462 156.389 506.855 156.424C507.134 156.449 507.313 156.628 507.651 156.533C507.694 156.521 507.739 156.519 507.783 156.528C507.827 156.538 507.867 156.557 507.902 156.586C508.047 156.703 508.214 156.742 508.404 156.703C508.509 156.683 508.61 156.689 508.709 156.723C510.018 157.172 511.48 156.932 512.817 156.731C513.325 156.653 513.87 156.739 514.42 156.636C514.656 156.592 514.923 156.574 515.221 156.583C515.698 156.597 516.106 156.388 516.549 156.399C517.03 156.407 517.292 156.413 517.861 156.326C518.42 156.243 518.925 156.298 519.592 156.162C520.117 156.053 520.633 156.178 521.197 156.053C521.476 155.99 521.741 155.963 521.993 155.972C522.612 155.997 523.123 155.793 523.748 155.832C523.983 155.849 524.215 155.833 524.446 155.785C525.172 155.64 525.73 155.723 526.397 155.595C526.894 155.5 527.338 155.584 527.835 155.506C528.194 155.452 528.548 155.429 528.896 155.439C529.553 155.455 530.132 155.3 530.635 154.973L488.851 147.288C485.68 146.685 482.505 146.103 479.327 145.541C477.66 145.245 475.96 145.49 474.274 145.571C474.058 145.582 473.931 145.589 473.892 145.591Z" fill="#A6A5E2"/>
<path d="M335.798 145.859L335.806 172.438C339.399 163.807 338.62 154.554 335.798 145.859Z" fill="#F3852F"/>
<path d="M451.427 147.131L450.832 147.151C450.747 147.153 450.696 147.196 450.679 147.279L448.879 156.29C448.875 156.306 448.875 156.323 448.879 156.339C448.882 156.355 448.889 156.37 448.898 156.384C448.907 156.397 448.919 156.409 448.933 156.418C448.947 156.426 448.963 156.432 448.979 156.435L452.438 157.035C470.473 160.227 488.502 163.401 506.523 166.559C506.86 166.619 507.181 166.714 507.486 166.844C507.527 166.862 507.561 166.894 507.58 166.934C507.6 166.975 507.604 167.021 507.592 167.064C505.472 174.837 503.35 182.62 501.225 190.411C500.788 192.01 500.445 193.115 500.198 193.728L518.621 187.081C518.701 187.052 518.753 186.996 518.777 186.914L525.286 163.846C525.298 163.804 525.321 163.767 525.353 163.737C525.384 163.708 525.423 163.689 525.465 163.681L528.413 163.162C528.455 163.155 528.495 163.136 528.529 163.108C528.563 163.08 528.589 163.044 528.605 163.003L531.581 155.246C531.587 155.231 531.589 155.216 531.588 155.2C531.586 155.185 531.582 155.17 531.574 155.157C531.566 155.143 531.556 155.132 531.543 155.123C531.53 155.114 531.515 155.109 531.5 155.106L530.635 154.972C530.132 155.3 529.553 155.455 528.896 155.438C528.548 155.429 528.194 155.452 527.835 155.505C527.338 155.584 526.894 155.5 526.397 155.595C525.73 155.723 525.172 155.639 524.446 155.785C524.215 155.833 523.983 155.849 523.748 155.832C523.123 155.793 522.612 155.997 521.993 155.972C521.741 155.962 521.476 155.989 521.197 156.053C520.633 156.178 520.117 156.053 519.592 156.161C518.925 156.298 518.42 156.242 517.861 156.326C517.292 156.413 517.03 156.407 516.549 156.399C516.106 156.388 515.698 156.597 515.221 156.583C514.923 156.574 514.656 156.591 514.42 156.636C513.87 156.739 513.325 156.653 512.817 156.731C511.48 156.932 510.018 157.172 508.709 156.723C508.61 156.689 508.508 156.683 508.404 156.703C508.214 156.742 508.047 156.703 507.902 156.586C507.867 156.557 507.827 156.538 507.783 156.528C507.739 156.519 507.694 156.521 507.651 156.533C507.313 156.628 507.134 156.449 506.855 156.424C506.462 156.388 506.07 156.336 505.677 156.268C502.411 155.702 499.142 155.164 495.868 154.654C495.533 154.601 495.416 154.501 495 154.52C494.792 154.528 494.433 154.464 493.923 154.33C493.647 154.258 493.29 154.197 492.851 154.149C492.477 154.11 492.109 154.035 491.748 153.926C491.661 153.9 491.571 153.894 491.48 153.909C491.151 153.965 490.944 153.786 490.671 153.758C490.12 153.706 489.577 153.61 489.041 153.471C488.972 153.454 488.903 153.451 488.834 153.462C488.786 153.472 488.748 153.474 488.72 153.471C485.993 152.983 483.261 152.535 480.521 152.128C480.438 152.115 480.36 152.085 480.29 152.039C480.191 151.973 480.083 151.954 479.966 151.98C479.891 151.997 479.817 152 479.743 151.988L478.607 151.804C478.572 151.799 478.541 151.782 478.517 151.757C478.43 151.66 478.323 151.633 478.196 151.676C478.111 151.706 478.023 151.713 477.934 151.698C474.333 151.073 470.729 150.472 467.123 149.895C467.112 149.893 467.002 149.858 466.793 149.789C466.632 149.736 466.45 149.808 466.258 149.766C465.498 149.605 464.733 149.481 463.963 149.395C463.894 149.388 463.702 149.338 463.385 149.244C463.078 149.152 462.86 149.25 462.559 149.175C461.932 149.02 461.303 148.89 460.672 148.784C457.797 148.306 454.917 147.86 452.033 147.447C451.811 147.415 451.609 147.31 451.427 147.131Z" fill="#6664D3"/>
<path d="M401.183 153.053L407.488 149.324C407.922 149.068 408.481 149.211 408.738 149.645L408.755 149.674C409.012 150.108 408.868 150.668 408.434 150.924L402.13 154.653C401.696 154.91 401.136 154.766 400.879 154.332L400.862 154.303C400.606 153.869 400.749 153.309 401.183 153.053Z" fill="#F37829"/>
<path d="M231.588 153.4L231.58 175.743C231.58 175.762 231.587 175.782 231.601 175.796C231.614 175.81 231.633 175.818 231.652 175.818L239.716 175.821C236.944 171.257 235.471 166.045 234.759 160.789C234.677 160.184 234.516 159.622 234.276 159.103C233.396 157.213 232.5 155.312 231.588 153.4Z" fill="#6664D3"/>
<path d="M408.714 160.769L415.209 156.836C415.638 156.576 416.198 156.713 416.458 157.143L416.479 157.176C416.739 157.606 416.601 158.166 416.172 158.426L409.677 162.359C409.247 162.62 408.688 162.482 408.427 162.052L408.407 162.019C408.147 161.589 408.284 161.029 408.714 160.769Z" fill="#F37829"/>
<path d="M452.438 157.036L451.673 161.379C454.531 160.271 457.967 160.358 458.813 163.933C459.888 168.472 456.295 174.069 452.856 176.743C452.329 177.153 451.614 177.51 451.011 177.926C456.19 179.596 461.357 181.252 466.512 182.895C466.672 182.947 466.767 183.014 466.796 183.096L500.198 193.728C500.445 193.116 500.788 192.011 501.225 190.412C503.35 182.62 505.472 174.838 507.592 167.065C507.604 167.022 507.6 166.976 507.58 166.935C507.561 166.895 507.527 166.863 507.486 166.845C507.181 166.714 506.86 166.619 506.523 166.56C488.502 163.402 470.473 160.227 452.438 157.036Z" fill="#A6A5E3"/>
<path d="M416.907 167.756L423.306 162.899C423.707 162.595 424.278 162.673 424.581 163.074L424.605 163.105C424.909 163.505 424.831 164.076 424.43 164.38L418.031 169.237C417.631 169.541 417.06 169.462 416.756 169.062L416.733 169.031C416.429 168.631 416.507 168.06 416.907 167.756Z" fill="#F37829"/>
<path d="M424.175 172.489L429.115 169.579C429.547 169.325 430.103 169.469 430.358 169.9L430.38 169.939C430.634 170.37 430.491 170.927 430.059 171.181L425.119 174.091C424.687 174.345 424.131 174.201 423.877 173.77L423.854 173.731C423.6 173.299 423.744 172.743 424.175 172.489Z" fill="#F37829"/>
<path d="M380.197 174.579C380.255 177.422 380.293 180.242 380.312 183.039C380.356 189.395 380.116 195.782 379.882 202.132C379.523 211.857 378.831 221.557 377.808 231.232C376.507 243.489 374.506 255.634 371.237 267.319C369.177 274.674 366.254 282.261 361.911 288.594C361.84 288.699 361.864 288.773 361.981 288.818L364.873 289.926L371.416 291.922C375.664 286.32 378.95 279.832 381.615 273.345C385.568 263.726 388.382 253.782 390.059 243.514C393.292 223.737 392.825 203.221 389.559 183.48C389.551 183.428 389.563 183.376 389.593 183.333C389.623 183.29 389.668 183.261 389.719 183.251C397.212 181.798 404.721 180.339 412.245 178.875C412.825 178.76 413.543 178.735 414.176 178.621C413.112 178.621 412.046 178.637 410.978 178.671C400.351 179.011 390.377 177.565 380.197 174.579Z" fill="black"/>
<path d="M334.193 175.827H309.096C310.071 176.616 311.147 177.209 312.325 177.605C312.413 177.635 312.484 177.688 312.54 177.764C317.827 185.17 327.387 184.921 332.831 177.772C333.303 177.151 333.757 176.502 334.193 175.827Z" fill="#F3852F"/>
<path d="M425.074 177.496C421.458 178.054 417.826 178.429 414.177 178.621C413.543 178.735 412.826 178.76 412.245 178.875C404.721 180.339 397.213 181.798 389.719 183.252C389.668 183.261 389.623 183.29 389.593 183.333C389.563 183.376 389.551 183.429 389.56 183.48C392.825 203.221 393.292 223.737 390.059 243.514C388.382 253.783 385.568 263.726 381.615 273.346C378.95 279.833 375.664 286.32 371.416 291.922C375.463 292.999 379.463 293.681 383.416 293.968C386.607 294.199 389.815 294.08 393.04 293.611L395.474 293.089C395.513 293.08 395.549 293.062 395.579 293.036C395.608 293.009 395.631 292.976 395.645 292.938C401.822 275.833 407.056 258.412 410.715 240.653C412.412 232.424 413.602 224.352 413.783 216.159C413.842 213.548 413.741 210.997 413.479 208.505C413.438 208.111 413.503 208.093 413.674 208.452L415.843 213.027C415.72 211.298 415.32 209.627 414.643 208.014C414.566 207.833 414.609 207.799 414.771 207.91C420.616 211.975 425.163 218.319 428.122 224.698C434.285 237.985 435.438 253.197 434.177 267.587C433.438 275.991 432.043 284.284 429.992 292.466C429.92 292.753 429.998 292.957 430.227 293.078L435.807 293.658L442.612 294.27C442.711 294.279 442.775 294.235 442.805 294.138C443.058 293.269 443.289 292.398 443.497 291.526C448.318 271.372 451.087 250.565 451.397 229.837C451.62 214.73 450.358 199.545 446.877 184.823C446.784 184.814 446.706 184.793 446.643 184.762C446.576 184.728 446.506 184.707 446.433 184.698C438.754 183.69 431.874 181.139 425.074 177.496Z" fill="black"/>
<path d="M451.011 177.926L450.283 178.155C450.265 178.16 450.249 178.17 450.236 178.184C450.224 178.198 450.215 178.216 450.212 178.234C450.208 178.253 450.21 178.272 450.217 178.29C450.223 178.308 450.235 178.324 450.249 178.336L458.339 184.74C461.102 184.457 463.921 183.909 466.796 183.096C466.767 183.014 466.672 182.947 466.512 182.895C461.357 181.252 456.19 179.595 451.011 177.926Z" fill="#F3852F"/>
<path d="M250.614 183.182L302.444 199.922L301.908 183.18L250.614 183.182Z" fill="black"/>
<path d="M250.614 183.182L231.834 183.213L234.148 294.515C234.149 294.612 234.199 294.659 234.296 294.655L235.141 294.619L250.639 294.674L251.2 294.652C251.304 294.647 251.356 294.592 251.356 294.487L251.362 283.043L237.606 285.441C237.012 285.543 236.664 285.298 236.562 284.707L236.526 284.492C236.493 284.304 236.537 284.11 236.647 283.954C236.757 283.798 236.924 283.692 237.112 283.66C241.792 282.843 246.421 282.035 250.999 281.237C251.169 281.206 251.236 281.134 251.376 281.039C251.471 280.14 251.559 279.228 251.641 278.303C253.695 255.239 255.754 232.175 257.816 209.111C258.058 206.392 260.275 204.017 262.748 203.19C263.596 202.906 265.016 202.762 267.007 202.761C269.174 202.761 271.34 202.763 273.506 202.769C275.739 202.777 278.271 204.675 279.044 206.897C279.267 207.543 279.379 208.567 279.379 209.968C279.358 238.151 279.362 266.318 279.39 294.468C279.39 294.491 279.396 294.514 279.406 294.534C279.417 294.555 279.432 294.572 279.451 294.586C279.47 294.599 279.492 294.608 279.515 294.611C279.537 294.614 279.561 294.612 279.583 294.605L293.916 289.804C294.015 289.77 294.085 289.706 294.126 289.611C294.578 288.558 294.889 287.778 295.061 287.272C297.651 279.671 299.094 271.774 300.057 263.816C302.622 242.669 302.943 221.192 302.444 199.922L250.614 183.182ZM283.08 286.811C282.377 287.046 281.849 287.289 280.786 287.473C280.623 287.5 280.456 287.465 280.319 287.373C280.182 287.281 280.085 287.14 280.049 286.979L280.004 286.772C279.959 286.571 279.989 286.361 280.089 286.18C280.19 286 280.353 285.863 280.548 285.795L292.808 281.561C293.364 281.369 293.752 281.546 293.972 282.091L294.045 282.272C294.079 282.359 294.095 282.452 294.093 282.545C294.09 282.638 294.069 282.729 294.031 282.814C293.992 282.899 293.937 282.975 293.868 283.037C293.8 283.1 293.719 283.149 293.631 283.18C290.176 284.402 286.659 285.613 283.08 286.811Z" fill="black"/>
<path d="M415.843 213.027C417.597 217.61 418.943 222.215 419.879 226.841C424.172 248.05 422 270.713 417.001 291.595C416.995 291.622 416.995 291.649 417 291.676C417.005 291.703 417.016 291.728 417.032 291.75C417.048 291.772 417.068 291.791 417.092 291.805C417.115 291.818 417.141 291.827 417.169 291.83L418.319 291.953L430.227 293.077C429.998 292.957 429.919 292.753 429.992 292.466C432.043 284.284 433.438 275.991 434.176 267.587C435.438 253.197 434.285 237.984 428.122 224.698C425.163 218.319 420.616 211.975 414.771 207.91C414.609 207.799 414.566 207.833 414.642 208.014C415.32 209.627 415.72 211.298 415.843 213.027Z" fill="black"/>
<path d="M251.376 281.039C251.236 281.134 251.169 281.206 250.999 281.237C246.421 282.035 241.792 282.843 237.112 283.66C236.924 283.693 236.757 283.799 236.647 283.955C236.537 284.111 236.493 284.304 236.526 284.492L236.562 284.707C236.664 285.298 237.012 285.543 237.606 285.441L251.362 283.043C252.727 282.945 252.844 281.324 251.468 281.164C251.436 281.161 251.411 281.151 251.393 281.134C251.341 281.089 251.335 281.057 251.376 281.039Z" fill="black"/>
<path d="M283.081 286.811C286.659 285.613 290.176 284.402 293.632 283.18C293.72 283.149 293.8 283.1 293.869 283.038C293.937 282.975 293.993 282.899 294.031 282.814C294.07 282.729 294.091 282.638 294.093 282.545C294.096 282.452 294.079 282.359 294.045 282.273L293.972 282.091C293.753 281.546 293.365 281.369 292.808 281.561L280.549 285.795C280.354 285.863 280.19 286 280.09 286.18C279.989 286.361 279.959 286.571 280.004 286.772L280.049 286.979C280.085 287.14 280.182 287.281 280.319 287.373C280.456 287.465 280.623 287.5 280.786 287.473C281.85 287.289 282.377 287.046 283.081 286.811Z" fill="black"/>
<path d="M364.872 289.926C364.783 294.002 364.712 298.043 364.658 302.052C364.641 303.319 365.227 304.031 366.489 304.031C381.11 304.035 395.731 304.038 410.352 304.042C412.334 304.045 412.867 301.686 410.843 300.863C404.955 298.468 399.021 296.05 393.04 293.611C389.815 294.08 386.607 294.199 383.415 293.968C379.463 293.681 375.463 292.999 371.415 291.922L364.872 289.926Z" fill="#231F20"/>
<path d="M280.392 294.501C279.691 294.739 279.195 294.688 278.969 295.515C278.252 298.135 277.552 300.746 276.869 303.347C276.825 303.516 276.82 303.693 276.855 303.864C276.889 304.035 276.962 304.196 277.069 304.334C277.175 304.472 277.312 304.584 277.469 304.662C277.625 304.739 277.797 304.779 277.972 304.779C287.133 304.783 296.362 304.783 305.659 304.779C306.542 304.779 307.108 304.55 307.125 303.596C307.136 303.035 306.865 302.75 306.357 302.493C302.946 300.785 299.912 298.867 297.255 296.74C295.792 295.573 294.067 293.756 293.573 291.716C293.341 290.755 292.881 290.309 291.89 290.638C286.8 292.33 282.968 293.618 280.392 294.501Z" fill="#231F20"/>
<path d="M418.319 291.953C417.783 292.235 417.442 292.478 417.247 293.095C416.322 296.042 415.403 298.992 414.489 301.943C413.984 303.573 415.162 304.146 416.563 304.188C431.268 304.63 445.973 305.109 460.678 305.622H462.274C463.533 305.229 464.225 303.752 462.947 302.987C462.147 302.509 460.465 301.807 457.9 300.88C450.656 298.261 443.291 295.854 435.807 293.659L430.227 293.078L418.319 291.953Z" fill="#231F20"/>
<path d="M235.141 294.619C234.464 294.952 234.124 295.456 234.123 296.132C234.119 298.514 234.121 300.895 234.128 303.275C234.131 304.215 234.438 305.078 235.474 305.078C242.802 305.076 250.129 305.075 257.455 305.075C258.402 305.075 258.832 303.718 258.438 303.023C258.31 302.793 257.995 302.51 257.495 302.175C255.37 300.743 253.09 298.836 251.909 296.614C251.555 295.953 251.566 295.113 250.639 294.674L235.141 294.619Z" fill="#231F20"/>
<path d="M274.059 167.603C274.051 167.503 274.013 167.425 273.947 167.369C273.881 167.313 273.78 167.285 273.645 167.285C273.559 167.285 273.489 167.296 273.434 167.317C273.38 167.337 273.34 167.364 273.314 167.399C273.288 167.434 273.275 167.474 273.274 167.519C273.272 167.556 273.278 167.59 273.293 167.619C273.309 167.648 273.334 167.675 273.368 167.699C273.402 167.722 273.445 167.743 273.498 167.762C273.551 167.781 273.614 167.798 273.687 167.813L273.939 167.867C274.109 167.903 274.254 167.95 274.375 168.009C274.496 168.068 274.595 168.138 274.672 168.218C274.749 168.296 274.805 168.385 274.841 168.484C274.878 168.583 274.897 168.691 274.898 168.808C274.897 169.01 274.847 169.181 274.747 169.321C274.647 169.461 274.504 169.567 274.318 169.64C274.133 169.713 273.911 169.749 273.651 169.749C273.384 169.749 273.152 169.71 272.953 169.631C272.755 169.552 272.601 169.431 272.491 169.267C272.382 169.102 272.327 168.891 272.326 168.634H273.118C273.123 168.728 273.146 168.807 273.188 168.871C273.23 168.935 273.289 168.983 273.365 169.016C273.442 169.049 273.533 169.066 273.639 169.066C273.728 169.066 273.803 169.055 273.863 169.033C273.923 169.011 273.968 168.98 273.999 168.941C274.03 168.902 274.046 168.858 274.047 168.808C274.046 168.761 274.03 168.72 274 168.685C273.971 168.649 273.924 168.617 273.857 168.589C273.79 168.56 273.699 168.533 273.585 168.508L273.28 168.442C273.008 168.383 272.793 168.285 272.637 168.147C272.481 168.008 272.403 167.819 272.404 167.579C272.403 167.384 272.455 167.214 272.56 167.068C272.666 166.921 272.812 166.807 272.999 166.725C273.187 166.643 273.402 166.602 273.645 166.602C273.893 166.602 274.107 166.643 274.288 166.726C274.469 166.809 274.608 166.926 274.706 167.077C274.805 167.227 274.855 167.402 274.856 167.603H274.059ZM275.227 169.713V167.411H276.013V167.849H276.037C276.085 167.705 276.167 167.591 276.282 167.507C276.398 167.423 276.536 167.381 276.696 167.381C276.858 167.381 276.997 167.424 277.114 167.51C277.231 167.595 277.302 167.708 277.326 167.849H277.35C277.389 167.708 277.472 167.595 277.598 167.51C277.725 167.424 277.874 167.381 278.045 167.381C278.266 167.381 278.445 167.452 278.582 167.594C278.72 167.736 278.788 167.925 278.788 168.161V169.713H277.961V168.37C277.961 168.269 277.936 168.191 277.885 168.134C277.834 168.076 277.765 168.047 277.679 168.047C277.594 168.047 277.527 168.076 277.477 168.134C277.428 168.191 277.404 168.269 277.404 168.37V169.713H276.612V168.37C276.612 168.269 276.587 168.191 276.536 168.134C276.485 168.076 276.416 168.047 276.33 168.047C276.273 168.047 276.224 168.06 276.184 168.086C276.143 168.112 276.111 168.149 276.088 168.198C276.066 168.246 276.055 168.303 276.055 168.37V169.713H275.227ZM279.197 169.713V167.411H280.024V169.713H279.197ZM279.61 167.171C279.498 167.171 279.402 167.134 279.322 167.06C279.243 166.986 279.203 166.898 279.203 166.794C279.203 166.69 279.243 166.601 279.322 166.527C279.402 166.453 279.498 166.416 279.61 166.416C279.723 166.416 279.819 166.453 279.898 166.527C279.978 166.601 280.018 166.69 280.018 166.794C280.018 166.898 279.978 166.986 279.898 167.06C279.819 167.134 279.723 167.171 279.61 167.171ZM281.273 166.644V169.713H280.445V166.644H281.273ZM282.797 169.755C282.552 169.755 282.34 169.708 282.162 169.614C281.985 169.519 281.849 169.384 281.753 169.207C281.658 169.029 281.61 168.816 281.61 168.568C281.61 168.33 281.658 168.123 281.754 167.945C281.85 167.767 281.986 167.628 282.16 167.53C282.335 167.431 282.542 167.381 282.78 167.381C282.953 167.381 283.111 167.408 283.252 167.462C283.393 167.516 283.513 167.594 283.613 167.697C283.713 167.799 283.79 167.923 283.844 168.069C283.898 168.215 283.925 168.379 283.925 168.562V168.754H281.868V168.298H283.163C283.162 168.233 283.145 168.175 283.112 168.125C283.08 168.074 283.037 168.034 282.982 168.006C282.928 167.977 282.866 167.963 282.797 167.963C282.731 167.963 282.669 167.977 282.613 168.006C282.557 168.034 282.512 168.073 282.478 168.123C282.445 168.173 282.428 168.232 282.426 168.298V168.79C282.426 168.864 282.441 168.93 282.472 168.988C282.503 169.046 282.548 169.091 282.606 169.124C282.664 169.157 282.734 169.174 282.815 169.174C282.872 169.174 282.924 169.166 282.971 169.15C283.019 169.134 283.06 169.111 283.094 169.081C283.128 169.05 283.153 169.013 283.169 168.97H283.925C283.899 169.13 283.837 169.269 283.74 169.387C283.643 169.504 283.515 169.594 283.355 169.659C283.196 169.723 283.01 169.755 282.797 169.755ZM285.091 169.713V166.644H287.249V167.315H285.924V167.843H287.118V168.514H285.924V169.713H285.091ZM288.508 169.755C288.258 169.755 288.044 169.706 287.867 169.607C287.689 169.507 287.552 169.368 287.457 169.19C287.362 169.011 287.315 168.804 287.315 168.568C287.315 168.332 287.362 168.126 287.457 167.948C287.552 167.769 287.689 167.63 287.867 167.531C288.044 167.431 288.258 167.381 288.508 167.381C288.758 167.381 288.972 167.431 289.15 167.531C289.327 167.63 289.464 167.769 289.559 167.948C289.654 168.126 289.701 168.332 289.701 168.568C289.701 168.804 289.654 169.011 289.559 169.19C289.464 169.368 289.327 169.507 289.15 169.607C288.972 169.706 288.758 169.755 288.508 169.755ZM288.514 169.144C288.584 169.144 288.644 169.12 288.695 169.073C288.746 169.026 288.786 168.959 288.814 168.873C288.842 168.786 288.856 168.682 288.856 168.562C288.856 168.441 288.842 168.338 288.814 168.252C288.786 168.165 288.746 168.098 288.695 168.051C288.644 168.004 288.584 167.981 288.514 167.981C288.44 167.981 288.377 168.004 288.324 168.051C288.271 168.098 288.23 168.165 288.202 168.252C288.174 168.338 288.16 168.441 288.16 168.562C288.16 168.682 288.174 168.786 288.202 168.873C288.23 168.959 288.271 169.026 288.324 169.073C288.377 169.12 288.44 169.144 288.514 169.144ZM294.228 168.418V169.713H293.4V167.411H294.186V167.849H294.21C294.26 167.703 294.348 167.589 294.473 167.506C294.6 167.423 294.748 167.381 294.917 167.381C295.08 167.381 295.221 167.419 295.341 167.494C295.462 167.568 295.556 167.669 295.622 167.799C295.688 167.929 295.721 168.078 295.72 168.244V169.713H294.893V168.418C294.894 168.304 294.865 168.215 294.806 168.15C294.748 168.085 294.667 168.053 294.563 168.053C294.495 168.053 294.436 168.068 294.385 168.098C294.335 168.127 294.297 168.169 294.27 168.224C294.243 168.277 294.229 168.342 294.228 168.418ZM296.962 169.743C296.798 169.743 296.647 169.7 296.51 169.614C296.373 169.528 296.263 169.398 296.18 169.223C296.098 169.048 296.057 168.828 296.057 168.562C296.057 168.284 296.1 168.059 296.186 167.885C296.273 167.711 296.385 167.584 296.522 167.503C296.659 167.422 296.804 167.381 296.956 167.381C297.07 167.381 297.17 167.401 297.256 167.441C297.342 167.48 297.414 167.533 297.472 167.598C297.53 167.663 297.574 167.735 297.604 167.813H297.616V166.644H298.443V169.713H297.622V169.336H297.604C297.572 169.414 297.526 169.484 297.466 169.545C297.407 169.606 297.335 169.655 297.25 169.691C297.166 169.726 297.07 169.743 296.962 169.743ZM297.268 169.108C297.344 169.108 297.409 169.086 297.463 169.042C297.518 168.997 297.56 168.934 297.589 168.853C297.619 168.771 297.634 168.674 297.634 168.562C297.634 168.448 297.619 168.351 297.589 168.27C297.56 168.188 297.518 168.126 297.463 168.083C297.409 168.039 297.344 168.017 297.268 168.017C297.192 168.017 297.127 168.039 297.073 168.083C297.02 168.126 296.979 168.188 296.95 168.27C296.922 168.351 296.908 168.448 296.908 168.562C296.908 168.676 296.922 168.774 296.95 168.856C296.979 168.937 297.02 168.999 297.073 169.043C297.127 169.086 297.192 169.108 297.268 169.108ZM299.491 169.749C299.344 169.749 299.214 169.725 299.101 169.677C298.989 169.628 298.901 169.554 298.837 169.456C298.773 169.357 298.741 169.231 298.741 169.078C298.741 168.952 298.763 168.845 298.806 168.756C298.849 168.666 298.909 168.592 298.986 168.535C299.063 168.478 299.152 168.435 299.254 168.405C299.357 168.375 299.468 168.355 299.587 168.346C299.716 168.336 299.819 168.324 299.897 168.31C299.976 168.295 300.033 168.275 300.068 168.249C300.103 168.222 300.12 168.187 300.12 168.143V168.137C300.12 168.077 300.097 168.031 300.051 167.999C300.005 167.967 299.946 167.951 299.874 167.951C299.796 167.951 299.731 167.968 299.681 168.003C299.632 168.037 299.603 168.09 299.593 168.161H298.831C298.841 168.021 298.886 167.892 298.965 167.774C299.045 167.655 299.161 167.56 299.314 167.489C299.467 167.417 299.658 167.381 299.886 167.381C300.051 167.381 300.199 167.401 300.33 167.44C300.461 167.478 300.572 167.531 300.664 167.6C300.756 167.668 300.826 167.748 300.874 167.84C300.923 167.931 300.948 168.03 300.948 168.137V169.713H300.174V169.39H300.156C300.11 169.476 300.054 169.545 299.988 169.598C299.923 169.651 299.849 169.689 299.765 169.713C299.682 169.737 299.591 169.749 299.491 169.749ZM299.761 169.228C299.823 169.228 299.882 169.215 299.937 169.189C299.993 169.163 300.039 169.125 300.074 169.076C300.109 169.027 300.126 168.968 300.126 168.898V168.706C300.104 168.715 300.081 168.724 300.056 168.732C300.032 168.74 300.006 168.747 299.978 168.754C299.951 168.761 299.922 168.768 299.891 168.774C299.861 168.78 299.829 168.785 299.797 168.79C299.733 168.8 299.68 168.817 299.639 168.84C299.599 168.862 299.569 168.889 299.549 168.922C299.53 168.954 299.521 168.99 299.521 169.03C299.521 169.094 299.543 169.143 299.588 169.177C299.633 169.211 299.691 169.228 299.761 169.228ZM302.716 167.411V168.011H301.199V167.411H302.716ZM301.493 166.86H302.32V168.973C302.32 169.005 302.326 169.032 302.337 169.054C302.348 169.075 302.365 169.091 302.388 169.102C302.411 169.112 302.44 169.117 302.476 169.117C302.501 169.117 302.53 169.114 302.563 169.108C302.597 169.102 302.622 169.097 302.638 169.093L302.758 169.674C302.721 169.685 302.668 169.699 302.599 169.715C302.531 169.731 302.45 169.741 302.356 169.746C302.166 169.756 302.007 169.737 301.878 169.688C301.749 169.638 301.652 169.559 301.587 169.453C301.522 169.346 301.491 169.212 301.493 169.051V166.86ZM303.053 169.713V167.411H303.881V169.713H303.053ZM303.467 167.171C303.355 167.171 303.259 167.134 303.179 167.06C303.099 166.986 303.059 166.898 303.059 166.794C303.059 166.69 303.099 166.601 303.179 166.527C303.259 166.453 303.355 166.416 303.467 166.416C303.58 166.416 303.676 166.453 303.755 166.527C303.835 166.601 303.875 166.69 303.875 166.794C303.875 166.898 303.835 166.986 303.755 167.06C303.676 167.134 303.58 167.171 303.467 167.171ZM305.412 169.755C305.162 169.755 304.948 169.706 304.77 169.607C304.592 169.507 304.456 169.368 304.361 169.19C304.266 169.011 304.218 168.804 304.218 168.568C304.218 168.332 304.266 168.126 304.361 167.948C304.456 167.769 304.592 167.63 304.77 167.531C304.948 167.431 305.162 167.381 305.412 167.381C305.661 167.381 305.875 167.431 306.053 167.531C306.231 167.63 306.367 167.769 306.462 167.948C306.557 168.126 306.605 168.332 306.605 168.568C306.605 168.804 306.557 169.011 306.462 169.19C306.367 169.368 306.231 169.507 306.053 169.607C305.875 169.706 305.661 169.755 305.412 169.755ZM305.418 169.144C305.487 169.144 305.548 169.12 305.599 169.073C305.65 169.026 305.689 168.959 305.717 168.873C305.745 168.786 305.759 168.682 305.759 168.562C305.759 168.441 305.745 168.338 305.717 168.252C305.689 168.165 305.65 168.098 305.599 168.051C305.548 168.004 305.487 167.981 305.418 167.981C305.344 167.981 305.28 168.004 305.227 168.051C305.174 168.098 305.134 168.165 305.106 168.252C305.078 168.338 305.064 168.441 305.064 168.562C305.064 168.682 305.078 168.786 305.106 168.873C305.134 168.959 305.174 169.026 305.227 169.073C305.28 169.12 305.344 169.144 305.418 169.144ZM307.768 168.418V169.713H306.94V167.411H307.726V167.849H307.75C307.8 167.703 307.888 167.589 308.014 167.506C308.14 167.423 308.288 167.381 308.457 167.381C308.62 167.381 308.761 167.419 308.881 167.494C309.002 167.568 309.096 167.669 309.162 167.799C309.229 167.929 309.262 168.078 309.261 168.244V169.713H308.433V168.418C308.434 168.304 308.405 168.215 308.346 168.15C308.288 168.085 308.207 168.053 308.103 168.053C308.035 168.053 307.976 168.068 307.925 168.098C307.875 168.127 307.837 168.169 307.81 168.224C307.783 168.277 307.769 168.342 307.768 168.418ZM312.153 167.603C312.145 167.503 312.107 167.425 312.04 167.369C311.974 167.313 311.874 167.285 311.739 167.285C311.653 167.285 311.582 167.296 311.528 167.317C311.474 167.337 311.434 167.364 311.408 167.399C311.382 167.434 311.368 167.474 311.367 167.519C311.365 167.556 311.372 167.59 311.387 167.619C311.403 167.648 311.428 167.675 311.462 167.699C311.496 167.722 311.539 167.743 311.592 167.762C311.645 167.781 311.708 167.798 311.781 167.813L312.033 167.867C312.202 167.903 312.348 167.95 312.469 168.009C312.59 168.068 312.689 168.138 312.766 168.218C312.842 168.296 312.899 168.385 312.935 168.484C312.972 168.583 312.991 168.691 312.992 168.808C312.991 169.01 312.94 169.181 312.84 169.321C312.741 169.461 312.598 169.567 312.412 169.64C312.227 169.713 312.005 169.749 311.745 169.749C311.478 169.749 311.245 169.71 311.046 169.631C310.849 169.552 310.695 169.431 310.585 169.267C310.476 169.102 310.421 168.891 310.42 168.634H311.211C311.216 168.728 311.24 168.807 311.282 168.871C311.324 168.935 311.383 168.983 311.459 169.016C311.536 169.049 311.627 169.066 311.733 169.066C311.822 169.066 311.896 169.055 311.956 169.033C312.016 169.011 312.062 168.98 312.093 168.941C312.124 168.902 312.14 168.858 312.141 168.808C312.14 168.761 312.124 168.72 312.094 168.685C312.065 168.649 312.017 168.617 311.95 168.589C311.883 168.56 311.793 168.533 311.679 168.508L311.373 168.442C311.101 168.383 310.887 168.285 310.73 168.147C310.574 168.008 310.497 167.819 310.498 167.579C310.497 167.384 310.549 167.214 310.654 167.068C310.76 166.921 310.906 166.807 311.093 166.725C311.281 166.643 311.496 166.602 311.739 166.602C311.987 166.602 312.201 166.643 312.382 166.726C312.563 166.809 312.702 166.926 312.8 167.077C312.899 167.227 312.949 167.402 312.95 167.603H312.153ZM314.43 169.755C314.18 169.755 313.966 169.706 313.789 169.607C313.611 169.507 313.474 169.368 313.379 169.19C313.284 169.011 313.237 168.804 313.237 168.568C313.237 168.332 313.284 168.126 313.379 167.948C313.474 167.769 313.611 167.63 313.789 167.531C313.966 167.431 314.18 167.381 314.43 167.381C314.68 167.381 314.894 167.431 315.072 167.531C315.249 167.63 315.386 167.769 315.481 167.948C315.576 168.126 315.623 168.332 315.623 168.568C315.623 168.804 315.576 169.011 315.481 169.19C315.386 169.368 315.249 169.507 315.072 169.607C314.894 169.706 314.68 169.755 314.43 169.755ZM314.436 169.144C314.506 169.144 314.566 169.12 314.617 169.073C314.668 169.026 314.708 168.959 314.736 168.873C314.764 168.786 314.778 168.682 314.778 168.562C314.778 168.441 314.764 168.338 314.736 168.252C314.708 168.165 314.668 168.098 314.617 168.051C314.566 168.004 314.506 167.981 314.436 167.981C314.362 167.981 314.299 168.004 314.246 168.051C314.193 168.098 314.152 168.165 314.124 168.252C314.096 168.338 314.082 168.441 314.082 168.562C314.082 168.682 314.096 168.786 314.124 168.873C314.152 168.959 314.193 169.026 314.246 169.073C314.299 169.12 314.362 169.144 314.436 169.144ZM317.068 169.755C316.818 169.755 316.604 169.706 316.426 169.607C316.249 169.507 316.112 169.368 316.017 169.19C315.922 169.011 315.875 168.804 315.875 168.568C315.875 168.332 315.922 168.126 316.017 167.948C316.112 167.769 316.249 167.63 316.426 167.531C316.604 167.431 316.818 167.381 317.068 167.381C317.294 167.381 317.489 167.422 317.654 167.504C317.82 167.585 317.948 167.7 318.039 167.849C318.13 167.997 318.176 168.171 318.177 168.37H317.41C317.399 168.249 317.364 168.158 317.305 168.095C317.247 168.031 317.172 167.999 317.08 167.999C317.008 167.999 316.945 168.02 316.891 168.062C316.837 168.103 316.795 168.165 316.765 168.249C316.735 168.332 316.72 168.436 316.72 168.562C316.72 168.688 316.735 168.793 316.765 168.877C316.795 168.96 316.837 169.022 316.891 169.064C316.945 169.105 317.008 169.126 317.08 169.126C317.141 169.126 317.195 169.112 317.242 169.084C317.289 169.055 317.327 169.013 317.356 168.958C317.386 168.902 317.404 168.834 317.41 168.754H318.177C318.174 168.957 318.128 169.134 318.038 169.285C317.948 169.435 317.82 169.55 317.655 169.632C317.492 169.714 317.296 169.755 317.068 169.755ZM318.518 169.713V167.411H319.346V169.713H318.518ZM318.932 167.171C318.82 167.171 318.724 167.134 318.644 167.06C318.564 166.986 318.524 166.898 318.524 166.794C318.524 166.69 318.564 166.601 318.644 166.527C318.724 166.453 318.82 166.416 318.932 166.416C319.045 166.416 319.141 166.453 319.22 166.527C319.3 166.601 319.34 166.69 319.34 166.794C319.34 166.898 319.3 166.986 319.22 167.06C319.141 167.134 319.045 167.171 318.932 167.171ZM320.87 169.755C320.625 169.755 320.413 169.708 320.235 169.614C320.058 169.519 319.922 169.384 319.826 169.207C319.731 169.029 319.683 168.816 319.683 168.568C319.683 168.33 319.731 168.123 319.827 167.945C319.923 167.767 320.059 167.628 320.233 167.53C320.408 167.431 320.615 167.381 320.853 167.381C321.026 167.381 321.184 167.408 321.325 167.462C321.466 167.516 321.586 167.594 321.686 167.697C321.786 167.799 321.863 167.923 321.917 168.069C321.971 168.215 321.998 168.379 321.998 168.562V168.754H319.941V168.298H321.236C321.235 168.233 321.218 168.175 321.185 168.125C321.153 168.074 321.11 168.034 321.055 168.006C321.001 167.977 320.939 167.963 320.87 167.963C320.804 167.963 320.742 167.977 320.686 168.006C320.63 168.034 320.585 168.073 320.551 168.123C320.518 168.173 320.501 168.232 320.499 168.298V168.79C320.499 168.864 320.514 168.93 320.545 168.988C320.576 169.046 320.621 169.091 320.679 169.124C320.737 169.157 320.807 169.174 320.888 169.174C320.945 169.174 320.997 169.166 321.044 169.15C321.092 169.134 321.133 169.111 321.167 169.081C321.201 169.05 321.226 169.013 321.242 168.97H321.998C321.972 169.13 321.91 169.269 321.813 169.387C321.716 169.504 321.588 169.594 321.428 169.659C321.269 169.723 321.083 169.755 320.87 169.755ZM323.708 167.411V168.011H322.191V167.411H323.708ZM322.485 166.86H323.312V168.973C323.312 169.005 323.318 169.032 323.329 169.054C323.34 169.075 323.357 169.091 323.38 169.102C323.403 169.112 323.432 169.117 323.468 169.117C323.493 169.117 323.522 169.114 323.555 169.108C323.589 169.102 323.614 169.097 323.63 169.093L323.75 169.674C323.713 169.685 323.66 169.699 323.591 169.715C323.523 169.731 323.442 169.741 323.348 169.746C323.159 169.756 322.999 169.737 322.87 169.688C322.741 169.638 322.644 169.559 322.58 169.453C322.515 169.346 322.483 169.212 322.485 169.051V166.86ZM324.549 170.577C324.454 170.577 324.364 170.569 324.278 170.554C324.192 170.54 324.117 170.521 324.052 170.496L324.232 169.908C324.3 169.932 324.362 169.948 324.417 169.955C324.474 169.962 324.523 169.958 324.563 169.943C324.604 169.928 324.633 169.899 324.651 169.857L324.669 169.815L323.86 167.411H324.723L325.095 169.006H325.119L325.497 167.411H326.366L325.527 169.905C325.485 170.032 325.424 170.146 325.344 170.247C325.265 170.349 325.161 170.429 325.032 170.488C324.903 170.547 324.742 170.577 324.549 170.577Z" fill="white"/>
<path d="M293.117 167.841C293.117 168.143 293.068 168.442 292.973 168.717C292.879 168.992 292.741 169.237 292.57 169.435C292.398 169.634 292.196 169.781 291.978 169.868C291.76 169.955 291.53 169.978 291.304 169.937C291.078 169.897 290.862 169.792 290.669 169.631C290.476 169.47 290.312 169.256 290.186 169.004C290.061 168.752 289.978 168.467 289.943 168.168C289.908 167.87 289.921 167.565 289.982 167.274L290.52 167.472C290.481 167.661 290.472 167.86 290.495 168.054C290.518 168.248 290.572 168.433 290.653 168.597C290.735 168.761 290.842 168.9 290.967 169.004C291.092 169.109 291.233 169.177 291.38 169.204C291.527 169.23 291.676 169.215 291.818 169.158C291.96 169.102 292.091 169.006 292.202 168.877C292.314 168.748 292.403 168.589 292.465 168.41C292.526 168.231 292.558 168.037 292.558 167.841L293.117 167.841Z" fill="white"/>
<ellipse cx="290.977" cy="166.847" rx="0.379599" ry="0.503183" fill="white"/>
<ellipse cx="292.161" cy="166.847" rx="0.379599" ry="0.503183" fill="white"/>
</g>
<defs>
<clipPath id="clip0_353_345">
<rect width="534.824" height="305.095" fill="white" transform="matrix(-1 0 0 1 535.615 0.52652)"/>
</clipPath>
</defs>
</svg>
